<svg width="939" height="498" viewBox="0 0 939 498" fill="none" xmlns="http://www.w3.org/2000/svg">
<g clip-path="url(#clip0_2_2235)">
<path d="M689.614 35.6401H188.345C186.582 35.6401 184.836 35.9874 183.207 36.662C181.579 37.3367 180.099 38.3257 178.852 39.5723C177.605 40.819 176.616 42.2991 175.941 43.9279C175.267 45.5568 174.919 47.3027 174.919 49.0658V409.395C174.919 411.158 175.267 412.904 175.941 414.533C176.616 416.161 177.605 417.641 178.852 418.888C180.099 420.135 181.579 421.124 183.208 421.798C184.836 422.473 186.582 422.82 188.345 422.82H689.614C691.377 422.82 693.123 422.473 694.752 421.798C696.38 421.124 697.86 420.135 699.107 418.888C700.354 417.641 701.343 416.161 702.018 414.533C702.692 412.904 703.04 411.158 703.04 409.395V49.0658C703.04 47.3027 702.692 45.5568 702.018 43.9279C701.343 42.299 700.354 40.819 699.107 39.5723C697.86 38.3256 696.38 37.3367 694.752 36.662C693.123 35.9873 691.377 35.6401 689.614 35.6401ZM202.459 56.7001C201.178 56.7001 199.925 56.3201 198.859 55.608C197.794 54.896 196.963 53.884 196.473 52.6999C195.982 51.5159 195.854 50.2129 196.104 48.9559C196.354 47.699 196.971 46.5443 197.877 45.6381C198.784 44.7318 199.938 44.1147 201.195 43.8646C202.452 43.6146 203.755 43.7429 204.939 44.2334C206.123 44.7239 207.135 45.5544 207.847 46.62C208.559 47.6857 208.939 48.9385 208.939 50.2201C208.939 51.9387 208.257 53.5869 207.041 54.8021C205.826 56.0174 204.178 56.7001 202.459 56.7001V56.7001ZM241.339 56.7001C240.058 56.7001 238.805 56.3201 237.739 55.608C236.674 54.896 235.843 53.884 235.353 52.6999C234.862 51.5159 234.734 50.2129 234.984 48.9559C235.234 47.699 235.851 46.5443 236.757 45.6381C237.664 44.7318 238.818 44.1147 240.075 43.8646C241.332 43.6146 242.635 43.7429 243.819 44.2334C245.003 44.7239 246.015 45.5544 246.727 46.62C247.439 47.6857 247.819 48.9385 247.819 50.2201C247.819 51.9387 247.137 53.5869 245.921 54.8021C244.706 56.0174 243.058 56.7001 241.339 56.7001V56.7001ZM280.219 56.7001C278.938 56.7001 277.685 56.3201 276.619 55.608C275.554 54.896 274.723 53.884 274.233 52.6999C273.742 51.5159 273.614 50.2129 273.864 48.9559C274.114 47.699 274.731 46.5443 275.637 45.6381C276.544 44.7318 277.698 44.1147 278.955 43.8646C280.212 43.6146 281.515 43.7429 282.699 44.2334C283.883 44.7239 284.895 45.5544 285.607 46.62C286.319 47.6857 286.699 48.9385 286.699 50.2201C286.699 51.9387 286.017 53.5869 284.801 54.8021C283.586 56.0174 281.938 56.7001 280.219 56.7001L280.219 56.7001ZM319.099 56.7001C317.818 56.7001 316.565 56.3201 315.499 55.608C314.434 54.896 313.603 53.884 313.113 52.6999C312.622 51.5159 312.494 50.2129 312.744 48.9559C312.994 47.699 313.611 46.5443 314.517 45.6381C315.424 44.7318 316.578 44.1147 317.835 43.8646C319.092 43.6146 320.395 43.7429 321.579 44.2334C322.763 44.7239 323.775 45.5544 324.487 46.62C325.199 47.6857 325.579 48.9385 325.579 50.2201C325.579 51.9387 324.897 53.5869 323.681 54.8021C322.466 56.0174 320.818 56.7001 319.099 56.7001L319.099 56.7001ZM357.979 56.7001C356.698 56.7001 355.445 56.3201 354.379 55.608C353.314 54.896 352.483 53.884 351.993 52.6999C351.502 51.5159 351.374 50.2129 351.624 48.9559C351.874 47.699 352.491 46.5443 353.397 45.6381C354.304 44.7318 355.458 44.1147 356.715 43.8646C357.972 43.6146 359.275 43.7429 360.459 44.2334C361.643 44.7239 362.655 45.5544 363.367 46.62C364.079 47.6857 364.459 48.9385 364.459 50.2201C364.459 51.9387 363.777 53.5869 362.561 54.8021C361.346 56.0174 359.698 56.7001 357.979 56.7001L357.979 56.7001ZM396.859 56.7001C395.578 56.7001 394.325 56.3201 393.259 55.608C392.194 54.896 391.363 53.884 390.873 52.6999C390.382 51.5159 390.254 50.2129 390.504 48.9559C390.754 47.699 391.371 46.5443 392.277 45.6381C393.184 44.7318 394.338 44.1147 395.595 43.8646C396.852 43.6146 398.155 43.7429 399.339 44.2334C400.523 44.7239 401.535 45.5544 402.247 46.62C402.959 47.6857 403.339 48.9385 403.339 50.2201C403.339 51.9387 402.657 53.5869 401.441 54.8021C400.226 56.0174 398.578 56.7001 396.859 56.7001L396.859 56.7001ZM435.739 56.7001C434.458 56.7001 433.205 56.3201 432.139 55.608C431.074 54.896 430.243 53.884 429.753 52.6999C429.262 51.5159 429.134 50.2129 429.384 48.9559C429.634 47.699 430.251 46.5443 431.157 45.6381C432.064 44.7318 433.218 44.1147 434.475 43.8646C435.732 43.6146 437.035 43.7429 438.219 44.2334C439.403 44.7239 440.415 45.5544 441.127 46.62C441.839 47.6857 442.219 48.9385 442.219 50.2201C442.219 51.9387 441.537 53.5869 440.321 54.8021C439.106 56.0174 437.458 56.7001 435.74 56.7001L435.739 56.7001ZM474.619 56.7001C473.338 56.7001 472.085 56.3201 471.019 55.608C469.954 54.896 469.123 53.884 468.633 52.6999C468.142 51.5159 468.014 50.2129 468.264 48.9559C468.514 47.699 469.131 46.5443 470.037 45.6381C470.944 44.7318 472.098 44.1147 473.355 43.8646C474.612 43.6146 475.915 43.7429 477.099 44.2334C478.283 44.7239 479.295 45.5544 480.007 46.62C480.719 47.6857 481.099 48.9385 481.099 50.2201C481.099 51.9387 480.417 53.5869 479.201 54.8021C477.986 56.0173 476.338 56.7001 474.62 56.7001L474.619 56.7001ZM513.499 56.7001C512.218 56.7001 510.965 56.3201 509.899 55.608C508.834 54.896 508.003 53.884 507.513 52.6999C507.022 51.5159 506.894 50.2129 507.144 48.9559C507.394 47.699 508.011 46.5443 508.917 45.6381C509.824 44.7318 510.978 44.1147 512.235 43.8646C513.492 43.6146 514.795 43.7429 515.979 44.2334C517.163 44.7239 518.175 45.5544 518.887 46.62C519.599 47.6857 519.979 48.9385 519.979 50.2201C519.979 51.9387 519.297 53.5869 518.081 54.8021C516.866 56.0173 515.218 56.7001 513.5 56.7001L513.499 56.7001ZM552.379 56.7001C551.098 56.7001 549.845 56.3201 548.779 55.608C547.714 54.896 546.883 53.884 546.393 52.6999C545.902 51.5159 545.774 50.2129 546.024 48.9559C546.274 47.699 546.891 46.5443 547.797 45.6381C548.704 44.7318 549.858 44.1147 551.115 43.8646C552.372 43.6146 553.675 43.7429 554.859 44.2334C556.043 44.7239 557.055 45.5544 557.767 46.62C558.479 47.6857 558.859 48.9385 558.859 50.2201C558.859 51.9387 558.177 53.5869 556.961 54.8021C555.746 56.0173 554.098 56.7001 552.38 56.7001L552.379 56.7001ZM591.259 56.7001C589.978 56.7001 588.725 56.3201 587.659 55.608C586.594 54.896 585.763 53.884 585.273 52.6999C584.782 51.5159 584.654 50.2129 584.904 48.9559C585.154 47.699 585.771 46.5443 586.677 45.6381C587.584 44.7318 588.738 44.1147 589.995 43.8646C591.252 43.6146 592.555 43.7429 593.739 44.2334C594.923 44.7239 595.935 45.5544 596.647 46.62C597.359 47.6857 597.739 48.9385 597.739 50.2201C597.739 51.9387 597.057 53.5869 595.841 54.8021C594.626 56.0173 592.978 56.7001 591.26 56.7001L591.259 56.7001ZM630.139 56.7001C628.858 56.7001 627.605 56.3201 626.539 55.608C625.474 54.896 624.643 53.884 624.153 52.6999C623.662 51.5159 623.534 50.2129 623.784 48.9559C624.034 47.699 624.651 46.5443 625.557 45.6381C626.464 44.7318 627.618 44.1147 628.875 43.8646C630.132 43.6146 631.435 43.7429 632.619 44.2334C633.803 44.7239 634.815 45.5544 635.527 46.62C636.239 47.6857 636.619 48.9385 636.619 50.2201C636.619 51.9387 635.937 53.5869 634.721 54.8021C633.506 56.0173 631.858 56.7001 630.14 56.7001L630.139 56.7001ZM669.019 56.7001C667.738 56.7001 666.485 56.3201 665.419 55.608C664.354 54.896 663.523 53.884 663.033 52.6999C662.542 51.5159 662.414 50.2129 662.664 48.9559C662.914 47.699 663.531 46.5443 664.437 45.6381C665.344 44.7318 666.498 44.1147 667.755 43.8646C669.012 43.6146 670.315 43.7429 671.499 44.2334C672.683 44.7239 673.695 45.5544 674.407 46.62C675.119 47.6857 675.499 48.9385 675.499 50.2201C675.499 51.9387 674.817 53.5869 673.601 54.8021C672.386 56.0173 670.738 56.7001 669.02 56.7001L669.019 56.7001Z" fill="#CACACA"/>
<path d="M663.694 1.48981e-09H162.425C160.662 -2.23234e-05 158.916 0.347223 157.288 1.02191C155.659 1.6966 154.179 2.68552 152.932 3.93221C151.685 5.17889 150.696 6.65893 150.022 8.28781C149.347 9.91669 149 11.6625 149 13.4256V373.755C149 375.518 149.347 377.264 150.022 378.892C150.696 380.521 151.685 382.001 152.932 383.248C154.179 384.495 155.659 385.484 157.288 386.158C158.916 386.833 160.662 387.18 162.425 387.18H663.694C665.457 387.18 667.203 386.833 668.832 386.158C670.461 385.484 671.941 384.495 673.187 383.248C674.434 382.001 675.423 380.521 676.098 378.892C676.772 377.264 677.12 375.518 677.12 373.755V13.4256C677.12 11.6625 676.772 9.91668 676.098 8.2878C675.423 6.65891 674.434 5.17887 673.187 3.93219C671.941 2.68551 670.461 1.6966 668.832 1.02191C667.203 0.347225 665.457 -2.62631e-05 663.694 1.48981e-09ZM176.539 21.06C175.258 21.06 174.005 20.68 172.939 19.9679C171.874 19.2559 171.043 18.2438 170.553 17.0598C170.062 15.8757 169.934 14.5728 170.184 13.3158C170.434 12.0588 171.051 10.9042 171.957 9.99796C172.864 9.09171 174.018 8.47455 175.275 8.22452C176.532 7.97449 177.835 8.10281 179.019 8.59326C180.203 9.08372 181.215 9.91427 181.927 10.9799C182.639 12.0455 183.02 13.2984 183.02 14.58C183.019 16.2986 182.337 17.9468 181.122 19.162C179.906 20.3772 178.258 21.06 176.54 21.06H176.539ZM215.419 21.06C214.138 21.06 212.885 20.68 211.819 19.9679C210.754 19.2559 209.923 18.2438 209.433 17.0598C208.942 15.8757 208.814 14.5728 209.064 13.3158C209.314 12.0588 209.931 10.9042 210.837 9.99796C211.744 9.09171 212.898 8.47455 214.155 8.22452C215.412 7.97449 216.715 8.10281 217.899 8.59326C219.083 9.08372 220.095 9.91427 220.807 10.9799C221.519 12.0455 221.899 13.2984 221.899 14.58C221.899 16.2986 221.217 17.9468 220.001 19.162C218.786 20.3772 217.138 21.06 215.42 21.06H215.419ZM254.299 21.06C253.018 21.06 251.765 20.68 250.699 19.9679C249.634 19.2559 248.803 18.2438 248.313 17.0598C247.822 15.8757 247.694 14.5728 247.944 13.3158C248.194 12.0588 248.811 10.9042 249.717 9.99796C250.624 9.09171 251.778 8.47455 253.035 8.22452C254.292 7.97449 255.595 8.10281 256.779 8.59326C257.963 9.08372 258.975 9.91427 259.687 10.9799C260.399 12.0455 260.779 13.2984 260.779 14.58C260.779 16.2986 260.097 17.9468 258.882 19.162C257.666 20.3772 256.018 21.06 254.3 21.06H254.299ZM293.179 21.06C291.898 21.06 290.645 20.68 289.579 19.9679C288.514 19.2559 287.683 18.2438 287.193 17.0598C286.702 15.8757 286.574 14.5728 286.824 13.3158C287.074 12.0588 287.691 10.9042 288.597 9.99796C289.504 9.09171 290.658 8.47455 291.915 8.22452C293.172 7.97449 294.475 8.10281 295.659 8.59326C296.843 9.08372 297.855 9.91427 298.567 10.9799C299.279 12.0455 299.659 13.2984 299.659 14.58C299.659 16.2986 298.977 17.9468 297.762 19.162C296.546 20.3772 294.898 21.06 293.18 21.06H293.179ZM332.059 21.06C330.778 21.06 329.525 20.68 328.459 19.9679C327.394 19.2559 326.563 18.2438 326.073 17.0598C325.582 15.8757 325.454 14.5728 325.704 13.3158C325.954 12.0588 326.571 10.9042 327.477 9.99796C328.384 9.09171 329.538 8.47455 330.795 8.22452C332.052 7.97449 333.355 8.10281 334.539 8.59326C335.723 9.08372 336.735 9.91427 337.447 10.9799C338.159 12.0455 338.539 13.2984 338.539 14.58C338.539 16.2986 337.857 17.9468 336.642 19.162C335.426 20.3772 333.778 21.06 332.06 21.06H332.059ZM370.939 21.06C369.658 21.06 368.405 20.68 367.339 19.9679C366.274 19.2559 365.443 18.2438 364.953 17.0598C364.462 15.8757 364.334 14.5728 364.584 13.3158C364.834 12.0588 365.451 10.9042 366.357 9.99796C367.264 9.09171 368.418 8.47455 369.675 8.22452C370.932 7.97449 372.235 8.10281 373.419 8.59326C374.603 9.08372 375.615 9.91427 376.327 10.9799C377.039 12.0455 377.419 13.2984 377.419 14.58C377.419 16.2986 376.737 17.9468 375.522 19.162C374.306 20.3772 372.658 21.0599 370.94 21.06H370.939ZM409.819 21.06C408.538 21.06 407.285 20.68 406.219 19.9679C405.154 19.2559 404.323 18.2438 403.833 17.0598C403.342 15.8757 403.214 14.5728 403.464 13.3158C403.714 12.0588 404.331 10.9042 405.237 9.99796C406.144 9.09171 407.298 8.47455 408.555 8.22452C409.812 7.97449 411.115 8.10281 412.299 8.59326C413.483 9.08372 414.495 9.91427 415.207 10.9799C415.919 12.0455 416.299 13.2984 416.299 14.58C416.299 16.2986 415.617 17.9467 414.402 19.162C413.186 20.3772 411.538 21.0599 409.82 21.06H409.819ZM448.699 21.06C447.418 21.06 446.165 20.68 445.099 19.9679C444.034 19.2559 443.203 18.2438 442.713 17.0598C442.222 15.8757 442.094 14.5728 442.344 13.3158C442.594 12.0588 443.211 10.9042 444.117 9.99796C445.024 9.09171 446.178 8.47455 447.435 8.22452C448.692 7.97449 449.995 8.10281 451.179 8.59326C452.363 9.08372 453.375 9.91427 454.087 10.9799C454.799 12.0455 455.18 13.2984 455.18 14.58C455.179 16.2986 454.497 17.9467 453.282 19.162C452.066 20.3772 450.418 21.0599 448.7 21.06H448.699ZM487.579 21.06C486.298 21.06 485.045 20.68 483.979 19.9679C482.914 19.2559 482.083 18.2438 481.593 17.0598C481.102 15.8757 480.974 14.5728 481.224 13.3158C481.474 12.0588 482.091 10.9042 482.997 9.99796C483.904 9.09171 485.058 8.47455 486.315 8.22452C487.572 7.97449 488.875 8.10281 490.059 8.59326C491.243 9.08372 492.255 9.91427 492.967 10.9799C493.679 12.0455 494.06 13.2984 494.06 14.58C494.059 16.2986 493.377 17.9467 492.162 19.162C490.946 20.3772 489.298 21.0599 487.58 21.06H487.579ZM526.459 21.06C525.178 21.06 523.925 20.68 522.859 19.9679C521.794 19.2559 520.963 18.2438 520.473 17.0598C519.982 15.8757 519.854 14.5728 520.104 13.3158C520.354 12.0588 520.971 10.9042 521.877 9.99796C522.784 9.09171 523.938 8.47455 525.195 8.22452C526.452 7.97449 527.755 8.10281 528.939 8.59326C530.123 9.08372 531.135 9.91427 531.847 10.9799C532.559 12.0455 532.94 13.2984 532.94 14.58C532.939 16.2986 532.257 17.9467 531.042 19.162C529.826 20.3772 528.178 21.0599 526.46 21.06H526.459ZM565.339 21.06C564.058 21.06 562.805 20.68 561.739 19.9679C560.674 19.2559 559.843 18.2438 559.353 17.0598C558.862 15.8757 558.734 14.5728 558.984 13.3158C559.234 12.0588 559.851 10.9042 560.757 9.99796C561.664 9.09171 562.818 8.47455 564.075 8.22452C565.332 7.97449 566.635 8.10281 567.819 8.59326C569.003 9.08372 570.015 9.91427 570.727 10.9799C571.439 12.0455 571.819 13.2984 571.819 14.58C571.819 16.2986 571.137 17.9467 569.922 19.162C568.706 20.3772 567.058 21.0599 565.34 21.06H565.339ZM604.219 21.06C602.938 21.06 601.685 20.68 600.619 19.9679C599.554 19.2559 598.723 18.2438 598.233 17.0598C597.742 15.8757 597.614 14.5728 597.864 13.3158C598.114 12.0588 598.731 10.9042 599.637 9.99796C600.544 9.09171 601.698 8.47455 602.955 8.22452C604.212 7.97449 605.515 8.10281 606.699 8.59326C607.883 9.08372 608.895 9.91427 609.607 10.9799C610.319 12.0455 610.699 13.2984 610.699 14.58C610.699 16.2986 610.017 17.9467 608.802 19.162C607.586 20.3772 605.938 21.0599 604.22 21.06H604.219ZM643.099 21.06C641.818 21.06 640.565 20.68 639.499 19.9679C638.434 19.2559 637.603 18.2438 637.113 17.0598C636.622 15.8757 636.494 14.5728 636.744 13.3158C636.994 12.0588 637.611 10.9042 638.517 9.99796C639.424 9.09171 640.578 8.47455 641.835 8.22452C643.092 7.97449 644.395 8.10281 645.579 8.59326C646.763 9.08372 647.775 9.91427 648.487 10.9799C649.199 12.0455 649.579 13.2984 649.579 14.58C649.579 16.2986 648.897 17.9467 647.682 19.1619C646.466 20.3772 644.818 21.0599 643.1 21.06H643.099Z" fill="#F0F0F0"/>
<path d="M223.482 271.036C222.944 271.036 222.414 271.065 221.89 271.116C222.388 268.264 222.105 265.33 221.071 262.625C220.038 259.92 218.292 257.546 216.019 255.752C213.746 253.958 211.03 252.813 208.159 252.437C205.288 252.06 202.369 252.468 199.711 253.615C197.052 254.763 194.754 256.607 193.058 258.955C191.363 261.302 190.333 264.064 190.079 266.948C189.826 269.832 190.356 272.732 191.615 275.339C192.875 277.946 194.816 280.165 197.233 281.759C196.042 282.475 195.025 283.447 194.257 284.605C193.488 285.763 192.987 287.077 192.789 288.453C192.592 289.828 192.703 291.23 193.115 292.558C193.527 293.885 194.229 295.104 195.17 296.126C196.112 297.148 197.269 297.948 198.558 298.467C199.847 298.986 201.235 299.212 202.622 299.129C204.009 299.045 205.36 298.653 206.577 297.982C207.794 297.311 208.847 296.378 209.658 295.25C211.087 297.672 213.127 299.677 215.574 301.063C218.021 302.449 220.79 303.168 223.602 303.148C226.414 303.128 229.172 302.37 231.599 300.949C234.026 299.529 236.038 297.495 237.432 295.053C238.826 292.61 239.555 289.845 239.544 287.032C239.534 284.22 238.785 281.459 237.372 279.028C235.96 276.596 233.933 274.577 231.495 273.175C229.057 271.772 226.294 271.035 223.482 271.036V271.036Z" fill="#F9A826"/>
<path d="M212.027 298.182L188.853 284.885L184.653 292.203L207.828 305.501L212.027 298.182Z" fill="#CACACA"/>
<path d="M182.257 248.917C180.922 247.009 178.885 245.709 176.593 245.3C174.3 244.891 171.939 245.408 170.027 246.737L148.677 261.607C146.765 262.94 145.461 264.978 145.051 267.272C144.641 269.567 145.16 271.93 146.492 273.842C147.825 275.754 149.863 277.059 152.157 277.469C154.452 277.879 156.815 277.36 158.727 276.027L180.077 261.157C181.986 259.82 183.287 257.782 183.695 255.488C184.104 253.193 183.587 250.831 182.257 248.917Z" fill="#CACACA"/>
<path d="M210.307 303.677L209.227 303.057L186.057 289.767L185.707 289.567L175.317 290.267L138.857 344.427L107.507 390.997L64.9272 454.247C64.4134 455.017 64.063 455.884 63.898 456.794C63.7329 457.705 63.7566 458.639 63.9675 459.54C64.1784 460.441 64.5722 461.29 65.1243 462.032C65.6764 462.775 66.3752 463.396 67.1772 463.857L117.977 493.007C118.772 493.466 119.652 493.758 120.564 493.864C121.475 493.971 122.399 493.89 123.278 493.627C124.157 493.364 124.973 492.924 125.677 492.334C126.38 491.745 126.955 491.017 127.367 490.197L161.567 422.207L186.777 372.097L216.077 313.857L216.167 313.687L210.307 303.677Z" fill="#E4E4E4"/>
<path d="M131.784 486.114L66.8477 448.623L60.1548 460.215L125.091 497.706L131.784 486.114Z" fill="#CACACA"/>
<path d="M680.541 114.946C683.132 106.69 689.023 99.1167 697.171 96.3254C705.32 93.5342 717.251 97.7861 723.377 103.891C734.582 115.059 734.927 128.73 727.228 140.853C725.697 140.772 720.413 140.712 718.864 140.654L716.671 133.347V140.582C704.575 140.208 691.981 140.442 679.38 140.684C678.251 132.101 677.95 123.203 680.541 114.946Z" fill="#2F2E41"/>
<path d="M626.652 245.879C626.178 244.868 625.932 243.766 625.93 242.65C625.928 241.534 626.171 240.431 626.641 239.419C627.111 238.407 627.798 237.511 628.652 236.793C629.507 236.075 630.508 235.553 631.586 235.264L664.144 173.832L677.286 183.974L641.15 241.171C641.515 243.014 641.192 244.927 640.242 246.548C639.291 248.168 637.779 249.384 635.992 249.964C634.205 250.544 632.267 250.449 630.546 249.696C628.824 248.943 627.439 247.585 626.652 245.879Z" fill="#FFB6B6"/>
<path d="M669.434 441.403H658.4L653.151 398.845L669.436 398.846L669.434 441.403Z" fill="#FFB6B6"/>
<path d="M737.434 441.403H726.4L721.151 398.845L737.436 398.846L737.434 441.403Z" fill="#FFB6B6"/>
<path d="M713.671 199.347L716.171 205.847L715.671 212.347L667.671 206.347L669.171 200.847L674.671 194.347L713.671 199.347Z" fill="#FFB6B6"/>
<path d="M698.201 140.854C707.852 140.854 715.676 133.03 715.676 123.378C715.676 113.727 707.852 105.903 698.201 105.903C688.55 105.903 680.726 113.727 680.726 123.378C680.726 133.03 688.55 140.854 698.201 140.854Z" fill="#FFB7B7"/>
<path d="M679.671 153.347L689.671 147.347L709.671 145.347L727.348 149.347L727.171 181.847L715.957 210.367L668.957 204.367L667.171 194.307C667.171 194.307 654.171 176.847 668.171 166.847L679.671 153.347Z" fill="#F9A826"/>
<path d="M716.171 209.847V220.953C716.171 220.953 729.171 237.847 722.171 250.847L742.229 423.853H721.229L686.171 277.847L671.229 420.853H653.229L650.229 261.853C650.229 261.853 652.171 220.847 663.171 213.847L668.229 204.853L716.171 209.847Z" fill="#2F2E41"/>
<path d="M686.194 100.623C689.552 98.5756 693.398 97.4683 697.33 97.4165C701.262 97.3646 705.136 98.3702 708.547 100.328C711.957 102.286 714.779 105.124 716.717 108.545C718.655 111.967 719.639 115.847 719.565 119.778C709.797 120.228 699.535 120.345 689.131 120.365L686.671 114.347L685.222 120.369C682.051 120.369 678.875 120.365 675.692 120.357C675.563 116.436 676.464 112.55 678.307 109.087C680.15 105.624 682.87 102.705 686.194 100.623Z" fill="#2F2E41"/>
<path d="M699.548 232.81C699.951 232.9 700.347 233.023 700.731 233.175L731.238 212.176L730.54 203.206L743.94 200.383L746.719 216.143C746.944 217.416 746.749 218.728 746.165 219.881C745.58 221.034 744.638 221.967 743.478 222.538L705.688 241.175C705.545 242.761 704.923 244.265 703.903 245.488C702.884 246.711 701.517 247.595 699.983 248.022C698.45 248.449 696.823 248.398 695.318 247.878C693.814 247.358 692.503 246.391 691.562 245.108C690.62 243.825 690.091 242.285 690.045 240.694C690 239.103 690.44 237.535 691.307 236.2C692.174 234.865 693.427 233.826 694.899 233.22C696.371 232.614 697.993 232.471 699.548 232.81Z" fill="#FFB6B6"/>
<path d="M186.777 372.097L161.567 422.207L107.507 390.997L138.857 344.427L186.777 372.097Z" fill="#F9A826"/>
<path d="M728.229 212.853L745.229 222.853C749.229 220.853 748.455 207.883 746.013 207.123L744.171 163.847C743.171 143.847 727.349 149.347 727.349 149.347L720.171 150.847L725.171 171.847L730.603 208.081C729.865 208.639 729.267 209.36 728.855 210.188C728.443 211.016 728.229 211.928 728.229 212.853Z" fill="#F9A826"/>
<path d="M680.06 153.073C680.06 153.073 666.332 153.29 662.041 160.678C658.606 166.593 652.187 190.188 649.761 199.37C648.431 199.332 647.125 199.738 646.051 200.524C644.977 201.31 644.195 202.431 643.828 203.711L662.229 210.853C666.229 208.853 665.118 206.081 664.104 204.647L670.957 194.367L678.957 190.367L682.275 154.969L680.06 153.073Z" fill="#F9A826"/>
<path d="M674.369 462.353H666.54L665.143 454.961L661.564 462.353H640.799C639.804 462.353 638.834 462.035 638.032 461.445C637.231 460.855 636.639 460.025 636.342 459.074C636.046 458.124 636.061 457.104 636.386 456.163C636.711 455.222 637.327 454.41 638.146 453.844L654.729 442.392V434.919L672.17 435.96L674.369 462.353Z" fill="#2F2E41"/>
<path d="M743.369 462.353H735.54L734.143 454.961L730.564 462.353H709.799C708.804 462.353 707.834 462.035 707.032 461.445C706.231 460.855 705.639 460.025 705.342 459.074C705.046 458.124 705.061 457.104 705.386 456.163C705.711 455.222 706.327 454.41 707.146 453.844L723.729 442.392V434.919L741.17 435.96L743.369 462.353Z" fill="#2F2E41"/>
<path d="M469.433 272.866C476.299 272.866 481.866 267.299 481.866 260.433C481.866 253.566 476.299 248 469.433 248C462.566 248 457 253.566 457 260.433C457 267.299 462.566 272.866 469.433 272.866Z" fill="#F9A826"/>
<path d="M527.433 234.866C534.299 234.866 539.866 229.299 539.866 222.433C539.866 215.566 534.299 210 527.433 210C520.566 210 515 215.566 515 222.433C515 229.299 520.566 234.866 527.433 234.866Z" fill="#F9A826"/>
<path d="M565.433 188.866C572.299 188.866 577.866 183.299 577.866 176.433C577.866 169.566 572.299 164 565.433 164C558.566 164 553 169.566 553 176.433C553 183.299 558.566 188.866 565.433 188.866Z" fill="#F9A826"/>
<line x1="416.5" y1="59" x2="416.5" y2="325" stroke="black" stroke-width="3"/>
<line x1="564.995" y1="326.5" x2="269.995" y2="325.5" stroke="black" stroke-width="3"/>
<path d="M313.471 351.064V359H308.286V351L299.614 336.6H305.119L311.103 346.552L317.087 336.6H322.175L313.471 351.064ZM334.223 359.384C331.897 359.384 329.796 358.883 327.919 357.88C326.063 356.877 324.601 355.501 323.535 353.752C322.489 351.981 321.967 349.997 321.967 347.8C321.967 345.603 322.489 343.629 323.535 341.88C324.601 340.109 326.063 338.723 327.919 337.72C329.796 336.717 331.897 336.216 334.223 336.216C336.548 336.216 338.639 336.717 340.495 337.72C342.351 338.723 343.812 340.109 344.879 341.88C345.945 343.629 346.479 345.603 346.479 347.8C346.479 349.997 345.945 351.981 344.879 353.752C343.812 355.501 342.351 356.877 340.495 357.88C338.639 358.883 336.548 359.384 334.223 359.384ZM334.223 354.968C335.545 354.968 336.74 354.669 337.807 354.072C338.873 353.453 339.705 352.6 340.303 351.512C340.921 350.424 341.231 349.187 341.231 347.8C341.231 346.413 340.921 345.176 340.303 344.088C339.705 343 338.873 342.157 337.807 341.56C336.74 340.941 335.545 340.632 334.223 340.632C332.9 340.632 331.705 340.941 330.639 341.56C329.572 342.157 328.729 343 328.111 344.088C327.513 345.176 327.215 346.413 327.215 347.8C327.215 349.187 327.513 350.424 328.111 351.512C328.729 352.6 329.572 353.453 330.639 354.072C331.705 354.669 332.9 354.968 334.223 354.968ZM360.327 359.384C357.127 359.384 354.631 358.499 352.839 356.728C351.068 354.957 350.183 352.429 350.183 349.144V336.6H355.367V348.952C355.367 352.963 357.031 354.968 360.359 354.968C361.98 354.968 363.217 354.488 364.071 353.528C364.924 352.547 365.351 351.021 365.351 348.952V336.6H370.471V349.144C370.471 352.429 369.575 354.957 367.783 356.728C366.012 358.499 363.527 359.384 360.327 359.384Z" fill="#FFB236"/>
<path d="M460.372 336.6V359H456.116L444.948 345.4V359H439.828V336.6H444.116L455.252 350.2V336.6H460.372ZM483.016 354.84V359H465.672V336.6H482.6V340.76H470.824V345.624H481.224V349.656H470.824V354.84H483.016ZM497.798 359.384C495.515 359.384 493.446 358.893 491.59 357.912C489.755 356.909 488.305 355.533 487.238 353.784C486.193 352.013 485.67 350.019 485.67 347.8C485.67 345.581 486.193 343.597 487.238 341.848C488.305 340.077 489.755 338.701 491.59 337.72C493.446 336.717 495.526 336.216 497.83 336.216C499.771 336.216 501.521 336.557 503.078 337.24C504.657 337.923 505.979 338.904 507.046 340.184L503.718 343.256C502.203 341.507 500.326 340.632 498.086 340.632C496.699 340.632 495.462 340.941 494.374 341.56C493.286 342.157 492.433 343 491.814 344.088C491.217 345.176 490.918 346.413 490.918 347.8C490.918 349.187 491.217 350.424 491.814 351.512C492.433 352.6 493.286 353.453 494.374 354.072C495.462 354.669 496.699 354.968 498.086 354.968C500.326 354.968 502.203 354.083 503.718 352.312L507.046 355.384C505.979 356.685 504.657 357.677 503.078 358.36C501.499 359.043 499.739 359.384 497.798 359.384ZM514.968 340.824H507.8V336.6H527.32V340.824H520.152V359H514.968V340.824ZM543.736 354.2H533.336L531.352 359H526.04L536.024 336.6H541.144L551.16 359H545.72L543.736 354.2ZM542.104 350.264L538.552 341.688L535 350.264H542.104Z" fill="#FFB236"/>
<path d="M415.433 119.866C422.299 119.866 427.866 114.299 427.866 107.433C427.866 100.566 422.299 95 415.433 95C408.566 95 403 100.566 403 107.433C403 114.299 408.566 119.866 415.433 119.866Z" fill="#F9A826"/>
<path d="M312.433 222.866C319.299 222.866 324.866 217.299 324.866 210.433C324.866 203.566 319.299 198 312.433 198C305.566 198 300 203.566 300 210.433C300 217.299 305.566 222.866 312.433 222.866Z" fill="#F9A826"/>
<path d="M350.471 61.326C350.471 62.0633 350.191 62.6887 349.631 63.202C349.08 63.7153 348.277 64.014 347.223 64.098V65.68H346.327V64.098C345.645 64.0607 344.997 63.9347 344.381 63.72C343.774 63.496 343.289 63.216 342.925 62.88L343.443 61.788C343.779 62.096 344.203 62.3527 344.717 62.558C345.23 62.754 345.767 62.8707 346.327 62.908V59.66C345.673 59.5013 345.127 59.3287 344.689 59.142C344.259 58.9553 343.895 58.68 343.597 58.316C343.307 57.952 343.163 57.476 343.163 56.888C343.163 56.1507 343.429 55.5253 343.961 55.012C344.502 54.4987 345.291 54.2 346.327 54.116V52.52H347.223V54.102C347.755 54.1207 348.268 54.2047 348.763 54.354C349.267 54.5033 349.701 54.704 350.065 54.956L349.603 56.076C348.847 55.6 348.053 55.3387 347.223 55.292V58.554C347.904 58.722 348.464 58.8993 348.903 59.086C349.341 59.2633 349.71 59.534 350.009 59.898C350.317 60.2527 350.471 60.7287 350.471 61.326ZM344.535 56.832C344.535 57.2333 344.689 57.546 344.997 57.77C345.305 57.994 345.748 58.1807 346.327 58.33V55.306C345.729 55.3807 345.281 55.558 344.983 55.838C344.684 56.1087 344.535 56.44 344.535 56.832ZM347.223 62.894C347.848 62.838 348.315 62.6793 348.623 62.418C348.94 62.1473 349.099 61.8113 349.099 61.41C349.099 60.9993 348.935 60.6867 348.609 60.472C348.291 60.248 347.829 60.052 347.223 59.884V62.894ZM354.619 54.2V64H353.233V55.418H351.021V54.2H354.619ZM359.801 54.2V64H358.415V55.418H356.203V54.2H359.801ZM364.744 58.106C366.144 58.106 367.171 58.372 367.824 58.904C368.487 59.4267 368.818 60.1453 368.818 61.06C368.818 61.6387 368.678 62.1613 368.398 62.628C368.128 63.0853 367.712 63.4493 367.152 63.72C366.602 63.9813 365.92 64.112 365.108 64.112C364.418 64.112 363.75 64.0093 363.106 63.804C362.462 63.5893 361.93 63.2953 361.51 62.922L362.154 61.816C362.49 62.1333 362.92 62.39 363.442 62.586C363.965 62.7727 364.516 62.866 365.094 62.866C365.832 62.866 366.401 62.712 366.802 62.404C367.213 62.0867 367.418 61.6573 367.418 61.116C367.418 60.528 367.194 60.0847 366.746 59.786C366.298 59.478 365.533 59.324 364.45 59.324H362.224L362.742 54.2H368.272V55.418H363.918L363.652 58.106H364.744ZM373.988 64.112C373.213 64.112 372.522 63.916 371.916 63.524C371.318 63.1227 370.847 62.544 370.502 61.788C370.156 61.032 369.984 60.136 369.984 59.1C369.984 58.064 370.156 57.168 370.502 56.412C370.847 55.656 371.318 55.082 371.916 54.69C372.522 54.2887 373.213 54.088 373.988 54.088C374.753 54.088 375.434 54.2887 376.032 54.69C376.638 55.082 377.114 55.656 377.46 56.412C377.805 57.168 377.978 58.064 377.978 59.1C377.978 60.136 377.805 61.032 377.46 61.788C377.114 62.544 376.638 63.1227 376.032 63.524C375.434 63.916 374.753 64.112 373.988 64.112ZM373.988 62.866C374.772 62.866 375.397 62.544 375.864 61.9C376.34 61.256 376.578 60.3227 376.578 59.1C376.578 57.8773 376.34 56.944 375.864 56.3C375.397 55.656 374.772 55.334 373.988 55.334C373.194 55.334 372.56 55.656 372.084 56.3C371.617 56.944 371.384 57.8773 371.384 59.1C371.384 60.3227 371.617 61.256 372.084 61.9C372.56 62.544 373.194 62.866 373.988 62.866Z" fill="black"/>
<path d="M303.494 237.326C303.494 238.063 303.214 238.689 302.654 239.202C302.103 239.715 301.301 240.014 300.246 240.098V241.68H299.35V240.098C298.669 240.061 298.02 239.935 297.404 239.72C296.797 239.496 296.312 239.216 295.948 238.88L296.466 237.788C296.802 238.096 297.227 238.353 297.74 238.558C298.253 238.754 298.79 238.871 299.35 238.908V235.66C298.697 235.501 298.151 235.329 297.712 235.142C297.283 234.955 296.919 234.68 296.62 234.316C296.331 233.952 296.186 233.476 296.186 232.888C296.186 232.151 296.452 231.525 296.984 231.012C297.525 230.499 298.314 230.2 299.35 230.116V228.52H300.246V230.102C300.778 230.121 301.291 230.205 301.786 230.354C302.29 230.503 302.724 230.704 303.088 230.956L302.626 232.076C301.87 231.6 301.077 231.339 300.246 231.292V234.554C300.927 234.722 301.487 234.899 301.926 235.086C302.365 235.263 302.733 235.534 303.032 235.898C303.34 236.253 303.494 236.729 303.494 237.326ZM297.558 232.832C297.558 233.233 297.712 233.546 298.02 233.77C298.328 233.994 298.771 234.181 299.35 234.33V231.306C298.753 231.381 298.305 231.558 298.006 231.838C297.707 232.109 297.558 232.44 297.558 232.832ZM300.246 238.894C300.871 238.838 301.338 238.679 301.646 238.418C301.963 238.147 302.122 237.811 302.122 237.41C302.122 236.999 301.959 236.687 301.632 236.472C301.315 236.248 300.853 236.052 300.246 235.884V238.894ZM310.733 234.862C311.293 235.077 311.723 235.385 312.021 235.786C312.32 236.187 312.469 236.668 312.469 237.228C312.469 237.816 312.311 238.329 311.993 238.768C311.676 239.197 311.223 239.529 310.635 239.762C310.047 239.995 309.357 240.112 308.563 240.112C307.779 240.112 307.093 239.995 306.505 239.762C305.927 239.529 305.479 239.197 305.161 238.768C304.844 238.329 304.685 237.816 304.685 237.228C304.685 236.668 304.83 236.187 305.119 235.786C305.418 235.385 305.847 235.077 306.407 234.862C305.959 234.647 305.619 234.363 305.385 234.008C305.152 233.653 305.035 233.233 305.035 232.748C305.035 232.207 305.18 231.735 305.469 231.334C305.768 230.933 306.183 230.625 306.715 230.41C307.247 230.195 307.863 230.088 308.563 230.088C309.273 230.088 309.893 230.195 310.425 230.41C310.967 230.625 311.382 230.933 311.671 231.334C311.97 231.735 312.119 232.207 312.119 232.748C312.119 233.224 311.998 233.644 311.755 234.008C311.522 234.363 311.181 234.647 310.733 234.862ZM308.563 231.222C307.901 231.222 307.378 231.367 306.995 231.656C306.613 231.936 306.421 232.319 306.421 232.804C306.421 233.289 306.608 233.672 306.981 233.952C307.364 234.232 307.891 234.372 308.563 234.372C309.245 234.372 309.777 234.232 310.159 233.952C310.551 233.672 310.747 233.289 310.747 232.804C310.747 232.319 310.547 231.936 310.145 231.656C309.753 231.367 309.226 231.222 308.563 231.222ZM308.563 238.978C309.338 238.978 309.949 238.819 310.397 238.502C310.845 238.175 311.069 237.737 311.069 237.186C311.069 236.645 310.845 236.22 310.397 235.912C309.949 235.595 309.338 235.436 308.563 235.436C307.789 235.436 307.182 235.595 306.743 235.912C306.305 236.22 306.085 236.645 306.085 237.186C306.085 237.737 306.305 238.175 306.743 238.502C307.182 238.819 307.789 238.978 308.563 238.978ZM316.789 230.2V240H315.403V231.418H313.191V230.2H316.789ZM327.459 237.592H325.597V240H324.239V237.592H318.793V236.612L323.805 230.2H325.317L320.515 236.388H324.281V234.26H325.597V236.388H327.459V237.592Z" fill="black"/>
<path d="M488.421 274.43L486.751 276.15V278H486.411V271H486.751V275.71L491.331 271H491.751L488.651 274.2L491.971 278H491.551L488.421 274.43ZM493.116 272.81H493.446V278H493.116V272.81ZM493.276 271.45C493.189 271.45 493.113 271.42 493.046 271.36C492.979 271.293 492.946 271.217 492.946 271.13C492.946 271.037 492.976 270.96 493.036 270.9C493.103 270.833 493.183 270.8 493.276 270.8C493.363 270.8 493.439 270.833 493.506 270.9C493.573 270.96 493.606 271.033 493.606 271.12C493.606 271.207 493.573 271.283 493.506 271.35C493.439 271.417 493.363 271.45 493.276 271.45ZM502.925 272.81L500.945 278H500.635L498.795 273.25L496.945 278H496.655L494.665 272.81H494.985L496.795 277.62L498.645 272.81H498.945L500.785 277.62L502.605 272.81H502.925ZM504.141 272.81H504.471V278H504.141V272.81ZM504.301 271.45C504.215 271.45 504.138 271.42 504.071 271.36C504.005 271.293 503.971 271.217 503.971 271.13C503.971 271.037 504.001 270.96 504.061 270.9C504.128 270.833 504.208 270.8 504.301 270.8C504.388 270.8 504.465 270.833 504.531 270.9C504.598 270.96 504.631 271.033 504.631 271.12C504.631 271.207 504.598 271.283 504.531 271.35C504.465 271.417 504.388 271.45 504.301 271.45ZM508.396 278.04C507.889 278.04 507.406 277.95 506.946 277.77C506.492 277.59 506.142 277.357 505.896 277.07L506.076 276.83C506.309 277.097 506.632 277.317 507.046 277.49C507.466 277.657 507.912 277.74 508.386 277.74C509.086 277.74 509.612 277.603 509.966 277.33C510.326 277.05 510.506 276.693 510.506 276.26C510.506 275.927 510.412 275.66 510.226 275.46C510.039 275.253 509.809 275.1 509.536 275C509.262 274.893 508.889 274.783 508.416 274.67C507.909 274.543 507.502 274.42 507.196 274.3C506.889 274.18 506.629 273.997 506.416 273.75C506.202 273.503 506.096 273.173 506.096 272.76C506.096 272.433 506.182 272.133 506.356 271.86C506.529 271.587 506.792 271.37 507.146 271.21C507.506 271.043 507.952 270.96 508.486 270.96C508.866 270.96 509.239 271.017 509.606 271.13C509.979 271.243 510.296 271.4 510.556 271.6L510.406 271.87C510.132 271.67 509.826 271.52 509.486 271.42C509.152 271.313 508.822 271.26 508.496 271.26C507.816 271.26 507.299 271.403 506.946 271.69C506.599 271.97 506.426 272.327 506.426 272.76C506.426 273.1 506.519 273.373 506.706 273.58C506.899 273.78 507.132 273.933 507.406 274.04C507.686 274.147 508.059 274.257 508.526 274.37C509.032 274.497 509.439 274.62 509.746 274.74C510.052 274.853 510.309 275.033 510.516 275.28C510.729 275.52 510.836 275.843 510.836 276.25C510.836 276.577 510.746 276.877 510.566 277.15C510.392 277.423 510.122 277.64 509.756 277.8C509.389 277.96 508.936 278.04 508.396 278.04ZM514.191 272.77C514.811 272.77 515.284 272.93 515.611 273.25C515.944 273.57 516.111 274.033 516.111 274.64V278H515.791V276.96C515.624 277.293 515.374 277.557 515.041 277.75C514.714 277.937 514.321 278.03 513.861 278.03C513.281 278.03 512.824 277.897 512.491 277.63C512.164 277.363 512.001 277.01 512.001 276.57C512.001 276.15 512.151 275.81 512.451 275.55C512.751 275.283 513.231 275.15 513.891 275.15H515.781V274.64C515.781 274.127 515.644 273.737 515.371 273.47C515.104 273.203 514.708 273.07 514.181 273.07C513.814 273.07 513.471 273.133 513.151 273.26C512.831 273.387 512.558 273.557 512.331 273.77L512.151 273.53C512.404 273.29 512.708 273.103 513.061 272.97C513.421 272.837 513.798 272.77 514.191 272.77ZM513.881 277.75C514.814 277.75 515.448 277.333 515.781 276.5V275.42H513.891C513.351 275.42 512.954 275.523 512.701 275.73C512.454 275.93 512.331 276.203 512.331 276.55C512.331 276.923 512.468 277.217 512.741 277.43C513.021 277.643 513.401 277.75 513.881 277.75ZM522.184 272.81L519.814 278H519.484L517.114 272.81H517.474L519.654 277.63L521.834 272.81H522.184ZM527.474 275.45H522.924C522.931 275.89 523.034 276.283 523.234 276.63C523.434 276.977 523.707 277.247 524.054 277.44C524.407 277.633 524.801 277.73 525.234 277.73C525.587 277.73 525.914 277.667 526.214 277.54C526.514 277.407 526.761 277.213 526.954 276.96L527.164 277.18C526.931 277.453 526.647 277.663 526.314 277.81C525.981 277.957 525.621 278.03 525.234 278.03C524.727 278.03 524.274 277.92 523.874 277.7C523.481 277.473 523.171 277.16 522.944 276.76C522.717 276.36 522.604 275.907 522.604 275.4C522.604 274.893 522.707 274.44 522.914 274.04C523.127 273.64 523.421 273.33 523.794 273.11C524.167 272.883 524.584 272.77 525.044 272.77C525.497 272.77 525.907 272.88 526.274 273.1C526.647 273.32 526.941 273.627 527.154 274.02C527.367 274.413 527.474 274.86 527.474 275.36V275.45ZM525.044 273.07C524.657 273.07 524.307 273.16 523.994 273.34C523.681 273.52 523.431 273.773 523.244 274.1C523.057 274.42 522.954 274.78 522.934 275.18H527.164C527.137 274.78 527.027 274.42 526.834 274.1C526.647 273.773 526.397 273.52 526.084 273.34C525.777 273.16 525.431 273.07 525.044 273.07ZM529.422 274.06C529.576 273.647 529.822 273.33 530.162 273.11C530.509 272.883 530.936 272.77 531.442 272.77V273.1H531.352C530.752 273.1 530.282 273.29 529.942 273.67C529.602 274.05 529.432 274.573 529.432 275.24V278H529.102V272.81H529.422V274.06Z" fill="black"/>
<path d="M546.266 236C547.139 236 547.819 236.207 548.306 236.62C548.799 237.027 549.046 237.593 549.046 238.32C549.046 239.053 548.799 239.627 548.306 240.04C547.819 240.447 547.139 240.65 546.266 240.65H544.176V243H543.836V236H546.266ZM546.286 240.34C547.066 240.34 547.666 240.167 548.086 239.82C548.506 239.467 548.716 238.967 548.716 238.32C548.716 237.68 548.506 237.187 548.086 236.84C547.666 236.487 547.066 236.31 546.286 236.31H544.176V240.34H546.286ZM554.796 240.95H550.606L549.666 243H549.296L552.536 236H552.866L556.106 243H555.736L554.796 240.95ZM554.666 240.66L552.706 236.39L550.736 240.66H554.666ZM559.038 240.61V243H558.698V240.61L555.868 236H556.238L558.878 240.28L561.518 236H561.878L559.038 240.61ZM567.775 242.69V243H563.045V236H567.635V236.31H563.385V239.29H567.185V239.6H563.385V242.69H567.775Z" fill="black"/>
<path d="M587.226 188.55H587.546V191.14C587.239 191.433 586.872 191.657 586.446 191.81C586.026 191.963 585.576 192.04 585.096 192.04C584.409 192.04 583.789 191.887 583.236 191.58C582.682 191.273 582.246 190.85 581.926 190.31C581.612 189.77 581.456 189.167 581.456 188.5C581.456 187.833 581.612 187.23 581.926 186.69C582.246 186.15 582.682 185.727 583.236 185.42C583.789 185.113 584.409 184.96 585.096 184.96C585.596 184.96 586.056 185.037 586.476 185.19C586.896 185.343 587.256 185.573 587.556 185.88L587.356 186.11C586.776 185.55 586.026 185.27 585.106 185.27C584.479 185.27 583.912 185.413 583.406 185.7C582.906 185.98 582.512 186.367 582.226 186.86C581.939 187.353 581.796 187.9 581.796 188.5C581.796 189.1 581.939 189.647 582.226 190.14C582.512 190.633 582.906 191.023 583.406 191.31C583.912 191.59 584.479 191.73 585.106 191.73C585.979 191.73 586.686 191.487 587.226 191V188.55ZM591.68 192.04C591.173 192.04 590.69 191.95 590.23 191.77C589.777 191.59 589.427 191.357 589.18 191.07L589.36 190.83C589.593 191.097 589.917 191.317 590.33 191.49C590.75 191.657 591.197 191.74 591.67 191.74C592.37 191.74 592.897 191.603 593.25 191.33C593.61 191.05 593.79 190.693 593.79 190.26C593.79 189.927 593.697 189.66 593.51 189.46C593.323 189.253 593.093 189.1 592.82 189C592.547 188.893 592.173 188.783 591.7 188.67C591.193 188.543 590.787 188.42 590.48 188.3C590.173 188.18 589.913 187.997 589.7 187.75C589.487 187.503 589.38 187.173 589.38 186.76C589.38 186.433 589.467 186.133 589.64 185.86C589.813 185.587 590.077 185.37 590.43 185.21C590.79 185.043 591.237 184.96 591.77 184.96C592.15 184.96 592.523 185.017 592.89 185.13C593.263 185.243 593.58 185.4 593.84 185.6L593.69 185.87C593.417 185.67 593.11 185.52 592.77 185.42C592.437 185.313 592.107 185.26 591.78 185.26C591.1 185.26 590.583 185.403 590.23 185.69C589.883 185.97 589.71 186.327 589.71 186.76C589.71 187.1 589.803 187.373 589.99 187.58C590.183 187.78 590.417 187.933 590.69 188.04C590.97 188.147 591.343 188.257 591.81 188.37C592.317 188.497 592.723 188.62 593.03 188.74C593.337 188.853 593.593 189.033 593.8 189.28C594.013 189.52 594.12 189.843 594.12 190.25C594.12 190.577 594.03 190.877 593.85 191.15C593.677 191.423 593.407 191.64 593.04 191.8C592.673 191.96 592.22 192.04 591.68 192.04ZM597.177 185.31H594.607V185H600.077V185.31H597.507V192H597.177V185.31Z" fill="black"/>
<path d="M349.553 42V49H349.273L344.303 42.62V49H343.963V42H344.243L349.213 48.38V42H349.553ZM356.847 48.69V49H352.117V42H356.707V42.31H352.457V45.29H356.257V45.6H352.457V48.69H356.847ZM360.127 42.31H357.557V42H363.027V42.31H360.457V49H360.127V42.31ZM366.873 42H367.213V49H366.873V42ZM372.053 43.77C372.7 43.77 373.21 43.96 373.583 44.34C373.956 44.7133 374.143 45.25 374.143 45.95V49H373.813V45.97C373.813 45.3567 373.656 44.89 373.343 44.57C373.036 44.2433 372.596 44.08 372.023 44.08C371.376 44.08 370.866 44.2733 370.493 44.66C370.12 45.04 369.933 45.5533 369.933 46.2V49H369.603V43.81H369.923V45.08C370.09 44.6733 370.356 44.3533 370.723 44.12C371.096 43.8867 371.54 43.77 372.053 43.77ZM378.302 49.03C377.809 49.03 377.365 48.92 376.972 48.7C376.585 48.4733 376.279 48.16 376.052 47.76C375.832 47.36 375.722 46.9067 375.722 46.4C375.722 45.8933 375.832 45.44 376.052 45.04C376.279 44.64 376.585 44.33 376.972 44.11C377.365 43.8833 377.809 43.77 378.302 43.77C378.695 43.77 379.059 43.8467 379.392 44C379.732 44.1467 380.009 44.3667 380.222 44.66L379.972 44.87C379.785 44.61 379.545 44.4133 379.252 44.28C378.965 44.1467 378.649 44.08 378.302 44.08C377.875 44.08 377.489 44.18 377.142 44.38C376.802 44.5733 376.535 44.8467 376.342 45.2C376.149 45.5467 376.052 45.9467 376.052 46.4C376.052 46.8533 376.149 47.2567 376.342 47.61C376.535 47.9633 376.802 48.24 377.142 48.44C377.489 48.6333 377.875 48.73 378.302 48.73C378.649 48.73 378.965 48.6633 379.252 48.53C379.545 48.3967 379.785 48.2 379.972 47.94L380.222 48.14C380.009 48.4333 379.732 48.6567 379.392 48.81C379.059 48.9567 378.695 49.03 378.302 49.03ZM383.663 49.03C383.183 49.03 382.746 48.92 382.353 48.7C381.966 48.4733 381.663 48.16 381.443 47.76C381.223 47.36 381.113 46.9067 381.113 46.4C381.113 45.8933 381.223 45.44 381.443 45.04C381.663 44.64 381.966 44.33 382.353 44.11C382.746 43.8833 383.183 43.77 383.663 43.77C384.149 43.77 384.586 43.8833 384.973 44.11C385.359 44.33 385.663 44.64 385.883 45.04C386.103 45.44 386.213 45.8933 386.213 46.4C386.213 46.9067 386.103 47.36 385.883 47.76C385.663 48.16 385.359 48.4733 384.973 48.7C384.586 48.92 384.149 49.03 383.663 49.03ZM383.663 48.73C384.083 48.73 384.459 48.6333 384.793 48.44C385.133 48.24 385.399 47.9633 385.593 47.61C385.786 47.2567 385.883 46.8533 385.883 46.4C385.883 45.9467 385.786 45.5467 385.593 45.2C385.399 44.8467 385.133 44.5733 384.793 44.38C384.459 44.18 384.083 44.08 383.663 44.08C383.243 44.08 382.863 44.18 382.523 44.38C382.189 44.5733 381.926 44.8467 381.733 45.2C381.539 45.5467 381.443 45.9467 381.443 46.4C381.443 46.8533 381.539 47.2567 381.733 47.61C381.926 47.9633 382.189 48.24 382.523 48.44C382.863 48.6333 383.243 48.73 383.663 48.73ZM394.305 43.77C394.939 43.77 395.435 43.9567 395.795 44.33C396.162 44.7033 396.345 45.2433 396.345 45.95V49H396.015V45.97C396.015 45.3567 395.865 44.89 395.565 44.57C395.265 44.2433 394.839 44.08 394.285 44.08C393.665 44.08 393.172 44.2733 392.805 44.66C392.439 45.0467 392.255 45.56 392.255 46.2V49H391.925V45.97C391.925 45.3567 391.775 44.89 391.475 44.57C391.175 44.2433 390.752 44.08 390.205 44.08C389.579 44.08 389.082 44.2733 388.715 44.66C388.355 45.04 388.175 45.5533 388.175 46.2V49H387.845V43.81H388.165V45.06C388.325 44.66 388.582 44.3467 388.935 44.12C389.295 43.8867 389.725 43.77 390.225 43.77C390.725 43.77 391.145 43.89 391.485 44.13C391.825 44.37 392.052 44.72 392.165 45.18C392.319 44.7467 392.582 44.4033 392.955 44.15C393.329 43.8967 393.779 43.77 394.305 43.77ZM402.799 46.45H398.249C398.256 46.89 398.359 47.2833 398.559 47.63C398.759 47.9767 399.033 48.2467 399.379 48.44C399.733 48.6333 400.126 48.73 400.559 48.73C400.913 48.73 401.239 48.6667 401.539 48.54C401.839 48.4067 402.086 48.2133 402.279 47.96L402.489 48.18C402.256 48.4533 401.973 48.6633 401.639 48.81C401.306 48.9567 400.946 49.03 400.559 49.03C400.053 49.03 399.599 48.92 399.199 48.7C398.806 48.4733 398.496 48.16 398.269 47.76C398.043 47.36 397.929 46.9067 397.929 46.4C397.929 45.8933 398.033 45.44 398.239 45.04C398.453 44.64 398.746 44.33 399.119 44.11C399.493 43.8833 399.909 43.77 400.369 43.77C400.823 43.77 401.233 43.88 401.599 44.1C401.973 44.32 402.266 44.6267 402.479 45.02C402.693 45.4133 402.799 45.86 402.799 46.36V46.45ZM400.369 44.07C399.983 44.07 399.633 44.16 399.319 44.34C399.006 44.52 398.756 44.7733 398.569 45.1C398.383 45.42 398.279 45.78 398.259 46.18H402.489C402.463 45.78 402.353 45.42 402.159 45.1C401.973 44.7733 401.723 44.52 401.409 44.34C401.103 44.16 400.756 44.07 400.369 44.07Z" fill="black"/>
<path d="M300.951 248.61V251H300.611V248.61L297.781 244H298.151L300.791 248.28L303.431 244H303.791L300.951 248.61ZM306.338 251.03C305.858 251.03 305.421 250.92 305.028 250.7C304.641 250.473 304.338 250.16 304.118 249.76C303.898 249.36 303.788 248.907 303.788 248.4C303.788 247.893 303.898 247.44 304.118 247.04C304.338 246.64 304.641 246.33 305.028 246.11C305.421 245.883 305.858 245.77 306.338 245.77C306.824 245.77 307.261 245.883 307.648 246.11C308.034 246.33 308.338 246.64 308.558 247.04C308.778 247.44 308.888 247.893 308.888 248.4C308.888 248.907 308.778 249.36 308.558 249.76C308.338 250.16 308.034 250.473 307.648 250.7C307.261 250.92 306.824 251.03 306.338 251.03ZM306.338 250.73C306.758 250.73 307.134 250.633 307.468 250.44C307.808 250.24 308.074 249.963 308.268 249.61C308.461 249.257 308.558 248.853 308.558 248.4C308.558 247.947 308.461 247.547 308.268 247.2C308.074 246.847 307.808 246.573 307.468 246.38C307.134 246.18 306.758 246.08 306.338 246.08C305.918 246.08 305.538 246.18 305.198 246.38C304.864 246.573 304.601 246.847 304.408 247.2C304.214 247.547 304.118 247.947 304.118 248.4C304.118 248.853 304.214 249.257 304.408 249.61C304.601 249.963 304.864 250.24 305.198 250.44C305.538 250.633 305.918 250.73 306.338 250.73ZM314.96 245.81V251H314.64V249.74C314.48 250.147 314.223 250.463 313.87 250.69C313.517 250.917 313.097 251.03 312.61 251.03C311.937 251.03 311.41 250.843 311.03 250.47C310.65 250.097 310.46 249.56 310.46 248.86V245.81H310.79V248.84C310.79 249.453 310.947 249.923 311.26 250.25C311.58 250.57 312.033 250.73 312.62 250.73C313.24 250.73 313.73 250.54 314.09 250.16C314.45 249.773 314.63 249.257 314.63 248.61V245.81H314.96ZM317.5 247.06C317.654 246.647 317.9 246.33 318.24 246.11C318.587 245.883 319.014 245.77 319.52 245.77V246.1H319.43C318.83 246.1 318.36 246.29 318.02 246.67C317.68 247.05 317.51 247.573 317.51 248.24V251H317.18V245.81H317.5V247.06ZM326.187 244C327.06 244 327.74 244.207 328.227 244.62C328.72 245.027 328.967 245.593 328.967 246.32C328.967 247.053 328.72 247.627 328.227 248.04C327.74 248.447 327.06 248.65 326.187 248.65H324.097V251H323.757V244H326.187ZM326.207 248.34C326.987 248.34 327.587 248.167 328.007 247.82C328.427 247.467 328.637 246.967 328.637 246.32C328.637 245.68 328.427 245.187 328.007 244.84C327.587 244.487 326.987 244.31 326.207 244.31H324.097V248.34H326.207ZM332.259 245.77C332.879 245.77 333.353 245.93 333.679 246.25C334.013 246.57 334.179 247.033 334.179 247.64V251H333.859V249.96C333.693 250.293 333.443 250.557 333.109 250.75C332.783 250.937 332.389 251.03 331.929 251.03C331.349 251.03 330.893 250.897 330.559 250.63C330.233 250.363 330.069 250.01 330.069 249.57C330.069 249.15 330.219 248.81 330.519 248.55C330.819 248.283 331.299 248.15 331.959 248.15H333.849V247.64C333.849 247.127 333.713 246.737 333.439 246.47C333.173 246.203 332.776 246.07 332.249 246.07C331.883 246.07 331.539 246.133 331.219 246.26C330.899 246.387 330.626 246.557 330.399 246.77L330.219 246.53C330.473 246.29 330.776 246.103 331.129 245.97C331.489 245.837 331.866 245.77 332.259 245.77ZM331.949 250.75C332.883 250.75 333.516 250.333 333.849 249.5V248.42H331.959C331.419 248.42 331.023 248.523 330.769 248.73C330.523 248.93 330.399 249.203 330.399 249.55C330.399 249.923 330.536 250.217 330.809 250.43C331.089 250.643 331.469 250.75 331.949 250.75ZM340.253 245.81L337.533 251.78C337.339 252.213 337.119 252.52 336.873 252.7C336.626 252.88 336.336 252.97 336.003 252.97C335.769 252.97 335.553 252.93 335.353 252.85C335.153 252.777 334.983 252.663 334.843 252.51L335.033 252.25C335.173 252.403 335.319 252.513 335.473 252.58C335.626 252.647 335.803 252.68 336.003 252.68C336.263 252.68 336.486 252.607 336.673 252.46C336.866 252.313 337.046 252.06 337.213 251.7L337.543 250.99L335.183 245.81H335.543L337.723 250.62L339.903 245.81H340.253Z" fill="black"/>
<path d="M492.662 263.326C492.662 264.063 492.382 264.689 491.822 265.202C491.271 265.715 490.469 266.014 489.414 266.098V267.68H488.518V266.098C487.837 266.061 487.188 265.935 486.572 265.72C485.965 265.496 485.48 265.216 485.116 264.88L485.634 263.788C485.97 264.096 486.395 264.353 486.908 264.558C487.421 264.754 487.958 264.871 488.518 264.908V261.66C487.865 261.501 487.319 261.329 486.88 261.142C486.451 260.955 486.087 260.68 485.788 260.316C485.499 259.952 485.354 259.476 485.354 258.888C485.354 258.151 485.62 257.525 486.152 257.012C486.693 256.499 487.482 256.2 488.518 256.116V254.52H489.414V256.102C489.946 256.121 490.459 256.205 490.954 256.354C491.458 256.503 491.892 256.704 492.256 256.956L491.794 258.076C491.038 257.6 490.245 257.339 489.414 257.292V260.554C490.095 260.722 490.655 260.899 491.094 261.086C491.533 261.263 491.901 261.534 492.2 261.898C492.508 262.253 492.662 262.729 492.662 263.326ZM486.726 258.832C486.726 259.233 486.88 259.546 487.188 259.77C487.496 259.994 487.939 260.181 488.518 260.33V257.306C487.921 257.381 487.473 257.558 487.174 257.838C486.875 258.109 486.726 258.44 486.726 258.832ZM489.414 264.894C490.039 264.838 490.506 264.679 490.814 264.418C491.131 264.147 491.29 263.811 491.29 263.41C491.29 262.999 491.127 262.687 490.8 262.472C490.483 262.248 490.021 262.052 489.414 261.884V264.894ZM500.797 264.782V266H493.755V265.048L497.745 261.198C498.231 260.731 498.557 260.33 498.725 259.994C498.893 259.649 498.977 259.303 498.977 258.958C498.977 258.445 498.795 258.048 498.431 257.768C498.077 257.479 497.563 257.334 496.891 257.334C495.809 257.334 494.973 257.689 494.385 258.398L493.433 257.572C493.816 257.105 494.315 256.741 494.931 256.48C495.557 256.219 496.252 256.088 497.017 256.088C498.044 256.088 498.861 256.335 499.467 256.83C500.074 257.315 500.377 257.978 500.377 258.818C500.377 259.341 500.265 259.835 500.041 260.302C499.817 260.769 499.393 261.301 498.767 261.898L495.771 264.782H500.797ZM504.986 256.2V266H503.6V257.418H501.388V256.2H504.986Z" fill="black"/>
<path d="M549.993 227.326C549.993 228.063 549.713 228.689 549.153 229.202C548.602 229.715 547.8 230.014 546.745 230.098V231.68H545.849V230.098C545.168 230.061 544.519 229.935 543.903 229.72C543.296 229.496 542.811 229.216 542.447 228.88L542.965 227.788C543.301 228.096 543.726 228.353 544.239 228.558C544.752 228.754 545.289 228.871 545.849 228.908V225.66C545.196 225.501 544.65 225.329 544.211 225.142C543.782 224.955 543.418 224.68 543.119 224.316C542.83 223.952 542.685 223.476 542.685 222.888C542.685 222.151 542.951 221.525 543.483 221.012C544.024 220.499 544.813 220.2 545.849 220.116V218.52H546.745V220.102C547.277 220.121 547.79 220.205 548.285 220.354C548.789 220.503 549.223 220.704 549.587 220.956L549.125 222.076C548.369 221.6 547.576 221.339 546.745 221.292V224.554C547.426 224.722 547.986 224.899 548.425 225.086C548.864 225.263 549.232 225.534 549.531 225.898C549.839 226.253 549.993 226.729 549.993 227.326ZM544.057 222.832C544.057 223.233 544.211 223.546 544.519 223.77C544.827 223.994 545.27 224.181 545.849 224.33V221.306C545.252 221.381 544.804 221.558 544.505 221.838C544.206 222.109 544.057 222.44 544.057 222.832ZM546.745 228.894C547.37 228.838 547.837 228.679 548.145 228.418C548.462 228.147 548.621 227.811 548.621 227.41C548.621 226.999 548.458 226.687 548.131 226.472C547.814 226.248 547.352 226.052 546.745 225.884V228.894ZM558.128 228.782V230H551.086V229.048L555.076 225.198C555.562 224.731 555.888 224.33 556.056 223.994C556.224 223.649 556.308 223.303 556.308 222.958C556.308 222.445 556.126 222.048 555.762 221.768C555.408 221.479 554.894 221.334 554.222 221.334C553.14 221.334 552.304 221.689 551.716 222.398L550.764 221.572C551.147 221.105 551.646 220.741 552.262 220.48C552.888 220.219 553.583 220.088 554.348 220.088C555.375 220.088 556.192 220.335 556.798 220.83C557.405 221.315 557.708 221.978 557.708 222.818C557.708 223.341 557.596 223.835 557.372 224.302C557.148 224.769 556.724 225.301 556.098 225.898L553.102 228.782H558.128ZM562.317 220.2V230H560.931V221.418H558.719V220.2H562.317ZM568.465 230.112C567.69 230.112 567 229.916 566.393 229.524C565.796 229.123 565.324 228.544 564.979 227.788C564.634 227.032 564.461 226.136 564.461 225.1C564.461 224.064 564.634 223.168 564.979 222.412C565.324 221.656 565.796 221.082 566.393 220.69C567 220.289 567.69 220.088 568.465 220.088C569.23 220.088 569.912 220.289 570.509 220.69C571.116 221.082 571.592 221.656 571.937 222.412C572.282 223.168 572.455 224.064 572.455 225.1C572.455 226.136 572.282 227.032 571.937 227.788C571.592 228.544 571.116 229.123 570.509 229.524C569.912 229.916 569.23 230.112 568.465 230.112ZM568.465 228.866C569.249 228.866 569.874 228.544 570.341 227.9C570.817 227.256 571.055 226.323 571.055 225.1C571.055 223.877 570.817 222.944 570.341 222.3C569.874 221.656 569.249 221.334 568.465 221.334C567.672 221.334 567.037 221.656 566.561 222.3C566.094 222.944 565.861 223.877 565.861 225.1C565.861 226.323 566.094 227.256 566.561 227.9C567.037 228.544 567.672 228.866 568.465 228.866Z" fill="black"/>
<path d="M589.061 177.326C589.061 178.063 588.781 178.689 588.221 179.202C587.671 179.715 586.868 180.014 585.813 180.098V181.68H584.917V180.098C584.236 180.061 583.587 179.935 582.971 179.72C582.365 179.496 581.879 179.216 581.515 178.88L582.033 177.788C582.369 178.096 582.794 178.353 583.307 178.558C583.821 178.754 584.357 178.871 584.917 178.908V175.66C584.264 175.501 583.718 175.329 583.279 175.142C582.85 174.955 582.486 174.68 582.187 174.316C581.898 173.952 581.753 173.476 581.753 172.888C581.753 172.151 582.019 171.525 582.551 171.012C583.093 170.499 583.881 170.2 584.917 170.116V168.52H585.813V170.102C586.345 170.121 586.859 170.205 587.353 170.354C587.857 170.503 588.291 170.704 588.655 170.956L588.193 172.076C587.437 171.6 586.644 171.339 585.813 171.292V174.554C586.495 174.722 587.055 174.899 587.493 175.086C587.932 175.263 588.301 175.534 588.599 175.898C588.907 176.253 589.061 176.729 589.061 177.326ZM583.125 172.832C583.125 173.233 583.279 173.546 583.587 173.77C583.895 173.994 584.339 174.181 584.917 174.33V171.306C584.32 171.381 583.872 171.558 583.573 171.838C583.275 172.109 583.125 172.44 583.125 172.832ZM585.813 178.894C586.439 178.838 586.905 178.679 587.213 178.418C587.531 178.147 587.689 177.811 587.689 177.41C587.689 176.999 587.526 176.687 587.199 176.472C586.882 176.248 586.42 176.052 585.813 175.884V178.894ZM593.21 170.2V180H591.824V171.418H589.612V170.2H593.21ZM599.358 180.112C598.583 180.112 597.892 179.916 597.286 179.524C596.688 179.123 596.217 178.544 595.872 177.788C595.526 177.032 595.354 176.136 595.354 175.1C595.354 174.064 595.526 173.168 595.872 172.412C596.217 171.656 596.688 171.082 597.286 170.69C597.892 170.289 598.583 170.088 599.358 170.088C600.123 170.088 600.804 170.289 601.402 170.69C602.008 171.082 602.484 171.656 602.83 172.412C603.175 173.168 603.348 174.064 603.348 175.1C603.348 176.136 603.175 177.032 602.83 177.788C602.484 178.544 602.008 179.123 601.402 179.524C600.804 179.916 600.123 180.112 599.358 180.112ZM599.358 178.866C600.142 178.866 600.767 178.544 601.234 177.9C601.71 177.256 601.948 176.323 601.948 175.1C601.948 173.877 601.71 172.944 601.234 172.3C600.767 171.656 600.142 171.334 599.358 171.334C598.564 171.334 597.93 171.656 597.454 172.3C596.987 172.944 596.754 173.877 596.754 175.1C596.754 176.323 596.987 177.256 597.454 177.9C597.93 178.544 598.564 178.866 599.358 178.866ZM607.492 174.106C608.892 174.106 609.918 174.372 610.572 174.904C611.234 175.427 611.566 176.145 611.566 177.06C611.566 177.639 611.426 178.161 611.146 178.628C610.875 179.085 610.46 179.449 609.9 179.72C609.349 179.981 608.668 180.112 607.856 180.112C607.165 180.112 606.498 180.009 605.854 179.804C605.21 179.589 604.678 179.295 604.258 178.922L604.902 177.816C605.238 178.133 605.667 178.39 606.19 178.586C606.712 178.773 607.263 178.866 607.842 178.866C608.579 178.866 609.148 178.712 609.55 178.404C609.96 178.087 610.166 177.657 610.166 177.116C610.166 176.528 609.942 176.085 609.494 175.786C609.046 175.478 608.28 175.324 607.198 175.324H604.972L605.49 170.2H611.02V171.418H606.666L606.4 174.106H607.492Z" fill="black"/>
<path d="M399.892 100.488C400.161 100.548 400.428 100.378 400.488 100.108L401.464 95.7156C401.524 95.4461 401.354 95.179 401.085 95.1191C400.815 95.0592 400.548 95.2291 400.488 95.4987L399.62 99.4034L395.716 98.5357C395.446 98.4758 395.179 98.6458 395.119 98.9153C395.059 99.1849 395.229 99.452 395.499 99.5119L399.892 100.488ZM378.578 67.2684L399.578 100.268L400.422 99.7316L379.422 66.7316L378.578 67.2684Z" fill="black"/>
<path d="M324.5 198.009C324.505 198.286 324.733 198.505 325.009 198.5L329.509 198.415C329.785 198.41 330.004 198.182 329.999 197.906C329.994 197.63 329.766 197.41 329.49 197.415L325.49 197.491L325.415 193.491C325.41 193.215 325.182 192.996 324.906 193.001C324.63 193.006 324.41 193.234 324.415 193.51L324.5 198.009ZM402.64 116.653L324.64 197.653L325.36 198.347L403.36 117.347L402.64 116.653Z" fill="black"/>
<path d="M464.782 244.45C465.03 244.57 465.329 244.467 465.45 244.218L467.414 240.169C467.534 239.921 467.43 239.622 467.182 239.501C466.934 239.381 466.634 239.484 466.514 239.733L464.768 243.332L461.169 241.586C460.921 241.466 460.622 241.57 460.501 241.818C460.381 242.066 460.484 242.366 460.733 242.486L464.782 244.45ZM421.528 120.164L464.528 244.164L465.472 243.836L422.472 119.836L421.528 120.164Z" fill="black"/>
<path d="M514.98 208.5C515.256 208.51 515.489 208.295 515.5 208.02L515.675 203.523C515.686 203.247 515.471 203.015 515.195 203.004C514.919 202.993 514.687 203.208 514.676 203.484L514.52 207.481L510.523 207.325C510.247 207.314 510.015 207.529 510.004 207.805C509.993 208.081 510.208 208.313 510.484 208.324L514.98 208.5ZM428.633 115.339L514.633 208.339L515.367 207.661L429.367 114.661L428.633 115.339Z" fill="black"/>
<path d="M553.161 167.473C553.423 167.384 553.562 167.1 553.473 166.839L552.022 162.579C551.933 162.318 551.649 162.178 551.388 162.267C551.126 162.356 550.987 162.64 551.076 162.902L552.365 166.688L548.579 167.978C548.318 168.067 548.178 168.351 548.267 168.612C548.356 168.874 548.64 169.013 548.902 168.924L553.161 167.473ZM430.779 107.449L552.779 167.449L553.221 166.551L431.221 106.551L430.779 107.449Z" fill="black"/>
</g>
<defs>
<clipPath id="clip0_2_2235">
<rect width="938.457" height="497.706" fill="white"/>
</clipPath>
</defs>
</svg>
