<svg width="641" height="437" viewBox="0 0 641 437" fill="none" xmlns="http://www.w3.org/2000/svg">
<g clip-path="url(#clip0_3_1251)">
<path d="M19.9667 342.139C23.0888 310.309 41.9593 278.537 71.9843 267.424C60.8895 300.39 61.8272 336.213 74.6317 368.556C79.6151 381.011 86.4563 394.346 82.4085 407.135C79.8899 415.092 73.3826 421.3 66.0311 425.267C58.6791 429.234 50.4576 431.248 42.3386 433.222L40.7663 434.592C27.0414 405.697 16.8445 373.968 19.9667 342.139Z" fill="#F0F0F0"/>
<path d="M72.3008 268.016C55.3482 288.001 44.6783 313.524 42.8127 339.69C42.4093 345.347 42.4931 351.12 43.8733 356.65C45.2601 362.03 48.0639 366.94 51.9935 370.872C55.5837 374.611 59.6896 378.02 62.3073 382.566C65.0664 387.357 65.3117 392.876 63.6444 398.085C61.6044 404.459 57.3932 409.72 53.0959 414.722C48.3247 420.276 43.2807 425.97 41.3801 433.217C41.1498 434.096 39.799 433.687 40.0289 432.811C43.3356 420.2 55.3142 412.775 60.821 401.351C63.3905 396.021 64.3673 389.885 61.6847 384.398C59.3389 379.601 55.1078 376.081 51.4399 372.327C47.5885 368.385 44.6007 364.027 42.9814 358.717C41.325 353.285 41.0151 347.502 41.2718 341.86C41.9496 329.069 44.6367 316.464 49.2348 304.507C54.4068 290.832 61.8829 278.141 71.3397 266.983C71.9253 266.293 72.8826 267.33 72.3008 268.016L72.3008 268.016Z" fill="white"/>
<path d="M42.9698 331.153C38.5827 330.209 34.6743 327.739 31.9426 324.183C29.2108 320.627 27.8336 316.217 28.0569 311.74C28.0677 311.558 28.1489 311.387 28.2836 311.263C28.4182 311.139 28.5958 311.072 28.7787 311.077C28.9617 311.081 29.1359 311.156 29.2645 311.286C29.3931 311.416 29.4661 311.591 29.4681 311.774C29.2525 315.942 30.5358 320.05 33.0864 323.356C35.6369 326.662 39.2868 328.949 43.3772 329.803C44.2658 329.99 43.8533 331.338 42.9698 331.153Z" fill="white"/>
<path d="M49.923 369.215C57.6742 364.315 63.2912 356.676 65.654 347.823C65.8874 346.946 67.2383 347.354 67.0052 348.23C64.5292 357.438 58.6676 365.375 50.5904 370.457C49.8202 370.941 49.157 369.696 49.923 369.215Z" fill="white"/>
<path d="M55.7504 292.133C57.3717 292.851 59.1463 293.156 60.9147 293.02C62.6831 292.884 64.3901 292.312 65.8822 291.354C66.6459 290.861 67.3083 292.106 66.5496 292.596C64.8961 293.646 63.0101 294.276 61.0566 294.431C59.1031 294.585 57.1414 294.259 55.343 293.482C55.1673 293.423 55.0208 293.299 54.9331 293.136C54.8455 292.973 54.8233 292.783 54.8711 292.604C54.9259 292.425 55.0491 292.276 55.2137 292.188C55.3784 292.099 55.5712 292.08 55.7504 292.133H55.7504Z" fill="white"/>
<path d="M165.806 321.686C165.338 322.008 164.87 322.329 164.401 322.663C158.131 327.019 152.225 331.877 146.742 337.189C146.311 337.593 145.881 338.009 145.463 338.424C132.39 351.362 121.835 366.611 114.336 383.397C111.358 390.079 108.893 396.978 106.963 404.033C104.298 413.778 102.184 424.555 96.6158 432.614C96.0443 433.461 95.4208 434.272 94.7488 435.042L42.5607 436.401C42.4406 436.345 42.3201 436.3 42.1994 436.244L40.1182 436.393C40.1923 436.023 40.2771 435.64 40.3512 435.269C40.3933 435.053 40.447 434.838 40.4891 434.623C40.5208 434.479 40.5532 434.335 40.5736 434.204C40.5839 434.156 40.5949 434.108 40.6056 434.072C40.626 433.941 40.659 433.821 40.6797 433.701C41.148 431.559 41.6321 429.416 42.1322 427.273C42.1319 427.261 42.1319 427.261 42.1432 427.249C45.995 410.928 51.2449 394.786 58.781 379.952C59.0079 379.506 59.2339 379.048 59.4846 378.601C62.9187 371.934 66.8927 365.558 71.3668 359.537C73.8273 356.248 76.453 353.085 79.2337 350.062C86.4336 342.262 94.817 335.643 104.076 330.446C122.537 320.088 144.108 315.742 164.27 321.25C164.785 321.391 165.29 321.533 165.806 321.686Z" fill="#F0F0F0"/>
<path d="M165.706 322.351C140.123 328.113 116.218 342.076 98.9553 361.846C95.2231 366.12 91.8096 370.781 89.5783 376.026C87.4426 381.155 86.7212 386.762 87.4889 392.264C88.1015 397.408 89.3246 402.599 88.6744 407.803C87.9892 413.288 84.858 417.842 80.3866 420.998C74.9158 424.861 68.3818 426.529 61.9353 427.939C54.7777 429.504 47.3184 431.017 41.4318 435.661C40.7185 436.224 39.886 435.086 40.5982 434.524C50.8399 426.444 64.8804 427.718 76.1636 421.908C81.4285 419.197 85.9073 414.885 87.0726 408.892C88.0916 403.651 86.8349 398.296 86.1696 393.093C85.471 387.629 85.7122 382.353 87.6203 377.14C89.5723 371.806 92.8105 367.003 96.4169 362.652C104.668 352.847 114.412 344.399 125.291 337.617C137.665 329.808 151.284 324.17 165.561 320.948C166.445 320.749 166.584 322.153 165.706 322.351H165.706Z" fill="white"/>
<path d="M104.227 355.124C101.293 351.733 99.6615 347.41 99.624 342.928C99.5864 338.446 101.145 334.097 104.022 330.657C104.606 329.963 105.714 330.838 105.129 331.533C102.444 334.731 100.992 338.782 101.036 342.956C101.079 347.129 102.615 351.15 105.366 354.292C105.963 354.975 104.821 355.804 104.227 355.124Z" fill="white"/>
<path d="M86.8342 389.696C95.9772 390.444 105.067 387.723 112.29 382.075C113.005 381.515 113.838 382.653 113.123 383.213C105.596 389.076 96.131 391.889 86.6183 391.089C85.7117 391.012 85.9324 389.62 86.8342 389.696H86.8342Z" fill="white"/>
<path d="M137.953 331.654C138.815 333.203 140.048 334.513 141.542 335.468C143.036 336.423 144.744 336.992 146.512 337.125C147.42 337.19 147.198 338.583 146.297 338.518C144.343 338.362 142.458 337.731 140.805 336.68C139.152 335.629 137.782 334.189 136.815 332.487C136.71 332.334 136.667 332.147 136.696 331.964C136.724 331.781 136.821 331.616 136.967 331.502C137.119 331.392 137.307 331.347 137.492 331.376C137.676 331.404 137.842 331.504 137.953 331.654Z" fill="white"/>
<path d="M472.104 56.9263C471.325 54.6284 461.554 46.817 467.541 45.5041L472.451 52.0433L495.027 29.4963L497.297 31.764L472.104 56.9263Z" fill="#F9A826"/>
<path d="M472.104 133.596C471.325 131.298 461.554 123.486 467.541 122.173L472.451 128.712L495.027 106.166L497.297 108.433L472.104 133.596Z" fill="#F9A826"/>
<path d="M472.104 211.36C471.325 209.062 461.554 201.25 467.541 199.937L472.451 206.477L495.027 183.93L497.297 186.197L472.104 211.36Z" fill="#F9A826"/>
<path d="M451.316 148.489C455.163 148.489 458.282 145.374 458.282 141.532C458.282 137.689 455.163 134.574 451.316 134.574C447.469 134.574 444.35 137.689 444.35 141.532C444.35 145.374 447.469 148.489 451.316 148.489Z" fill="#3F3D56"/>
<path d="M451.316 72.6511C455.163 72.6511 458.282 69.5361 458.282 65.6935C458.282 61.8509 455.163 58.7358 451.316 58.7358C447.469 58.7358 444.35 61.8509 444.35 65.6935C444.35 69.5361 447.469 72.6511 451.316 72.6511Z" fill="#3F3D56"/>
<path d="M630 49.6907H517.844V51.0822H630V49.6907Z" fill="#3F3D56"/>
<path d="M454.799 229.333C458.647 229.333 461.765 226.218 461.765 222.375C461.765 218.533 458.647 215.418 454.799 215.418C450.952 215.418 447.833 218.533 447.833 222.375C447.833 226.218 450.952 229.333 454.799 229.333Z" fill="#3F3D56"/>
<path d="M630 126.36H517.844V127.751H630V126.36Z" fill="#3F3D56"/>
<path d="M630 204.124H517.844V205.516H630V204.124Z" fill="#3F3D56"/>
<path d="M489.699 221.727H454.868V186.243H478.553V187.634H456.261V220.335H488.306V204.333H489.699V221.727Z" fill="#3F3D56"/>
<path d="M489.699 143.801H454.868V108.317H478.553V109.709H456.261V142.41H488.306V126.407H489.699V143.801Z" fill="#3F3D56"/>
<path d="M489.699 64.484H454.868V29H478.553V30.3915H456.261V63.0924H488.306V47.0899H489.699V64.484Z" fill="#3F3D56"/>
<path d="M262.282 155.47C262.282 155.47 252.973 194.726 264.351 194.726C275.729 194.726 302.621 150.305 302.621 150.305L293.312 138.941L276.604 162.11L275.729 150.305L262.282 155.47Z" fill="#A0616A"/>
<path d="M300.14 152.011C305.142 152.011 309.196 147.962 309.196 142.967C309.196 137.971 305.142 133.922 300.14 133.922C295.139 133.922 291.084 137.971 291.084 142.967C291.084 147.962 295.139 152.011 300.14 152.011Z" fill="#A0616A"/>
<path d="M254.39 422.836L266.443 422.835L272.179 376.396L254.387 376.396L254.39 422.836Z" fill="#A0616A"/>
<path d="M253.965 435.395L291.034 435.394V434.926C291.034 431.104 289.514 427.439 286.808 424.736C284.102 422.034 280.432 420.516 276.606 420.515H276.605L269.834 415.385L257.2 420.516L253.964 420.516L253.965 435.395Z" fill="#2F2E41"/>
<path d="M124.722 407.815L135.508 413.191L161.403 374.196L145.484 366.262L124.722 407.815Z" fill="#A0616A"/>
<path d="M118.726 418.863L151.895 435.395L152.104 434.977C153.813 431.557 154.091 427.599 152.879 423.974C151.666 420.35 149.061 417.354 145.637 415.647L145.637 415.647L141.872 408.036L128.274 406.993L125.378 405.55L118.726 418.863Z" fill="#2F2E41"/>
<path d="M396.971 435.441H0V437H396.971V435.441Z" fill="#CCCCCC"/>
<path d="M176.454 226.686C176.454 226.686 171.636 284.538 170.602 296.934C169.893 304.705 168.154 312.348 165.43 319.661C165.43 319.661 163.362 323.794 163.362 327.926L139.917 370.482C139.917 370.482 132.753 375.741 133.787 379.873C134.821 384.005 129.468 386.484 129.468 386.484L154.157 391.237C154.157 391.237 153.123 388.138 156.226 387.105C159.329 386.072 161.799 377.111 161.799 377.111L196.46 320.695L221.284 269.042C221.284 269.042 235.764 315.529 238.867 320.695C238.867 320.695 250.245 378.545 252.314 383.711C254.382 388.876 255.417 388.876 254.382 390.942C253.348 393.008 253.348 395.074 254.382 396.107C255.417 397.14 275.069 396.107 275.069 396.107L269.897 322.761L260.588 234.951L213.009 220.489L176.454 226.686Z" fill="#2F2E41"/>
<path d="M223.036 88.5795C235.032 88.5795 244.757 78.8667 244.757 66.8854C244.757 54.9042 235.032 45.1914 223.036 45.1914C211.04 45.1914 201.315 54.9042 201.315 66.8854C201.315 78.8667 211.04 88.5795 223.036 88.5795Z" fill="#A0616A"/>
<path d="M262.657 120.283L236.8 104.636C236.8 104.636 236.083 94.92 228.716 94.4628C225.017 94.2333 219.466 93.8824 211.137 93.346C209.376 93.2326 208.188 102.852 206.171 102.721L178.877 109.952L183.014 180.2C183.014 180.2 176.808 208.092 178.877 213.257C180.945 218.423 173.705 220.489 175.774 221.522C177.842 222.555 175.774 229.786 175.774 229.786C175.774 229.786 216.112 250.447 260.588 234.951L256.451 221.522C257.014 219.766 257.12 217.896 256.758 216.089C256.396 214.281 255.578 212.595 254.382 211.191C254.382 211.191 258.52 204.993 253.348 199.828C253.348 199.828 255.417 190.53 250.245 186.398L249.211 171.935L252.314 164.704L262.657 120.283Z" fill="#E6E6E6"/>
<path d="M204.188 79.2786L203.581 77.8701C203.503 77.688 195.821 59.5512 202.63 48.364C205.781 43.1848 211.513 40.2608 219.663 39.6737C232.416 38.7527 241.145 41.7742 245.613 48.648C246.362 49.813 246.784 51.158 246.832 52.5417C246.881 53.9255 246.556 55.2967 245.89 56.5114C245.225 57.726 244.244 58.7392 243.051 59.4443C241.858 60.1494 240.497 60.5205 239.11 60.5184H238.939L236.596 57.4796L236.459 57.7751C235.611 59.6083 233.662 60.6118 231.38 60.392C230.992 60.3642 230.648 60.6988 230.372 61.415C230.279 61.7282 230.104 62.0107 229.864 62.2328C229.624 62.4549 229.328 62.6084 229.009 62.6771C227.322 63.0049 224.919 60.8837 223.843 59.8264C223.802 60.0698 223.708 60.3013 223.569 60.5055C223.431 60.7097 223.249 60.8818 223.038 61.01C221.905 61.6634 220.14 60.8099 219.634 60.5382C215.599 61.3943 212.988 61.1653 211.869 59.8584C211.11 65.2183 209.482 74.8659 207.53 75.4006C207.326 75.4475 207.112 75.4276 206.921 75.3438C206.729 75.2601 206.569 75.1169 206.465 74.9355C205.995 74.326 205.575 74.0223 205.312 74.1076C204.677 74.3094 204.303 76.3981 204.249 77.7461L204.188 79.2786Z" fill="#2F2E41"/>
<path d="M251.279 121.316L261.597 119.642C269.03 126.774 274.093 136.012 276.103 146.109C279.206 162.638 280.24 165.737 280.24 165.737L255.416 171.935L241.97 146.109L251.279 121.316Z" fill="#E6E6E6"/>
<path d="M205.495 142.815L199.119 223.547L361.84 236.367L368.216 155.635L205.495 142.815Z" fill="white"/>
<path d="M222.88 149.07C218.898 146.23 213.842 146.024 211.91 146.065C212.5 147.902 214.331 152.613 218.313 155.455C222.305 158.302 227.354 158.501 229.283 158.461C228.694 156.625 226.862 151.912 222.88 149.07Z" fill="#F9A826"/>
<path d="M238.589 200.441L212.461 198.383C211.689 198.322 210.912 198.414 210.176 198.652C209.439 198.891 208.757 199.273 208.168 199.775C207.579 200.277 207.095 200.89 206.743 201.579C206.391 202.269 206.179 203.02 206.118 203.791C206.057 204.562 206.149 205.338 206.388 206.073C206.627 206.809 207.009 207.49 207.512 208.079C208.015 208.667 208.629 209.15 209.319 209.502C210.009 209.853 210.761 210.065 211.533 210.126L237.662 212.185C239.221 212.307 240.765 211.807 241.954 210.792C243.144 209.778 243.881 208.333 244.004 206.776C244.127 205.219 243.626 203.677 242.61 202.489C241.595 201.301 240.148 200.564 238.589 200.441Z" fill="#F9A826"/>
<path d="M361.801 147.788L215.308 136.245C213.604 136.111 211.891 136.313 210.265 136.841C208.64 137.368 207.134 138.21 205.834 139.319C204.535 140.428 203.466 141.781 202.69 143.302C201.914 144.823 201.446 146.482 201.312 148.184L195.678 219.465C195.407 222.903 196.514 226.308 198.756 228.93C200.998 231.553 204.191 233.179 207.633 233.451L354.126 244.994C355.83 245.128 357.544 244.925 359.169 244.398C360.795 243.87 362.3 243.028 363.6 241.92C364.9 240.811 365.968 239.458 366.744 237.937C367.52 236.416 367.988 234.757 368.122 233.055L373.476 165.305L373.584 163.921L373.755 161.767C373.889 160.065 373.686 158.353 373.158 156.73C372.63 155.106 371.787 153.603 370.677 152.305C369.567 151.006 368.212 149.939 366.689 149.164C365.166 148.389 363.505 147.922 361.801 147.788ZM357.475 209.807L356.547 221.55C356.377 223.624 355.392 225.547 353.808 226.898C352.223 228.249 350.167 228.918 348.089 228.759L328.491 227.216C326.414 227.047 324.489 226.063 323.136 224.48C321.784 222.897 321.114 220.844 321.273 218.769L322.201 207.025C322.372 204.951 323.357 203.029 324.942 201.679C326.526 200.328 328.582 199.658 330.659 199.817L350.251 201.361C352.328 201.531 354.253 202.514 355.606 204.097C356.959 205.679 357.631 207.731 357.475 209.807ZM204.822 203.683C204.974 201.783 205.874 200.02 207.326 198.782C208.777 197.544 210.661 196.932 212.564 197.08L238.691 199.14C239.635 199.212 240.555 199.47 241.399 199.898C242.243 200.326 242.995 200.916 243.61 201.635C244.226 202.353 244.694 203.185 244.987 204.084C245.28 204.983 245.393 205.931 245.32 206.874C245.246 207.816 244.987 208.735 244.558 209.578C244.129 210.42 243.537 211.17 242.818 211.784C242.098 212.399 241.264 212.865 240.364 213.158C239.464 213.45 238.514 213.562 237.571 213.488L237.557 213.491L211.43 211.431C210.486 211.357 209.567 211.097 208.724 210.667C207.881 210.237 207.131 209.646 206.517 208.926C205.903 208.206 205.437 207.373 205.147 206.473C204.856 205.574 204.745 204.625 204.822 203.683ZM210.415 145.6L210.236 144.87L210.988 144.801C211.282 144.769 218.232 144.146 223.642 148.006C229.052 151.866 230.711 158.638 230.783 158.921L230.955 159.653L230.205 159.728C229.141 159.807 228.072 159.8 227.009 159.707C223.626 159.509 220.359 158.407 217.549 156.516C212.139 152.657 210.48 145.884 210.415 145.6Z" fill="#F9A826"/>
<path d="M335.496 217.595L327.005 216.926C326.399 216.879 325.8 217.075 325.338 217.469C324.876 217.863 324.59 218.425 324.542 219.03C324.494 219.634 324.689 220.234 325.083 220.695C325.477 221.157 326.038 221.444 326.644 221.493L335.136 222.162C335.741 222.208 336.341 222.013 336.803 221.619C337.264 221.224 337.551 220.663 337.598 220.058C337.646 219.453 337.452 218.854 337.057 218.392C336.663 217.931 336.102 217.644 335.496 217.595Z" fill="#F9A826"/>
<path d="M351.173 218.83L342.682 218.161C342.076 218.115 341.477 218.31 341.016 218.705C340.554 219.099 340.268 219.66 340.221 220.265C340.173 220.869 340.367 221.468 340.761 221.93C341.155 222.392 341.716 222.679 342.321 222.728L350.813 223.397C351.418 223.443 352.017 223.247 352.479 222.853C352.94 222.459 353.226 221.898 353.274 221.293C353.321 220.688 353.127 220.09 352.733 219.628C352.34 219.166 351.779 218.879 351.173 218.83Z" fill="#F9A826"/>
<path d="M335.96 211.723L327.469 211.054C326.863 211.008 326.264 211.204 325.803 211.598C325.341 211.992 325.055 212.553 325.008 213.158C324.96 213.763 325.154 214.361 325.548 214.823C325.942 215.285 326.503 215.572 327.108 215.621L335.6 216.29C336.205 216.337 336.805 216.141 337.267 215.747C337.728 215.353 338.014 214.791 338.062 214.187C338.11 213.582 337.915 212.982 337.521 212.521C337.127 212.059 336.566 211.772 335.96 211.723Z" fill="#F9A826"/>
<path d="M351.637 212.959L343.145 212.289C342.54 212.243 341.94 212.438 341.478 212.833C341.017 213.227 340.731 213.788 340.683 214.393C340.635 214.998 340.83 215.597 341.224 216.059C341.618 216.521 342.179 216.807 342.785 216.856L351.276 217.525C351.882 217.572 352.482 217.377 352.943 216.982C353.405 216.588 353.691 216.027 353.739 215.422C353.787 214.817 353.592 214.218 353.198 213.756C352.804 213.294 352.243 213.007 351.637 212.959Z" fill="#F9A826"/>
<path d="M336.424 205.852L327.932 205.183C327.326 205.136 326.727 205.331 326.265 205.726C325.803 206.12 325.517 206.681 325.47 207.286C325.422 207.891 325.616 208.49 326.01 208.952C326.404 209.414 326.966 209.701 327.571 209.749L336.063 210.418C336.669 210.465 337.268 210.269 337.729 209.875C338.19 209.48 338.476 208.919 338.524 208.315C338.572 207.71 338.378 207.111 337.984 206.649C337.59 206.188 337.029 205.901 336.424 205.852Z" fill="#F9A826"/>
<path d="M352.101 207.087L343.609 206.418C343.004 206.372 342.405 206.567 341.943 206.961C341.482 207.356 341.196 207.917 341.148 208.522C341.1 209.126 341.295 209.725 341.689 210.187C342.082 210.648 342.643 210.935 343.249 210.985L351.74 211.654C352.346 211.7 352.945 211.504 353.406 211.11C353.867 210.716 354.153 210.155 354.201 209.55C354.249 208.945 354.055 208.346 353.661 207.885C353.267 207.423 352.706 207.136 352.101 207.087Z" fill="#F9A826"/>
<path d="M199.134 170.675L199.025 172.063L370.989 185.555L371.098 184.167L199.134 170.675Z" fill="white"/>
<path d="M373.584 163.92L373.476 165.305L367.491 164.836L303.727 159.833L303.842 158.448L367.599 163.451L373.584 163.92Z" fill="#3F3D56"/>
<path d="M163.362 149.208C163.362 149.208 154.053 188.464 165.43 188.464C176.808 188.464 203.7 144.043 203.7 144.043L194.391 132.679L177.683 155.848L176.808 144.043L163.362 149.208Z" fill="#A0616A"/>
<path d="M201.22 145.75C206.221 145.75 210.276 141.7 210.276 136.705C210.276 131.709 206.221 127.66 201.22 127.66C196.218 127.66 192.164 131.709 192.164 136.705C192.164 141.7 196.218 145.75 201.22 145.75Z" fill="#A0616A"/>
<path d="M186.411 116.151L180.205 109.952C180.205 109.952 167.793 117.184 166.759 124.415C165.725 131.646 160.553 154.374 160.553 154.374L179.688 155.923L185.894 146.626L186.411 116.151Z" fill="#E6E6E6"/>
</g>
<path d="M527.336 231.51H534V233.218H527.336V231.51ZM527.336 234.982H534V236.69H527.336V234.982ZM547.353 236.13C547.353 236.895 547.073 237.553 546.513 238.104C545.953 238.645 545.146 238.981 544.091 239.112V240.68H542.691V239.154C542.001 239.117 541.343 238.995 540.717 238.79C540.092 238.585 539.588 238.333 539.205 238.034L539.975 236.326C540.33 236.587 540.745 236.807 541.221 236.984C541.697 237.161 542.187 237.273 542.691 237.32V234.982C542.029 234.823 541.469 234.646 541.011 234.45C540.554 234.254 540.171 233.969 539.863 233.596C539.555 233.213 539.401 232.709 539.401 232.084C539.401 231.309 539.681 230.647 540.241 230.096C540.811 229.536 541.627 229.195 542.691 229.074V227.52H544.091V229.046C545.239 229.139 546.187 229.424 546.933 229.9L546.233 231.622C545.533 231.221 544.819 230.978 544.091 230.894V233.274C544.745 233.423 545.295 233.596 545.743 233.792C546.201 233.979 546.583 234.263 546.891 234.646C547.199 235.019 547.353 235.514 547.353 236.13ZM541.655 231.972C541.655 232.205 541.744 232.397 541.921 232.546C542.099 232.695 542.355 232.821 542.691 232.924V230.936C542.337 231.02 542.075 231.155 541.907 231.342C541.739 231.519 541.655 231.729 541.655 231.972ZM544.091 237.264C544.427 237.189 544.679 237.068 544.847 236.9C545.015 236.732 545.099 236.531 545.099 236.298C545.099 236.065 545.011 235.873 544.833 235.724C544.665 235.575 544.418 235.444 544.091 235.332V237.264ZM552.811 233.19C553.669 233.33 554.327 233.652 554.785 234.156C555.242 234.651 555.471 235.267 555.471 236.004C555.471 236.573 555.321 237.101 555.023 237.586C554.724 238.062 554.267 238.445 553.651 238.734C553.044 239.023 552.297 239.168 551.411 239.168C550.72 239.168 550.039 239.079 549.367 238.902C548.704 238.715 548.139 238.454 547.673 238.118L548.555 236.382C548.928 236.662 549.357 236.881 549.843 237.04C550.337 237.189 550.841 237.264 551.355 237.264C551.924 237.264 552.372 237.157 552.699 236.942C553.025 236.718 553.189 236.405 553.189 236.004C553.189 235.201 552.577 234.8 551.355 234.8H550.319V233.302L552.335 231.02H548.163V229.2H555.023V230.67L552.811 233.19ZM560.718 239.168C559.906 239.168 559.182 238.967 558.548 238.566C557.913 238.165 557.414 237.586 557.05 236.83C556.695 236.065 556.518 235.155 556.518 234.1C556.518 233.045 556.695 232.14 557.05 231.384C557.414 230.619 557.913 230.035 558.548 229.634C559.182 229.233 559.906 229.032 560.718 229.032C561.53 229.032 562.253 229.233 562.888 229.634C563.522 230.035 564.017 230.619 564.372 231.384C564.736 232.14 564.918 233.045 564.918 234.1C564.918 235.155 564.736 236.065 564.372 236.83C564.017 237.586 563.522 238.165 562.888 238.566C562.253 238.967 561.53 239.168 560.718 239.168ZM560.718 237.25C561.315 237.25 561.782 236.993 562.118 236.48C562.463 235.967 562.636 235.173 562.636 234.1C562.636 233.027 562.463 232.233 562.118 231.72C561.782 231.207 561.315 230.95 560.718 230.95C560.13 230.95 559.663 231.207 559.318 231.72C558.982 232.233 558.814 233.027 558.814 234.1C558.814 235.173 558.982 235.967 559.318 236.48C559.663 236.993 560.13 237.25 560.718 237.25ZM570.22 239.168C569.408 239.168 568.684 238.967 568.05 238.566C567.415 238.165 566.916 237.586 566.552 236.83C566.197 236.065 566.02 235.155 566.02 234.1C566.02 233.045 566.197 232.14 566.552 231.384C566.916 230.619 567.415 230.035 568.05 229.634C568.684 229.233 569.408 229.032 570.22 229.032C571.032 229.032 571.755 229.233 572.39 229.634C573.024 230.035 573.519 230.619 573.874 231.384C574.238 232.14 574.42 233.045 574.42 234.1C574.42 235.155 574.238 236.065 573.874 236.83C573.519 237.586 573.024 238.165 572.39 238.566C571.755 238.967 571.032 239.168 570.22 239.168ZM570.22 237.25C570.817 237.25 571.284 236.993 571.62 236.48C571.965 235.967 572.138 235.173 572.138 234.1C572.138 233.027 571.965 232.233 571.62 231.72C571.284 231.207 570.817 230.95 570.22 230.95C569.632 230.95 569.165 231.207 568.82 231.72C568.484 232.233 568.316 233.027 568.316 234.1C568.316 235.173 568.484 235.967 568.82 236.48C569.165 236.993 569.632 237.25 570.22 237.25ZM586.472 234.954H584.036V237.334H582.23V234.954H579.808V233.246H582.23V230.866H584.036V233.246H586.472V234.954ZM599.07 233.946H601.142V237.922C600.61 238.323 599.994 238.631 599.294 238.846C598.594 239.061 597.889 239.168 597.18 239.168C596.163 239.168 595.248 238.953 594.436 238.524C593.624 238.085 592.985 237.483 592.518 236.718C592.061 235.943 591.832 235.071 591.832 234.1C591.832 233.129 592.061 232.261 592.518 231.496C592.985 230.721 593.629 230.119 594.45 229.69C595.271 229.251 596.195 229.032 597.222 229.032C598.081 229.032 598.86 229.177 599.56 229.466C600.26 229.755 600.848 230.175 601.324 230.726L599.868 232.07C599.168 231.333 598.323 230.964 597.334 230.964C596.709 230.964 596.153 231.095 595.668 231.356C595.183 231.617 594.805 231.986 594.534 232.462C594.263 232.938 594.128 233.484 594.128 234.1C594.128 234.707 594.263 235.248 594.534 235.724C594.805 236.2 595.178 236.573 595.654 236.844C596.139 237.105 596.69 237.236 597.306 237.236C597.959 237.236 598.547 237.096 599.07 236.816V233.946ZM606.469 239.168C605.694 239.168 604.943 239.065 604.215 238.86C603.496 238.645 602.918 238.37 602.479 238.034L603.249 236.326C603.669 236.634 604.168 236.881 604.747 237.068C605.326 237.255 605.904 237.348 606.483 237.348C607.127 237.348 607.603 237.255 607.911 237.068C608.219 236.872 608.373 236.615 608.373 236.298C608.373 236.065 608.28 235.873 608.093 235.724C607.916 235.565 607.682 235.439 607.393 235.346C607.113 235.253 606.73 235.15 606.245 235.038C605.498 234.861 604.887 234.683 604.411 234.506C603.935 234.329 603.524 234.044 603.179 233.652C602.843 233.26 602.675 232.737 602.675 232.084C602.675 231.515 602.829 231.001 603.137 230.544C603.445 230.077 603.907 229.709 604.523 229.438C605.148 229.167 605.909 229.032 606.805 229.032C607.43 229.032 608.042 229.107 608.639 229.256C609.236 229.405 609.759 229.62 610.207 229.9L609.507 231.622C608.602 231.109 607.696 230.852 606.791 230.852C606.156 230.852 605.685 230.955 605.377 231.16C605.078 231.365 604.929 231.636 604.929 231.972C604.929 232.308 605.102 232.56 605.447 232.728C605.802 232.887 606.338 233.045 607.057 233.204C607.804 233.381 608.415 233.559 608.891 233.736C609.367 233.913 609.773 234.193 610.109 234.576C610.454 234.959 610.627 235.477 610.627 236.13C610.627 236.69 610.468 237.203 610.151 237.67C609.843 238.127 609.376 238.491 608.751 238.762C608.126 239.033 607.365 239.168 606.469 239.168ZM614.07 231.048H610.934V229.2H619.474V231.048H616.338V239H614.07V231.048Z" fill="black"/>
<path d="M549.026 42.782V44H541.914V34.2H548.83V35.418H543.314V38.428H548.228V39.618H543.314V42.782H549.026ZM555.665 44L553.523 41.158L551.353 44H549.855L552.781 40.206L549.995 36.58H551.493L553.537 39.254L555.567 36.58H557.037L554.237 40.206L557.191 44H555.665ZM562.592 36.51C563.31 36.51 563.954 36.6687 564.524 36.986C565.093 37.3033 565.536 37.7467 565.854 38.316C566.18 38.8853 566.344 39.5433 566.344 40.29C566.344 41.0367 566.18 41.6993 565.854 42.278C565.536 42.8473 565.093 43.2907 564.524 43.608C563.954 43.9253 563.31 44.084 562.592 44.084C562.06 44.084 561.57 43.9813 561.122 43.776C560.683 43.5707 560.31 43.272 560.002 42.88V46.716H558.658V36.58H559.946V37.756C560.244 37.3453 560.622 37.0373 561.08 36.832C561.537 36.6173 562.041 36.51 562.592 36.51ZM562.48 42.908C562.956 42.908 563.38 42.8007 563.754 42.586C564.136 42.362 564.435 42.054 564.65 41.662C564.874 41.2607 564.986 40.8033 564.986 40.29C564.986 39.7767 564.874 39.324 564.65 38.932C564.435 38.5307 564.136 38.2227 563.754 38.008C563.38 37.7933 562.956 37.686 562.48 37.686C562.013 37.686 561.588 37.798 561.206 38.022C560.832 38.2367 560.534 38.54 560.31 38.932C560.095 39.324 559.988 39.7767 559.988 40.29C559.988 40.8033 560.095 41.2607 560.31 41.662C560.524 42.054 560.823 42.362 561.206 42.586C561.588 42.8007 562.013 42.908 562.48 42.908ZM574.907 40.332C574.907 40.4347 574.897 40.57 574.879 40.738H568.859C568.943 41.3913 569.227 41.9187 569.713 42.32C570.207 42.712 570.819 42.908 571.547 42.908C572.433 42.908 573.147 42.6093 573.689 42.012L574.431 42.88C574.095 43.272 573.675 43.5707 573.171 43.776C572.676 43.9813 572.121 44.084 571.505 44.084C570.721 44.084 570.025 43.9253 569.419 43.608C568.812 43.2813 568.341 42.8287 568.005 42.25C567.678 41.6713 567.515 41.018 567.515 40.29C567.515 39.5713 567.673 38.9227 567.991 38.344C568.317 37.7653 568.761 37.3173 569.321 37C569.89 36.6733 570.529 36.51 571.239 36.51C571.948 36.51 572.578 36.6733 573.129 37C573.689 37.3173 574.123 37.7653 574.431 38.344C574.748 38.9227 574.907 39.5853 574.907 40.332ZM571.239 37.644C570.595 37.644 570.053 37.84 569.615 38.232C569.185 38.624 568.933 39.1373 568.859 39.772H573.619C573.544 39.1467 573.287 38.638 572.849 38.246C572.419 37.8447 571.883 37.644 571.239 37.644ZM580.735 36.51C581.678 36.51 582.424 36.7853 582.975 37.336C583.535 37.8773 583.815 38.6753 583.815 39.73V44H582.471V39.884C582.471 39.1653 582.298 38.624 581.953 38.26C581.608 37.896 581.113 37.714 580.469 37.714C579.741 37.714 579.167 37.9287 578.747 38.358C578.327 38.778 578.117 39.3847 578.117 40.178V44H576.773V36.58H578.061V37.7C578.332 37.3173 578.696 37.0233 579.153 36.818C579.62 36.6127 580.147 36.51 580.735 36.51ZM588.43 44.084C587.824 44.084 587.24 44.0047 586.68 43.846C586.12 43.678 585.682 43.468 585.364 43.216L585.924 42.152C586.251 42.3853 586.648 42.572 587.114 42.712C587.581 42.852 588.052 42.922 588.528 42.922C589.704 42.922 590.292 42.586 590.292 41.914C590.292 41.69 590.213 41.5127 590.054 41.382C589.896 41.2513 589.695 41.158 589.452 41.102C589.219 41.0367 588.883 40.9667 588.444 40.892C587.847 40.7987 587.357 40.6913 586.974 40.57C586.601 40.4487 586.279 40.2433 586.008 39.954C585.738 39.6647 585.602 39.2587 585.602 38.736C585.602 38.064 585.882 37.5273 586.442 37.126C587.002 36.7153 587.754 36.51 588.696 36.51C589.191 36.51 589.686 36.5707 590.18 36.692C590.675 36.8133 591.081 36.9767 591.398 37.182L590.824 38.246C590.218 37.854 589.504 37.658 588.682 37.658C588.113 37.658 587.679 37.7513 587.38 37.938C587.082 38.1247 586.932 38.372 586.932 38.68C586.932 38.9227 587.016 39.114 587.184 39.254C587.352 39.394 587.558 39.4967 587.8 39.562C588.052 39.6273 588.402 39.702 588.85 39.786C589.448 39.8887 589.928 40.0007 590.292 40.122C590.666 40.234 590.983 40.43 591.244 40.71C591.506 40.99 591.636 41.382 591.636 41.886C591.636 42.558 591.347 43.0947 590.768 43.496C590.199 43.888 589.42 44.084 588.43 44.084ZM600.022 40.332C600.022 40.4347 600.013 40.57 599.994 40.738H593.974C594.058 41.3913 594.343 41.9187 594.828 42.32C595.323 42.712 595.934 42.908 596.662 42.908C597.549 42.908 598.263 42.6093 598.804 42.012L599.546 42.88C599.21 43.272 598.79 43.5707 598.286 43.776C597.791 43.9813 597.236 44.084 596.62 44.084C595.836 44.084 595.141 43.9253 594.534 43.608C593.927 43.2813 593.456 42.8287 593.12 42.25C592.793 41.6713 592.63 41.018 592.63 40.29C592.63 39.5713 592.789 38.9227 593.106 38.344C593.433 37.7653 593.876 37.3173 594.436 37C595.005 36.6733 595.645 36.51 596.354 36.51C597.063 36.51 597.693 36.6733 598.244 37C598.804 37.3173 599.238 37.7653 599.546 38.344C599.863 38.9227 600.022 39.5853 600.022 40.332ZM596.354 37.644C595.71 37.644 595.169 37.84 594.73 38.232C594.301 38.624 594.049 39.1373 593.974 39.772H598.734C598.659 39.1467 598.403 38.638 597.964 38.246C597.535 37.8447 596.998 37.644 596.354 37.644ZM608.084 34.2V44H606.698V35.418H604.486V34.2H608.084Z" fill="black"/>
<path d="M547.598 119.782V121H540.486V111.2H547.402V112.418H541.886V115.428H546.8V116.618H541.886V119.782H547.598ZM554.236 121L552.094 118.158L549.924 121H548.426L551.352 117.206L548.566 113.58H550.064L552.108 116.254L554.138 113.58H555.608L552.808 117.206L555.762 121H554.236ZM561.163 113.51C561.882 113.51 562.526 113.669 563.095 113.986C563.664 114.303 564.108 114.747 564.425 115.316C564.752 115.885 564.915 116.543 564.915 117.29C564.915 118.037 564.752 118.699 564.425 119.278C564.108 119.847 563.664 120.291 563.095 120.608C562.526 120.925 561.882 121.084 561.163 121.084C560.631 121.084 560.141 120.981 559.693 120.776C559.254 120.571 558.881 120.272 558.573 119.88V123.716H557.229V113.58H558.517V114.756C558.816 114.345 559.194 114.037 559.651 113.832C560.108 113.617 560.612 113.51 561.163 113.51ZM561.051 119.908C561.527 119.908 561.952 119.801 562.325 119.586C562.708 119.362 563.006 119.054 563.221 118.662C563.445 118.261 563.557 117.803 563.557 117.29C563.557 116.777 563.445 116.324 563.221 115.932C563.006 115.531 562.708 115.223 562.325 115.008C561.952 114.793 561.527 114.686 561.051 114.686C560.584 114.686 560.16 114.798 559.777 115.022C559.404 115.237 559.105 115.54 558.881 115.932C558.666 116.324 558.559 116.777 558.559 117.29C558.559 117.803 558.666 118.261 558.881 118.662C559.096 119.054 559.394 119.362 559.777 119.586C560.16 119.801 560.584 119.908 561.051 119.908ZM573.478 117.332C573.478 117.435 573.469 117.57 573.45 117.738H567.43C567.514 118.391 567.799 118.919 568.284 119.32C568.779 119.712 569.39 119.908 570.118 119.908C571.005 119.908 571.719 119.609 572.26 119.012L573.002 119.88C572.666 120.272 572.246 120.571 571.742 120.776C571.247 120.981 570.692 121.084 570.076 121.084C569.292 121.084 568.597 120.925 567.99 120.608C567.383 120.281 566.912 119.829 566.576 119.25C566.249 118.671 566.086 118.018 566.086 117.29C566.086 116.571 566.245 115.923 566.562 115.344C566.889 114.765 567.332 114.317 567.892 114C568.461 113.673 569.101 113.51 569.81 113.51C570.519 113.51 571.149 113.673 571.7 114C572.26 114.317 572.694 114.765 573.002 115.344C573.319 115.923 573.478 116.585 573.478 117.332ZM569.81 114.644C569.166 114.644 568.625 114.84 568.186 115.232C567.757 115.624 567.505 116.137 567.43 116.772H572.19C572.115 116.147 571.859 115.638 571.42 115.246C570.991 114.845 570.454 114.644 569.81 114.644ZM579.306 113.51C580.249 113.51 580.996 113.785 581.546 114.336C582.106 114.877 582.386 115.675 582.386 116.73V121H581.042V116.884C581.042 116.165 580.87 115.624 580.524 115.26C580.179 114.896 579.684 114.714 579.04 114.714C578.312 114.714 577.738 114.929 577.318 115.358C576.898 115.778 576.688 116.385 576.688 117.178V121H575.344V113.58H576.632V114.7C576.903 114.317 577.267 114.023 577.724 113.818C578.191 113.613 578.718 113.51 579.306 113.51ZM587.002 121.084C586.395 121.084 585.812 121.005 585.252 120.846C584.692 120.678 584.253 120.468 583.936 120.216L584.496 119.152C584.822 119.385 585.219 119.572 585.686 119.712C586.152 119.852 586.624 119.922 587.1 119.922C588.276 119.922 588.864 119.586 588.864 118.914C588.864 118.69 588.784 118.513 588.626 118.382C588.467 118.251 588.266 118.158 588.024 118.102C587.79 118.037 587.454 117.967 587.016 117.892C586.418 117.799 585.928 117.691 585.546 117.57C585.172 117.449 584.85 117.243 584.58 116.954C584.309 116.665 584.174 116.259 584.174 115.736C584.174 115.064 584.454 114.527 585.014 114.126C585.574 113.715 586.325 113.51 587.268 113.51C587.762 113.51 588.257 113.571 588.752 113.692C589.246 113.813 589.652 113.977 589.97 114.182L589.396 115.246C588.789 114.854 588.075 114.658 587.254 114.658C586.684 114.658 586.25 114.751 585.952 114.938C585.653 115.125 585.504 115.372 585.504 115.68C585.504 115.923 585.588 116.114 585.756 116.254C585.924 116.394 586.129 116.497 586.372 116.562C586.624 116.627 586.974 116.702 587.422 116.786C588.019 116.889 588.5 117.001 588.864 117.122C589.237 117.234 589.554 117.43 589.816 117.71C590.077 117.99 590.208 118.382 590.208 118.886C590.208 119.558 589.918 120.095 589.34 120.496C588.77 120.888 587.991 121.084 587.002 121.084ZM598.593 117.332C598.593 117.435 598.584 117.57 598.565 117.738H592.545C592.629 118.391 592.914 118.919 593.399 119.32C593.894 119.712 594.505 119.908 595.233 119.908C596.12 119.908 596.834 119.609 597.375 119.012L598.117 119.88C597.781 120.272 597.361 120.571 596.857 120.776C596.363 120.981 595.807 121.084 595.191 121.084C594.407 121.084 593.712 120.925 593.105 120.608C592.499 120.281 592.027 119.829 591.691 119.25C591.365 118.671 591.201 118.018 591.201 117.29C591.201 116.571 591.36 115.923 591.677 115.344C592.004 114.765 592.447 114.317 593.007 114C593.577 113.673 594.216 113.51 594.925 113.51C595.635 113.51 596.265 113.673 596.815 114C597.375 114.317 597.809 114.765 598.117 115.344C598.435 115.923 598.593 116.585 598.593 117.332ZM594.925 114.644C594.281 114.644 593.74 114.84 593.301 115.232C592.872 115.624 592.62 116.137 592.545 116.772H597.305C597.231 116.147 596.974 115.638 596.535 115.246C596.106 114.845 595.569 114.644 594.925 114.644ZM610.505 119.782V121H603.463V120.048L607.453 116.198C607.939 115.731 608.265 115.33 608.433 114.994C608.601 114.649 608.685 114.303 608.685 113.958C608.685 113.445 608.503 113.048 608.139 112.768C607.785 112.479 607.271 112.334 606.599 112.334C605.517 112.334 604.681 112.689 604.093 113.398L603.141 112.572C603.524 112.105 604.023 111.741 604.639 111.48C605.265 111.219 605.96 111.088 606.725 111.088C607.752 111.088 608.569 111.335 609.175 111.83C609.782 112.315 610.085 112.978 610.085 113.818C610.085 114.341 609.973 114.835 609.749 115.302C609.525 115.769 609.101 116.301 608.475 116.898L605.479 119.782H610.505Z" fill="black"/>
<path d="M547.611 191.782V193H540.499V183.2H547.415V184.418H541.899V187.428H546.813V188.618H541.899V191.782H547.611ZM554.25 193L552.108 190.158L549.938 193H548.44L551.366 189.206L548.58 185.58H550.078L552.122 188.254L554.152 185.58H555.622L552.822 189.206L555.776 193H554.25ZM561.177 185.51C561.895 185.51 562.539 185.669 563.109 185.986C563.678 186.303 564.121 186.747 564.439 187.316C564.765 187.885 564.929 188.543 564.929 189.29C564.929 190.037 564.765 190.699 564.439 191.278C564.121 191.847 563.678 192.291 563.109 192.608C562.539 192.925 561.895 193.084 561.177 193.084C560.645 193.084 560.155 192.981 559.707 192.776C559.268 192.571 558.895 192.272 558.587 191.88V195.716H557.243V185.58H558.531V186.756C558.829 186.345 559.207 186.037 559.665 185.832C560.122 185.617 560.626 185.51 561.177 185.51ZM561.065 191.908C561.541 191.908 561.965 191.801 562.339 191.586C562.721 191.362 563.02 191.054 563.235 190.662C563.459 190.261 563.571 189.803 563.571 189.29C563.571 188.777 563.459 188.324 563.235 187.932C563.02 187.531 562.721 187.223 562.339 187.008C561.965 186.793 561.541 186.686 561.065 186.686C560.598 186.686 560.173 186.798 559.791 187.022C559.417 187.237 559.119 187.54 558.895 187.932C558.68 188.324 558.573 188.777 558.573 189.29C558.573 189.803 558.68 190.261 558.895 190.662C559.109 191.054 559.408 191.362 559.791 191.586C560.173 191.801 560.598 191.908 561.065 191.908ZM573.492 189.332C573.492 189.435 573.482 189.57 573.464 189.738H567.444C567.528 190.391 567.812 190.919 568.298 191.32C568.792 191.712 569.404 191.908 570.132 191.908C571.018 191.908 571.732 191.609 572.274 191.012L573.016 191.88C572.68 192.272 572.26 192.571 571.756 192.776C571.261 192.981 570.706 193.084 570.09 193.084C569.306 193.084 568.61 192.925 568.004 192.608C567.397 192.281 566.926 191.829 566.59 191.25C566.263 190.671 566.1 190.018 566.1 189.29C566.1 188.571 566.258 187.923 566.576 187.344C566.902 186.765 567.346 186.317 567.906 186C568.475 185.673 569.114 185.51 569.824 185.51C570.533 185.51 571.163 185.673 571.714 186C572.274 186.317 572.708 186.765 573.016 187.344C573.333 187.923 573.492 188.585 573.492 189.332ZM569.824 186.644C569.18 186.644 568.638 186.84 568.2 187.232C567.77 187.624 567.518 188.137 567.444 188.772H572.204C572.129 188.147 571.872 187.638 571.434 187.246C571.004 186.845 570.468 186.644 569.824 186.644ZM579.32 185.51C580.263 185.51 581.009 185.785 581.56 186.336C582.12 186.877 582.4 187.675 582.4 188.73V193H581.056V188.884C581.056 188.165 580.883 187.624 580.538 187.26C580.193 186.896 579.698 186.714 579.054 186.714C578.326 186.714 577.752 186.929 577.332 187.358C576.912 187.778 576.702 188.385 576.702 189.178V193H575.358V185.58H576.646V186.7C576.917 186.317 577.281 186.023 577.738 185.818C578.205 185.613 578.732 185.51 579.32 185.51ZM587.015 193.084C586.409 193.084 585.825 193.005 585.265 192.846C584.705 192.678 584.267 192.468 583.949 192.216L584.509 191.152C584.836 191.385 585.233 191.572 585.699 191.712C586.166 191.852 586.637 191.922 587.113 191.922C588.289 191.922 588.877 191.586 588.877 190.914C588.877 190.69 588.798 190.513 588.639 190.382C588.481 190.251 588.28 190.158 588.037 190.102C587.804 190.037 587.468 189.967 587.029 189.892C586.432 189.799 585.942 189.691 585.559 189.57C585.186 189.449 584.864 189.243 584.593 188.954C584.323 188.665 584.187 188.259 584.187 187.736C584.187 187.064 584.467 186.527 585.027 186.126C585.587 185.715 586.339 185.51 587.281 185.51C587.776 185.51 588.271 185.571 588.765 185.692C589.26 185.813 589.666 185.977 589.983 186.182L589.409 187.246C588.803 186.854 588.089 186.658 587.267 186.658C586.698 186.658 586.264 186.751 585.965 186.938C585.667 187.125 585.517 187.372 585.517 187.68C585.517 187.923 585.601 188.114 585.769 188.254C585.937 188.394 586.143 188.497 586.385 188.562C586.637 188.627 586.987 188.702 587.435 188.786C588.033 188.889 588.513 189.001 588.877 189.122C589.251 189.234 589.568 189.43 589.829 189.71C590.091 189.99 590.221 190.382 590.221 190.886C590.221 191.558 589.932 192.095 589.353 192.496C588.784 192.888 588.005 193.084 587.015 193.084ZM598.607 189.332C598.607 189.435 598.598 189.57 598.579 189.738H592.559C592.643 190.391 592.928 190.919 593.413 191.32C593.908 191.712 594.519 191.908 595.247 191.908C596.134 191.908 596.848 191.609 597.389 191.012L598.131 191.88C597.795 192.272 597.375 192.571 596.871 192.776C596.376 192.981 595.821 193.084 595.205 193.084C594.421 193.084 593.726 192.925 593.119 192.608C592.512 192.281 592.041 191.829 591.705 191.25C591.378 190.671 591.215 190.018 591.215 189.29C591.215 188.571 591.374 187.923 591.691 187.344C592.018 186.765 592.461 186.317 593.021 186C593.59 185.673 594.23 185.51 594.939 185.51C595.648 185.51 596.278 185.673 596.829 186C597.389 186.317 597.823 186.765 598.131 187.344C598.448 187.923 598.607 188.585 598.607 189.332ZM594.939 186.644C594.295 186.644 593.754 186.84 593.315 187.232C592.886 187.624 592.634 188.137 592.559 188.772H597.319C597.244 188.147 596.988 187.638 596.549 187.246C596.12 186.845 595.583 186.644 594.939 186.644ZM607.383 187.316C608.344 187.409 609.077 187.708 609.581 188.212C610.085 188.707 610.337 189.341 610.337 190.116C610.337 190.676 610.197 191.185 609.917 191.642C609.637 192.09 609.217 192.449 608.657 192.72C608.106 192.981 607.43 193.112 606.627 193.112C605.927 193.112 605.255 193.009 604.611 192.804C603.967 192.589 603.44 192.295 603.029 191.922L603.673 190.816C604.009 191.133 604.438 191.39 604.961 191.586C605.484 191.773 606.039 191.866 606.627 191.866C607.355 191.866 607.92 191.712 608.321 191.404C608.732 191.096 608.937 190.671 608.937 190.13C608.937 189.589 608.736 189.169 608.335 188.87C607.934 188.571 607.327 188.422 606.515 188.422H605.731V187.442L608.195 184.418H603.477V183.2H609.945V184.152L607.383 187.316Z" fill="black"/>
<defs>
<clipPath id="clip0_3_1251">
<rect width="630" height="408" fill="white" transform="translate(0 29)"/>
</clipPath>
</defs>
</svg>
