<svg width="707" height="472" viewBox="0 0 707 472" fill="none" xmlns="http://www.w3.org/2000/svg">
<g clip-path="url(#clip0_3_1370)">
<path d="M520.57 0.294434H0.222168V333.016H520.57V0.294434Z" fill="#E6E6E6"/>
<path d="M505.691 42.0259H15.1013V168.862H505.691V42.0259Z" fill="white"/>
<path d="M240.88 60.3467H137.131V66.2927H240.88V60.3467Z" fill="#E6E6E6"/>
<path d="M297.341 82.0366H137.131V87.9827H297.341V82.0366Z" fill="#F9A826"/>
<path d="M267.699 102.471H137.131V108.417H267.699V102.471Z" fill="#E6E6E6"/>
<path d="M213.354 122.829H137.131V128.775H213.354V122.829Z" fill="#E6E6E6"/>
<path d="M252.172 143.186H137.131V149.132H252.172V143.186Z" fill="#E6E6E6"/>
<path d="M102.548 58.2329H89.844V70.9165H102.548V58.2329Z" fill="#E6E6E6"/>
<path d="M102.548 78.6675H89.844V91.3511H102.548V78.6675Z" fill="#F9A826"/>
<path d="M102.548 99.1025H89.844V111.786H102.548V99.1025Z" fill="#E6E6E6"/>
<path d="M102.548 119.537H89.844V132.221H102.548V119.537Z" fill="#E6E6E6"/>
<path d="M102.548 139.972H89.844V152.655H102.548V139.972Z" fill="#E6E6E6"/>
<path d="M437.085 87.1235H394.738V129.402H437.085V87.1235Z" fill="#E6E6E6"/>
<path d="M505.691 186.479H15.1013V313.315H505.691V186.479Z" fill="white"/>
<path d="M124.427 197.751H111.723V210.435H124.427V197.751Z" fill="#E6E6E6"/>
<path d="M102.548 197.751H89.844V210.435H102.548V197.751Z" fill="#F9A826"/>
<path d="M305.241 225.488C301.369 218.943 295.996 213.409 289.565 209.341C283.133 205.273 275.827 202.788 268.246 202.089C260.664 201.389 253.025 202.497 245.956 205.319C238.887 208.142 232.59 212.6 227.583 218.325L224.487 215.624C229.921 209.408 236.756 204.569 244.429 201.504C252.102 198.439 260.394 197.237 268.623 197.995C276.852 198.754 284.784 201.453 291.765 205.869C298.746 210.285 304.577 216.292 308.779 223.397L305.241 225.488Z" fill="#E6E6E6"/>
<path d="M307.178 278.961L303.766 276.671C308.82 269.146 311.64 260.348 311.901 251.292C312.161 242.236 309.853 233.29 305.241 225.488L308.779 223.397C313.787 231.867 316.293 241.578 316.01 251.41C315.727 261.241 312.665 270.793 307.178 278.961Z" fill="#F9A826"/>
<path d="M224.916 284.68C216.417 275.204 211.683 262.952 211.604 250.233C211.525 237.514 216.107 225.204 224.487 215.624L227.583 218.325C219.863 227.151 215.642 238.49 215.715 250.208C215.788 261.925 220.149 273.211 227.978 281.941L224.916 284.68Z" fill="#F9A826"/>
<path d="M263.817 302.042C256.476 302.037 249.217 300.488 242.515 297.496C235.812 294.505 229.816 290.138 224.916 284.68L227.978 281.941C232.866 287.394 238.938 291.659 245.729 294.411C252.52 297.163 259.852 298.33 267.164 297.821C274.476 297.313 281.574 295.143 287.918 291.477C294.262 287.811 299.682 282.747 303.766 276.67L307.178 278.961C302.405 286.068 295.952 291.891 288.389 295.917C280.827 299.942 272.388 302.046 263.817 302.042Z" fill="#F9A826"/>
<path d="M437.085 225.234H394.738V267.513H437.085V225.234Z" fill="#E6E6E6"/>
<path d="M130.426 252.715H88.0796V294.994H130.426V252.715Z" fill="#E6E6E6"/>
<path d="M520.348 0H0V22.071H520.348V0Z" fill="#F9A826"/>
<path d="M16.4276 15.3747C18.6904 15.3747 20.5248 13.5433 20.5248 11.284C20.5248 9.02482 18.6904 7.19336 16.4276 7.19336C14.1647 7.19336 12.3303 9.02482 12.3303 11.284C12.3303 13.5433 14.1647 15.3747 16.4276 15.3747Z" fill="white"/>
<path d="M31.9796 15.3747C34.2424 15.3747 36.0768 13.5433 36.0768 11.284C36.0768 9.02482 34.2424 7.19336 31.9796 7.19336C29.7167 7.19336 27.8823 9.02482 27.8823 11.284C27.8823 13.5433 29.7167 15.3747 31.9796 15.3747Z" fill="white"/>
<path d="M47.5318 15.3747C49.7946 15.3747 51.629 13.5433 51.629 11.284C51.629 9.02482 49.7946 7.19336 47.5318 7.19336C45.269 7.19336 43.4346 9.02482 43.4346 11.284C43.4346 13.5433 45.269 15.3747 47.5318 15.3747Z" fill="white"/>
<path d="M604.358 460.54H614.892L619.904 419.973L604.356 419.973L604.358 460.54Z" fill="#FFB8B8"/>
<path d="M601.671 457.106L622.417 457.105H622.417C625.924 457.106 629.286 458.496 631.766 460.972C634.245 463.447 635.638 466.804 635.638 470.305V470.734L601.672 470.735L601.671 457.106Z" fill="#2F2E41"/>
<path d="M578.123 420.712L585.896 427.811L617.017 401.252L605.544 390.776L578.123 420.712Z" fill="#FFB8B8"/>
<path d="M578.461 416.368L593.77 430.346L593.771 430.347C596.358 432.71 597.899 436.002 598.055 439.499C598.211 442.996 596.97 446.412 594.604 448.995L594.314 449.312L569.249 426.425L578.461 416.368Z" fill="#2F2E41"/>
<path d="M620.915 318.08L617.929 377.697L625.394 442.532L603.001 445.513L588.82 363.539L584.341 307.646L620.915 318.08Z" fill="#2F2E41"/>
<path d="M655.997 296.468C655.997 296.468 664.954 355.341 646.293 374.716C627.633 394.092 602.255 428.372 602.255 428.372L584.341 406.016L629.872 357.576L620.915 324.787L584.341 307.646L590.312 266.659L644.054 265.914L655.997 296.468Z" fill="#2F2E41"/>
<path d="M614.895 160.093C624.991 160.093 633.176 151.921 633.176 141.842C633.176 131.762 624.991 123.59 614.895 123.59C604.799 123.59 596.615 131.762 596.615 141.842C596.615 151.921 604.799 160.093 614.895 160.093Z" fill="#FFB8B8"/>
<path d="M630.058 167.781L632.858 172.017L640.322 192.883L634.351 274.112L599.269 274.857L594.791 181.704L604.173 169.996L630.058 167.781Z" fill="#CCCCCC"/>
<path d="M580.609 183.94L574.637 183.195C574.637 183.195 573.145 183.94 572.398 189.157C571.652 194.373 562.695 240.577 562.695 240.577L574.637 297.214L588.073 279.328L579.862 248.029L588.073 216.73L580.609 183.94Z" fill="#2F2E41"/>
<path d="M656.743 183.195H661.221L672.418 243.557L661.968 290.507L651.518 273.366L654.504 254.736L653.011 238.341L647.786 228.653L656.743 183.195Z" fill="#2F2E41"/>
<path d="M625.697 141.842L622.374 141.012C622.374 141.012 619.881 126.909 614.064 128.568C608.248 130.227 593.291 131.887 593.291 125.25C593.291 118.613 607.417 112.806 615.726 113.635C624.035 114.465 634.648 117.217 637.33 129.398C641.631 148.924 628.458 153.856 628.458 153.856L628.677 153.145C629.285 151.171 629.329 149.066 628.802 147.069C628.276 145.072 627.2 143.261 625.697 141.842Z" fill="#2F2E41"/>
<path d="M575.384 183.195L599.27 173.507L604.868 169.408L621.662 243.558L632.858 210.023L629.499 167.172L660.475 183.195L650.026 233.87L648.533 253.245L653.011 268.895C653.011 268.895 668.686 280.073 663.461 291.997C658.236 303.92 652.265 304.666 652.265 304.666C652.265 304.666 626.887 280.819 625.394 274.857C623.901 268.895 621.662 258.462 621.662 258.462C621.662 258.462 608.973 306.156 594.045 305.411C579.116 304.666 579.116 289.016 579.116 289.016L582.848 272.621L588.82 255.481L585.834 227.163L575.384 183.195Z" fill="#2F2E41"/>
<path d="M706.26 472H508.054C507.858 472 507.67 471.922 507.531 471.784C507.392 471.645 507.314 471.457 507.314 471.261C507.314 471.066 507.392 470.878 507.531 470.739C507.67 470.601 507.858 470.523 508.054 470.523H706.26C706.457 470.523 706.645 470.601 706.783 470.739C706.922 470.878 707 471.066 707 471.261C707 471.457 706.922 471.645 706.783 471.784C706.645 471.922 706.457 472 706.26 472Z" fill="#CCCCCC"/>
</g>
<defs>
<clipPath id="clip0_3_1370">
<rect width="707" height="472" fill="white"/>
</clipPath>
</defs>
</svg>
