<svg width="643" height="348" viewBox="0 0 643 348" fill="none" xmlns="http://www.w3.org/2000/svg">
<g clip-path="url(#clip0_2_2019)">
<path d="M348.924 184.09V184.845C348.923 191.786 346.163 198.442 341.252 203.349C336.342 208.256 329.682 211.012 322.738 211.011H27.1745C20.232 211.01 13.574 208.253 8.66497 203.346C3.75591 198.439 0.997731 191.785 0.99707 184.845V184.09H348.924Z" fill="#F2F2F2"/>
<path d="M62.8143 59.5325C41.4552 64.8054 22.281 48.3804 18.9331 33.1429L20.4202 32.8772C38.423 28.8997 58.5193 41.7623 62.8143 59.5325Z" fill="#F9A826"/>
<path d="M579.105 341.722C572.928 339.056 571.525 329.343 576.695 325.039C581.865 320.735 591.169 323.872 592.675 330.427L586.912 289.225C585.587 279.752 584.527 269.163 590.255 261.501C595.618 254.326 606.095 252.027 614.506 255.116C622.917 258.204 629.134 265.909 631.771 274.469C634.409 283.029 633.786 292.331 631.483 300.987C629.18 309.643 625.268 317.773 621.311 325.809C617.256 334.044 612.338 342.967 603.671 345.998C595.392 348.894 579.105 341.722 579.105 341.722Z" fill="#F2F2F2"/>
<path d="M606.176 254.334C609.963 266.147 611.766 278.505 611.512 290.907C611.274 303.254 609.055 315.483 604.939 327.127C602.597 333.733 599.629 340.1 596.076 346.142C595.922 346.427 595.885 346.76 595.973 347.071C596.06 347.382 596.265 347.647 596.544 347.81C596.823 347.973 597.155 348.022 597.469 347.945C597.783 347.868 598.055 347.673 598.228 347.399C604.607 336.503 609.14 324.628 611.643 312.254C614.183 299.821 614.692 287.06 613.149 274.464C612.281 267.406 610.751 260.444 608.58 253.672C608.09 252.152 605.683 252.802 606.176 254.334Z" fill="white"/>
<path d="M575.443 326.555L595.169 347.275C596.277 348.438 598.037 346.675 596.931 345.513L577.205 324.794C576.098 323.63 574.337 325.394 575.443 326.555Z" fill="white"/>
<path d="M558.687 248.324C557.984 248.325 557.304 248.073 556.773 247.613C544.593 239.686 533.751 229.873 524.655 218.543C524.098 218.015 523.77 217.29 523.741 216.524C523.712 215.758 523.984 215.011 524.499 214.442L530.479 207.842L531.71 208.957L525.731 215.557C525.504 215.808 525.386 216.138 525.402 216.476C525.419 216.814 525.569 217.131 525.82 217.359L525.908 217.451C534.914 228.68 545.655 238.402 557.724 246.25L557.833 246.333C558.084 246.56 558.415 246.678 558.753 246.662C559.091 246.645 559.408 246.495 559.635 246.244L571.301 233.367C571.518 233.127 571.636 232.814 571.631 232.491C571.627 232.168 571.499 231.859 571.275 231.626C568.571 230.154 565.934 228.549 563.433 226.854L564.365 225.48C566.852 227.165 569.476 228.759 572.166 230.22L572.327 230.334C572.613 230.593 572.845 230.906 573.011 231.254C573.176 231.603 573.27 231.98 573.29 232.365C573.309 232.751 573.252 233.136 573.122 233.499C572.992 233.862 572.792 234.196 572.533 234.482L560.867 247.359C560.609 247.646 560.296 247.878 559.947 248.043C559.598 248.208 559.22 248.302 558.835 248.32C558.785 248.323 558.736 248.324 558.687 248.324Z" fill="#3F3D56"/>
<path d="M545.826 226.646C549.489 229.959 553.253 231.777 554.233 230.698C554.361 230.515 554.441 230.303 554.467 230.081C554.493 229.86 554.464 229.635 554.382 229.427C553.985 228.205 553.35 227.073 552.513 226.098C549.257 223.781 546.091 221.281 543.018 218.599C542.054 218.284 541.314 218.292 540.957 218.691C540.906 218.748 540.864 218.812 540.833 218.881C540.218 220.135 542.353 223.498 545.826 226.646Z" fill="#F9A826"/>
<path d="M523.744 199.949C523.775 200.705 524.103 201.418 524.658 201.933C529.58 208.013 534.989 213.681 540.833 218.882C545.109 222.695 549.636 226.218 554.382 229.427C555.172 229.967 555.969 230.49 556.775 231.005C557.304 231.468 557.983 231.722 558.686 231.719C558.736 231.719 558.786 231.711 558.836 231.711C559.222 231.693 559.6 231.599 559.95 231.433C560.299 231.268 560.612 231.035 560.871 230.748L572.535 217.877C573.058 217.299 573.33 216.536 573.291 215.758C573.252 214.979 572.905 214.248 572.327 213.725L572.169 213.609C559.435 206.734 548.55 196.885 540.442 184.902L540.318 184.753C539.739 184.23 538.977 183.958 538.198 183.997C537.419 184.036 536.687 184.383 536.164 184.96L524.5 197.831C524.24 198.117 524.04 198.451 523.91 198.815C523.78 199.178 523.724 199.564 523.744 199.949ZM525.405 199.866C525.396 199.7 525.421 199.534 525.476 199.377C525.532 199.22 525.618 199.076 525.729 198.952L537.393 186.073C537.506 185.948 537.643 185.847 537.796 185.776C537.948 185.705 538.114 185.664 538.282 185.658C538.588 185.64 538.889 185.734 539.129 185.924C547.358 198.056 558.381 208.034 571.272 215.02C571.496 215.252 571.624 215.559 571.631 215.881C571.637 216.204 571.52 216.516 571.305 216.756L559.633 229.635C559.522 229.76 559.387 229.862 559.236 229.933C559.084 230.005 558.92 230.044 558.752 230.05C558.414 230.067 558.084 229.95 557.83 229.726L557.722 229.643C555.961 228.514 554.225 227.332 552.513 226.098C549.257 223.781 546.091 221.281 543.018 218.599C536.81 213.187 531.084 207.247 525.904 200.846L525.82 200.754C525.571 200.524 525.422 200.205 525.405 199.866V199.866Z" fill="#3F3D56"/>
<path d="M554.232 214.093C555.208 213.016 553.028 209.453 549.363 206.135C545.697 202.818 541.935 201.002 540.959 202.079C539.982 203.157 542.162 206.72 545.828 210.037C549.493 213.355 553.256 215.171 554.232 214.093Z" fill="#F9A826"/>
<path d="M480.937 337.592L470.753 337.591L465.907 298.324L480.939 298.325L480.937 337.592Z" fill="#FFB8B8"/>
<path d="M483.535 347.46L450.694 347.459V347.044C450.694 345.366 451.024 343.704 451.667 342.154C452.309 340.604 453.251 339.195 454.438 338.009C455.625 336.823 457.034 335.882 458.585 335.24C460.136 334.597 461.798 334.267 463.476 334.267H463.477L483.535 334.268L483.535 347.46Z" fill="#2F2E41"/>
<path d="M510.845 337.592L500.66 337.591L495.814 298.324L510.846 298.325L510.845 337.592Z" fill="#FFB8B8"/>
<path d="M513.442 347.46L480.602 347.459V347.044C480.602 345.366 480.932 343.704 481.575 342.154C482.217 340.604 483.158 339.195 484.345 338.009C485.532 336.823 486.942 335.882 488.492 335.24C490.043 334.597 491.706 334.267 493.384 334.267H493.385L513.443 334.268L513.442 347.46Z" fill="#2F2E41"/>
<path d="M517.68 178.899L515.248 323.132C515.24 323.588 515.139 324.038 514.949 324.454C514.759 324.87 514.486 325.242 514.146 325.547C513.806 325.852 513.406 326.084 512.972 326.228C512.539 326.372 512.08 326.425 511.625 326.383L499.706 325.3C498.925 325.229 498.193 324.884 497.642 324.326C497.09 323.767 496.755 323.031 496.694 322.249L489.716 232.281C489.7 232.07 489.604 231.873 489.446 231.731C489.289 231.588 489.084 231.511 488.872 231.515C488.66 231.519 488.457 231.604 488.306 231.753C488.155 231.902 488.066 232.102 488.058 232.314L484.57 324.342C484.538 325.2 484.174 326.013 483.555 326.609C482.935 327.205 482.109 327.538 481.25 327.538H468.468C467.622 327.538 466.807 327.215 466.191 326.635C465.574 326.056 465.203 325.263 465.151 324.419L456.203 178.069L509.372 164.783L517.68 178.899Z" fill="#2F2E41"/>
<path d="M479.115 43.4669C490.384 43.4669 499.519 34.3358 499.519 23.0719C499.519 11.808 490.384 2.67688 479.115 2.67688C467.845 2.67688 458.71 11.808 458.71 23.0719C458.71 34.3358 467.845 43.4669 479.115 43.4669Z" fill="#FFB8B8"/>
<path d="M454.383 183.19C454.029 182.849 453.747 182.441 453.552 181.989C453.358 181.538 453.255 181.053 453.249 180.562L451.873 82.2093C451.79 77.2062 453.296 72.3056 456.174 68.2114C459.052 64.1173 463.155 61.0403 467.892 59.4225C469.803 50.7537 479.978 49.6679 485.909 49.7977C487.389 49.8295 488.84 50.2177 490.139 50.9293C491.437 51.6409 492.544 52.655 493.367 53.8855L497.619 60.2602L506.99 65.7509C511.327 68.2811 514.748 72.1229 516.76 76.722C518.771 81.3212 519.269 86.44 518.181 91.3403L516.738 97.8998C511.658 121.117 512.141 145.205 518.149 168.2L521.052 179.264C521.203 179.84 521.215 180.444 521.085 181.026C520.955 181.607 520.688 182.149 520.306 182.607C519.924 183.064 519.438 183.423 518.889 183.655C518.34 183.886 517.743 183.983 517.149 183.938L513.777 183.678C512.902 183.612 512.078 183.239 511.45 182.626C510.822 182.013 510.431 181.198 510.344 180.325L509.786 174.747C509.776 174.645 509.728 174.55 509.652 174.481C509.575 174.412 509.476 174.374 509.373 174.374C509.27 174.374 509.17 174.412 509.094 174.481C509.018 174.55 508.97 174.645 508.959 174.747L508.419 180.147C508.328 181.06 507.905 181.906 507.229 182.527C506.554 183.147 505.674 183.498 504.757 183.512L457.045 184.246C457.025 184.246 457.005 184.247 456.986 184.247C456.013 184.248 455.079 183.869 454.383 183.19Z" fill="#3F3D56"/>
<path d="M480.711 34.828C480.795 37.7111 482.797 39.3791 485.256 40.8892C487.714 42.3993 490.588 43.0541 493.404 43.6857C493.782 43.8864 494.206 43.9864 494.634 43.9759C495.062 43.9654 495.48 43.8448 495.848 43.6257C496.215 43.4067 496.521 43.0966 496.734 42.7253C496.947 42.3541 497.06 41.9342 497.064 41.5063L499.646 31.6885C500.56 28.5523 501.224 25.349 501.634 22.1084C502.256 15.8729 500.778 9.16516 496.423 4.65678C492.069 0.148409 484.518 -1.45312 479.3 2.02051C473.108 -5.88454 444.803 11.5807 451.785 17.0777C453.027 18.0556 454.926 16.8182 456.503 16.6982C458.079 16.5783 459.846 16.8555 460.848 18.0785C462.156 19.6763 461.586 22.0564 462.125 24.0497C462.348 24.751 462.708 25.4012 463.184 25.9629C463.66 26.5246 464.242 26.9866 464.897 27.3223C465.552 27.658 466.267 27.8606 467.001 27.9187C467.735 27.9767 468.474 27.889 469.173 27.6605C470.477 27.0184 471.703 26.2304 472.829 25.3116C474.038 24.5065 475.566 23.9116 476.928 24.4194C478.722 25.0887 479.359 27.2846 479.522 29.1921C479.795 31.0946 480.192 32.9772 480.711 34.828Z" fill="#2F2E41"/>
<path opacity="0.2" d="M475.946 89.4886L472.622 130.177L455.176 172.527L480.93 131.008L475.946 89.4886Z" fill="black"/>
<path d="M451.097 188.298C452.049 187.533 452.822 186.57 453.362 185.474C453.901 184.379 454.194 183.179 454.219 181.959C454.244 180.738 454.001 179.527 453.507 178.411C453.013 177.294 452.281 176.299 451.361 175.497L462.475 147.981L447.353 151.033L439.117 176.694C437.87 178.329 437.266 180.363 437.42 182.413C437.574 184.462 438.474 186.384 439.951 187.815C441.427 189.245 443.378 190.084 445.432 190.173C447.486 190.262 449.502 189.595 451.097 188.298V188.298Z" fill="#FFB8B8"/>
<path d="M450.288 176.162L441.728 173.079C440.846 172.756 440.117 172.115 439.684 171.283C439.251 170.45 439.146 169.485 439.389 168.578L453.51 116.913L455.663 70.2181C455.728 68.8087 456.072 67.4262 456.676 66.1511C457.281 64.876 458.132 63.7336 459.182 62.7905C460.232 61.8474 461.459 61.1223 462.792 60.6574C464.124 60.1925 465.536 59.997 466.945 60.0824C468.354 60.1678 469.732 60.5323 470.999 61.1547C472.266 61.7772 473.396 62.6451 474.324 63.7081C475.253 64.7711 475.96 66.0079 476.406 67.3466C476.851 68.6854 477.026 70.0993 476.92 71.5063L473.075 122.636L455.083 173.885C454.81 174.66 454.29 175.323 453.603 175.773C452.916 176.223 452.1 176.435 451.281 176.376C450.942 176.35 450.607 176.278 450.288 176.162Z" fill="#3F3D56"/>
<path d="M538.503 190.996C539.087 189.924 539.429 188.737 539.505 187.519C539.58 186.301 539.388 185.08 538.941 183.944C538.493 182.808 537.802 181.784 536.916 180.944C536.03 180.104 534.971 179.468 533.812 179.082L533.462 149.41L520.685 158.05L522.976 184.902C522.455 186.891 522.682 189.001 523.614 190.833C524.546 192.665 526.117 194.092 528.031 194.843C529.945 195.594 532.068 195.617 533.999 194.909C535.929 194.2 537.531 192.808 538.503 190.996L538.503 190.996Z" fill="#FFB8B8"/>
<path d="M533.079 180.11L523.991 180.56C523.053 180.602 522.133 180.292 521.413 179.69C520.692 179.088 520.223 178.238 520.098 177.308L513.214 124.193L497.201 80.2744C496.718 78.9488 496.503 77.5405 496.569 76.1311C496.635 74.7218 496.981 73.3397 497.586 72.0651C498.192 70.7905 499.044 69.6489 500.095 68.7067C501.146 67.7644 502.373 67.0404 503.706 66.5766C505.039 66.1128 506.451 65.9185 507.86 66.005C509.269 66.0915 510.647 66.4572 511.913 67.0806C513.179 67.704 514.309 68.5729 515.236 69.6366C516.164 70.7003 516.87 71.9376 517.315 73.2767L533.475 121.94L536.626 176.162C536.673 176.981 536.449 177.793 535.988 178.473C535.528 179.153 534.857 179.663 534.078 179.924C533.755 180.031 533.419 180.093 533.079 180.11Z" fill="#3F3D56"/>
<path d="M642.169 347.881H325.645C325.425 347.881 325.214 347.794 325.058 347.638C324.902 347.482 324.814 347.271 324.814 347.051C324.814 346.831 324.902 346.62 325.058 346.464C325.214 346.308 325.425 346.221 325.645 346.221H642.169C642.389 346.221 642.601 346.308 642.757 346.464C642.912 346.62 643 346.831 643 347.051C643 347.271 642.912 347.482 642.757 347.638C642.601 347.794 642.389 347.881 642.169 347.881Z" fill="#3F3D56"/>
<path d="M268.521 168.603C263.749 168.603 259.955 167.185 257.242 164.387C251.109 158.064 251.493 145.875 251.802 136.081C251.892 133.232 251.976 130.541 251.891 128.286L251.89 128.252C251.912 123.848 253.671 119.629 256.787 116.514C259.902 113.399 264.121 111.638 268.528 111.614H308.086C312.851 111.614 316.642 113.03 319.353 115.824C325.486 122.142 325.106 134.328 324.801 144.119C324.712 146.975 324.627 149.672 324.715 151.93C324.699 156.341 322.942 160.568 319.825 163.69C316.707 166.813 312.482 168.579 308.069 168.603H268.521ZM253.552 128.24C253.639 130.549 253.553 133.262 253.463 136.134C253.164 145.614 252.792 157.413 258.435 163.231C260.857 165.728 264.156 166.942 268.521 166.942H308.067C312.035 166.921 315.836 165.336 318.642 162.531C321.448 159.725 323.034 155.927 323.054 151.96C322.965 149.678 323.05 146.953 323.14 144.068C323.435 134.59 323.803 122.793 318.161 116.98C315.741 114.487 312.445 113.274 308.086 113.274H268.53C264.566 113.297 260.769 114.88 257.965 117.682C255.161 120.484 253.575 124.278 253.552 128.24Z" fill="#3F3D56"/>
<path d="M54.075 61.0606C47.1387 61.0186 40.3533 59.0321 34.4904 55.327C25.9013 49.9924 19.4159 41.4485 17.5654 33.0308L17.3799 32.187L19.701 31.7718C37.9723 27.7411 58.6383 40.73 63.0655 59.0386L63.2596 59.8414L62.4574 60.0397C59.715 60.7181 56.9002 61.0609 54.075 61.0606ZM19.3892 33.5149C21.3828 41.2369 27.4335 48.9885 35.3674 53.9164C43.0384 58.8234 52.3344 60.5127 61.2425 58.6185C56.6105 41.5613 37.2145 29.5917 20.0436 33.3974L19.3892 33.5149Z" fill="#3F3D56"/>
<path d="M31.0274 155.427C25.592 155.427 21.1761 152.996 18.5836 148.561C17.1305 145.981 16.3666 143.07 16.3657 140.109C16.3648 137.148 17.1268 134.237 18.5783 131.656C21.2123 127.145 25.7334 124.698 31.3171 124.784H84.0244C89.5892 124.713 94.1137 127.149 96.7493 131.665C98.2009 134.245 98.9633 137.156 98.963 140.116C98.9628 143.077 98.1998 145.987 96.7478 148.567C94.1133 153.073 89.59 155.479 84.0119 155.425H31.3036C31.2112 155.426 31.1192 155.427 31.0274 155.427ZM31.0582 126.443C26.2109 126.443 22.2953 128.585 20.0133 132.493C18.7056 134.819 18.0192 137.441 18.0201 140.109C18.021 142.776 18.7091 145.398 20.0183 147.723C22.3388 151.693 26.3345 153.842 31.2912 153.764H84.0244C88.9862 153.843 92.9943 151.695 95.3132 147.729C96.6213 145.405 97.3086 142.783 97.3087 140.116C97.3089 137.449 96.622 134.827 95.3141 132.502C92.9937 128.526 88.9848 126.385 84.0361 126.445H31.2997C31.2191 126.443 31.1382 126.443 31.0582 126.443H31.0582Z" fill="#3F3D56"/>
<path d="M282.047 131.36H265.431C264.33 131.36 263.273 130.923 262.494 130.144C261.715 129.366 261.277 128.31 261.277 127.209C261.277 126.107 261.715 125.051 262.494 124.273C263.273 123.494 264.33 123.057 265.431 123.057H282.047C283.148 123.057 284.205 123.494 284.984 124.273C285.763 125.051 286.2 126.107 286.2 127.209C286.2 128.31 285.763 129.366 284.984 130.144C284.205 130.923 283.148 131.36 282.047 131.36Z" fill="#F9A826"/>
<path d="M282.047 144.647H265.431C264.33 144.647 263.273 144.209 262.494 143.431C261.715 142.652 261.277 141.596 261.277 140.495C261.277 139.394 261.715 138.337 262.494 137.559C263.273 136.78 264.33 136.343 265.431 136.343H282.047C283.148 136.343 284.205 136.78 284.984 137.559C285.763 138.337 286.2 139.394 286.2 140.495C286.2 141.596 285.763 142.652 284.984 143.431C284.205 144.209 283.148 144.647 282.047 144.647Z" fill="#F9A826"/>
<path d="M282.047 157.933H265.431C264.33 157.933 263.273 157.495 262.494 156.717C261.715 155.938 261.277 154.882 261.277 153.781C261.277 152.68 261.715 151.624 262.494 150.845C263.273 150.066 264.33 149.629 265.431 149.629H282.047C283.148 149.629 284.205 150.066 284.984 150.845C285.763 151.624 286.2 152.68 286.2 153.781C286.2 154.882 285.763 155.938 284.984 156.717C284.205 157.495 283.148 157.933 282.047 157.933Z" fill="#F9A826"/>
<path d="M311.124 131.36H294.508C293.407 131.36 292.35 130.923 291.571 130.144C290.792 129.366 290.354 128.31 290.354 127.209C290.354 126.107 290.792 125.051 291.571 124.273C292.35 123.494 293.407 123.057 294.508 123.057H311.124C312.225 123.057 313.282 123.494 314.061 124.273C314.84 125.051 315.278 126.107 315.278 127.209C315.278 128.31 314.84 129.366 314.061 130.144C313.282 130.923 312.225 131.36 311.124 131.36Z" fill="#F9A826"/>
<path d="M311.124 144.647H294.508C293.407 144.647 292.35 144.209 291.571 143.431C290.792 142.652 290.354 141.596 290.354 140.495C290.354 139.394 290.792 138.337 291.571 137.559C292.35 136.78 293.407 136.343 294.508 136.343H311.124C312.225 136.343 313.282 136.78 314.061 137.559C314.84 138.337 315.278 139.394 315.278 140.495C315.278 141.596 314.84 142.652 314.061 143.431C313.282 144.209 312.225 144.647 311.124 144.647Z" fill="#F9A826"/>
<path d="M311.124 157.933H294.508C293.407 157.933 292.35 157.495 291.571 156.717C290.792 155.938 290.354 154.882 290.354 153.781C290.354 152.68 290.792 151.624 291.571 150.845C292.35 150.066 293.407 149.629 294.508 149.629H311.124C312.225 149.629 313.282 150.066 314.061 150.845C314.84 151.624 315.278 152.68 315.278 153.781C315.278 154.882 314.84 155.938 314.061 156.717C313.282 157.495 312.225 157.933 311.124 157.933Z" fill="#F9A826"/>
<path d="M348.924 72.3542H0.99707V74.015H348.924V72.3542Z" fill="#3F3D56"/>
<path d="M321.509 211.492H27.4155C20.1469 211.484 13.1785 208.594 8.03887 203.457C2.89925 198.32 0.0082105 191.355 0 184.09V41.2641C0.0082105 33.9989 2.89925 27.0338 8.03887 21.8966C13.1785 16.7593 20.1469 13.8697 27.4155 13.8615H321.509C328.777 13.8697 335.745 16.7593 340.885 21.8966C346.025 27.0338 348.916 33.9989 348.924 41.2641V184.09C348.916 191.355 346.025 198.32 340.885 203.457C335.745 208.594 328.777 211.484 321.509 211.492ZM27.4155 15.5222C20.5875 15.53 14.0414 18.2446 9.21325 23.0704C4.38514 27.8963 1.6693 34.4393 1.66154 41.2641V184.09C1.6693 190.915 4.38515 197.458 9.21326 202.283C14.0414 207.109 20.5875 209.824 27.4155 209.832H321.509C328.337 209.824 334.883 207.109 339.711 202.283C344.539 197.458 347.255 190.915 347.262 184.09V41.2641C347.255 34.4393 344.539 27.8962 339.711 23.0704C334.883 18.2445 328.337 15.53 321.509 15.5222H27.4155Z" fill="#3F3D56"/>
<path d="M129.309 107.164C129.309 107.929 129.029 108.587 128.469 109.138C127.909 109.679 127.102 110.015 126.047 110.146V111.714H124.647V110.188C123.956 110.151 123.298 110.029 122.673 109.824C122.048 109.619 121.544 109.367 121.161 109.068L121.931 107.36C122.286 107.621 122.701 107.841 123.177 108.018C123.653 108.195 124.143 108.307 124.647 108.354V106.016C123.984 105.857 123.424 105.68 122.967 105.484C122.51 105.288 122.127 105.003 121.819 104.63C121.511 104.247 121.357 103.743 121.357 103.118C121.357 102.343 121.637 101.681 122.197 101.13C122.766 100.57 123.583 100.229 124.647 100.108V98.5539H126.047V100.08C127.195 100.173 128.142 100.458 128.889 100.934L128.189 102.656C127.489 102.255 126.775 102.012 126.047 101.928V104.308C126.7 104.457 127.251 104.63 127.699 104.826C128.156 105.013 128.539 105.297 128.847 105.68C129.155 106.053 129.309 106.548 129.309 107.164ZM123.611 103.006C123.611 103.239 123.7 103.431 123.877 103.58C124.054 103.729 124.311 103.855 124.647 103.958V101.97C124.292 102.054 124.031 102.189 123.863 102.376C123.695 102.553 123.611 102.763 123.611 103.006ZM126.047 108.298C126.383 108.223 126.635 108.102 126.803 107.934C126.971 107.766 127.055 107.565 127.055 107.332C127.055 107.099 126.966 106.907 126.789 106.758C126.621 106.609 126.374 106.478 126.047 106.366V108.298ZM133.886 100.234V110.034H131.618V102.054H129.658V100.234H133.886ZM139.789 110.202C138.977 110.202 138.253 110.001 137.619 109.6C136.984 109.199 136.485 108.62 136.121 107.864C135.766 107.099 135.589 106.189 135.589 105.134C135.589 104.079 135.766 103.174 136.121 102.418C136.485 101.653 136.984 101.069 137.619 100.668C138.253 100.267 138.977 100.066 139.789 100.066C140.601 100.066 141.324 100.267 141.959 100.668C142.593 101.069 143.088 101.653 143.443 102.418C143.807 103.174 143.989 104.079 143.989 105.134C143.989 106.189 143.807 107.099 143.443 107.864C143.088 108.62 142.593 109.199 141.959 109.6C141.324 110.001 140.601 110.202 139.789 110.202ZM139.789 108.284C140.386 108.284 140.853 108.027 141.189 107.514C141.534 107.001 141.707 106.207 141.707 105.134C141.707 104.061 141.534 103.267 141.189 102.754C140.853 102.241 140.386 101.984 139.789 101.984C139.201 101.984 138.734 102.241 138.389 102.754C138.053 103.267 137.885 104.061 137.885 105.134C137.885 106.207 138.053 107.001 138.389 107.514C138.734 108.027 139.201 108.284 139.789 108.284ZM149.29 110.202C148.478 110.202 147.755 110.001 147.12 109.6C146.486 109.199 145.986 108.62 145.622 107.864C145.268 107.099 145.09 106.189 145.09 105.134C145.09 104.079 145.268 103.174 145.622 102.418C145.986 101.653 146.486 101.069 147.12 100.668C147.755 100.267 148.478 100.066 149.29 100.066C150.102 100.066 150.826 100.267 151.46 100.668C152.095 101.069 152.59 101.653 152.944 102.418C153.308 103.174 153.49 104.079 153.49 105.134C153.49 106.189 153.308 107.099 152.944 107.864C152.59 108.62 152.095 109.199 151.46 109.6C150.826 110.001 150.102 110.202 149.29 110.202ZM149.29 108.284C149.888 108.284 150.354 108.027 150.69 107.514C151.036 107.001 151.208 106.207 151.208 105.134C151.208 104.061 151.036 103.267 150.69 102.754C150.354 102.241 149.888 101.984 149.29 101.984C148.702 101.984 148.236 102.241 147.89 102.754C147.554 103.267 147.386 104.061 147.386 105.134C147.386 106.207 147.554 107.001 147.89 107.514C148.236 108.027 148.702 108.284 149.29 108.284ZM158.792 110.202C157.98 110.202 157.257 110.001 156.622 109.6C155.988 109.199 155.488 108.62 155.124 107.864C154.77 107.099 154.592 106.189 154.592 105.134C154.592 104.079 154.77 103.174 155.124 102.418C155.488 101.653 155.988 101.069 156.622 100.668C157.257 100.267 157.98 100.066 158.792 100.066C159.604 100.066 160.328 100.267 160.962 100.668C161.597 101.069 162.092 101.653 162.446 102.418C162.81 103.174 162.992 104.079 162.992 105.134C162.992 106.189 162.81 107.099 162.446 107.864C162.092 108.62 161.597 109.199 160.962 109.6C160.328 110.001 159.604 110.202 158.792 110.202ZM158.792 108.284C159.39 108.284 159.856 108.027 160.192 107.514C160.538 107.001 160.71 106.207 160.71 105.134C160.71 104.061 160.538 103.267 160.192 102.754C159.856 102.241 159.39 101.984 158.792 101.984C158.204 101.984 157.738 102.241 157.392 102.754C157.056 103.267 156.888 104.061 156.888 105.134C156.888 106.207 157.056 107.001 157.392 107.514C157.738 108.027 158.204 108.284 158.792 108.284ZM175.045 105.988H172.609V108.368H170.803V105.988H168.381V104.28H170.803V101.9H172.609V104.28H175.045V105.988ZM187.643 104.98H189.715V108.956C189.183 109.357 188.567 109.665 187.867 109.88C187.167 110.095 186.462 110.202 185.753 110.202C184.736 110.202 183.821 109.987 183.009 109.558C182.197 109.119 181.558 108.517 181.091 107.752C180.634 106.977 180.405 106.105 180.405 105.134C180.405 104.163 180.634 103.295 181.091 102.53C181.558 101.755 182.202 101.153 183.023 100.724C183.844 100.285 184.768 100.066 185.795 100.066C186.654 100.066 187.433 100.211 188.133 100.5C188.833 100.789 189.421 101.209 189.897 101.76L188.441 103.104C187.741 102.367 186.896 101.998 185.907 101.998C185.282 101.998 184.726 102.129 184.241 102.39C183.756 102.651 183.378 103.02 183.107 103.496C182.836 103.972 182.701 104.518 182.701 105.134C182.701 105.741 182.836 106.282 183.107 106.758C183.378 107.234 183.751 107.607 184.227 107.878C184.712 108.139 185.263 108.27 185.879 108.27C186.532 108.27 187.12 108.13 187.643 107.85V104.98ZM195.042 110.202C194.267 110.202 193.516 110.099 192.788 109.894C192.069 109.679 191.49 109.404 191.052 109.068L191.822 107.36C192.242 107.668 192.741 107.915 193.32 108.102C193.898 108.289 194.477 108.382 195.056 108.382C195.7 108.382 196.176 108.289 196.484 108.102C196.792 107.906 196.946 107.649 196.946 107.332C196.946 107.099 196.852 106.907 196.666 106.758C196.488 106.599 196.255 106.473 195.966 106.38C195.686 106.287 195.303 106.184 194.818 106.072C194.071 105.895 193.46 105.717 192.984 105.54C192.508 105.363 192.097 105.078 191.752 104.686C191.416 104.294 191.248 103.771 191.248 103.118C191.248 102.549 191.402 102.035 191.71 101.578C192.018 101.111 192.48 100.743 193.096 100.472C193.721 100.201 194.482 100.066 195.378 100.066C196.003 100.066 196.614 100.141 197.212 100.29C197.809 100.439 198.332 100.654 198.78 100.934L198.08 102.656C197.174 102.143 196.269 101.886 195.364 101.886C194.729 101.886 194.258 101.989 193.95 102.194C193.651 102.399 193.502 102.67 193.502 103.006C193.502 103.342 193.674 103.594 194.02 103.762C194.374 103.921 194.911 104.079 195.63 104.238C196.376 104.415 196.988 104.593 197.464 104.77C197.94 104.947 198.346 105.227 198.682 105.61C199.027 105.993 199.2 106.511 199.2 107.164C199.2 107.724 199.041 108.237 198.724 108.704C198.416 109.161 197.949 109.525 197.324 109.796C196.698 110.067 195.938 110.202 195.042 110.202ZM202.643 102.082H199.507V100.234H208.047V102.082H204.911V110.034H202.643V102.082ZM140.34 119.544H147.004V121.252H140.34V119.544ZM140.34 123.016H147.004V124.724H140.34V123.016ZM160.358 124.164C160.358 124.929 160.078 125.587 159.518 126.138C158.958 126.679 158.151 127.015 157.096 127.146V128.714H155.696V127.188C155.005 127.151 154.347 127.029 153.722 126.824C153.097 126.619 152.593 126.367 152.21 126.068L152.98 124.36C153.335 124.621 153.75 124.841 154.226 125.018C154.702 125.195 155.192 125.307 155.696 125.354V123.016C155.033 122.857 154.473 122.68 154.016 122.484C153.559 122.288 153.176 122.003 152.868 121.63C152.56 121.247 152.406 120.743 152.406 120.118C152.406 119.343 152.686 118.681 153.246 118.13C153.815 117.57 154.632 117.229 155.696 117.108V115.554H157.096V117.08C158.244 117.173 159.191 117.458 159.938 117.934L159.238 119.656C158.538 119.255 157.824 119.012 157.096 118.928V121.308C157.749 121.457 158.3 121.63 158.748 121.826C159.205 122.013 159.588 122.297 159.896 122.68C160.204 123.053 160.358 123.548 160.358 124.164ZM154.66 120.006C154.66 120.239 154.749 120.431 154.926 120.58C155.103 120.729 155.36 120.855 155.696 120.958V118.97C155.341 119.054 155.08 119.189 154.912 119.376C154.744 119.553 154.66 119.763 154.66 120.006ZM157.096 125.298C157.432 125.223 157.684 125.102 157.852 124.934C158.02 124.766 158.104 124.565 158.104 124.332C158.104 124.099 158.015 123.907 157.838 123.758C157.67 123.609 157.423 123.478 157.096 123.366V125.298ZM164.935 117.234V127.034H162.667V119.054H160.707V117.234H164.935ZM170.417 117.234V127.034H168.149V119.054H166.189V117.234H170.417ZM175.48 120.916C176.861 120.916 177.878 121.191 178.532 121.742C179.194 122.293 179.526 123.03 179.526 123.954C179.526 124.551 179.376 125.097 179.078 125.592C178.779 126.077 178.322 126.469 177.706 126.768C177.099 127.057 176.348 127.202 175.452 127.202C174.761 127.202 174.08 127.113 173.408 126.936C172.745 126.749 172.18 126.488 171.714 126.152L172.61 124.416C172.983 124.696 173.412 124.915 173.898 125.074C174.383 125.223 174.882 125.298 175.396 125.298C175.965 125.298 176.413 125.186 176.74 124.962C177.066 124.738 177.23 124.425 177.23 124.024C177.23 123.604 177.057 123.287 176.712 123.072C176.376 122.857 175.788 122.75 174.948 122.75H172.442L172.946 117.234H178.924V119.054H174.836L174.682 120.916H175.48ZM184.646 127.202C183.834 127.202 183.111 127.001 182.476 126.6C181.841 126.199 181.342 125.62 180.978 124.864C180.623 124.099 180.446 123.189 180.446 122.134C180.446 121.079 180.623 120.174 180.978 119.418C181.342 118.653 181.841 118.069 182.476 117.668C183.111 117.267 183.834 117.066 184.646 117.066C185.458 117.066 186.181 117.267 186.816 117.668C187.451 118.069 187.945 118.653 188.3 119.418C188.664 120.174 188.846 121.079 188.846 122.134C188.846 123.189 188.664 124.099 188.3 124.864C187.945 125.62 187.451 126.199 186.816 126.6C186.181 127.001 185.458 127.202 184.646 127.202ZM184.646 125.284C185.243 125.284 185.71 125.027 186.046 124.514C186.391 124.001 186.564 123.207 186.564 122.134C186.564 121.061 186.391 120.267 186.046 119.754C185.71 119.241 185.243 118.984 184.646 118.984C184.058 118.984 183.591 119.241 183.246 119.754C182.91 120.267 182.742 121.061 182.742 122.134C182.742 123.207 182.91 124.001 183.246 124.514C183.591 125.027 184.058 125.284 184.646 125.284Z" fill="black"/>
</g>
<defs>
<clipPath id="clip0_2_2019">
<rect width="643" height="348" fill="white"/>
</clipPath>
</defs>
</svg>
