<svg width="789" height="516" viewBox="0 0 789 516" fill="none" xmlns="http://www.w3.org/2000/svg">
<g clip-path="url(#clip0_3_1159)">
<path d="M249.152 426.548H11.2949C8.30032 426.545 5.42939 425.354 3.31192 423.236C1.19445 421.119 0.00337016 418.248 0 415.253V92.3525C0.00337017 89.3579 1.19445 86.487 3.31192 84.3695C5.42939 82.2521 8.30032 81.061 11.2949 81.0576H249.152C252.146 81.061 255.017 82.2521 257.135 84.3695C259.252 86.487 260.443 89.3579 260.447 92.3525V415.253C260.443 418.248 259.252 421.119 257.135 423.236C255.017 425.354 252.146 426.545 249.152 426.548Z" fill="white"/>
<path d="M249.152 426.548H11.2949C8.30032 426.545 5.42939 425.354 3.31192 423.236C1.19445 421.119 0.00337016 418.248 0 415.253V92.3525C0.00337017 89.3579 1.19445 86.487 3.31192 84.3695C5.42939 82.2521 8.30032 81.061 11.2949 81.0576H249.152C252.146 81.061 255.017 82.2521 257.135 84.3695C259.252 86.487 260.443 89.3579 260.447 92.3525V415.253C260.443 418.248 259.252 421.119 257.135 423.236C255.017 425.354 252.146 426.545 249.152 426.548ZM11.2949 82.3864C8.65263 82.3894 6.11948 83.4404 4.25112 85.3087C2.38277 87.1771 1.33181 89.7102 1.32881 92.3525V415.253C1.3318 417.896 2.38275 420.429 4.2511 422.297C6.11945 424.165 8.65263 425.216 11.2949 425.219H249.152C251.794 425.216 254.327 424.165 256.196 422.297C258.064 420.429 259.115 417.896 259.118 415.253V92.3525C259.115 89.7102 258.064 87.1771 256.196 85.3087C254.327 83.4404 251.794 82.3894 249.152 82.3864H11.2949Z" fill="#CCCCCC"/>
<path d="M203.008 251.817H35.3771C34.6773 251.818 33.9842 251.68 33.3374 251.413C32.6907 251.146 32.1029 250.754 31.6078 250.26C31.1126 249.765 30.7198 249.178 30.4518 248.531C30.1838 247.885 30.0459 247.192 30.0459 246.492C30.0459 245.792 30.1838 245.099 30.4518 244.453C30.7198 243.806 31.1126 243.219 31.6078 242.725C32.1029 242.23 32.6907 241.838 33.3374 241.571C33.9842 241.304 34.6773 241.167 35.3771 241.167H203.008C204.419 241.169 205.771 241.731 206.768 242.729C207.766 243.728 208.326 245.081 208.326 246.492C208.326 247.903 207.766 249.256 206.768 250.255C205.771 251.253 204.419 251.815 203.008 251.817Z" fill="#E6E6E6"/>
<path d="M224.972 269.787H35.3771C34.6773 269.788 33.9842 269.651 33.3374 269.384C32.6907 269.117 32.1029 268.724 31.6078 268.23C31.1126 267.735 30.7198 267.148 30.4518 266.502C30.1838 265.855 30.0459 265.162 30.0459 264.463C30.0459 263.763 30.1838 263.07 30.4518 262.423C30.7198 261.777 31.1126 261.19 31.6078 260.695C32.1029 260.201 32.6907 259.809 33.3374 259.541C33.9842 259.274 34.6773 259.137 35.3771 259.138H224.972C225.671 259.137 226.365 259.274 227.011 259.541C227.658 259.809 228.246 260.201 228.741 260.695C229.236 261.19 229.629 261.777 229.897 262.423C230.165 263.07 230.303 263.763 230.303 264.463C230.303 265.162 230.165 265.855 229.897 266.502C229.629 267.148 229.236 267.735 228.741 268.23C228.246 268.724 227.658 269.117 227.011 269.384C226.365 269.651 225.671 269.788 224.972 269.787Z" fill="#E6E6E6"/>
<path d="M203.008 211.796H35.3771C34.6773 211.797 33.9842 211.66 33.3374 211.393C32.6907 211.125 32.1029 210.733 31.6078 210.239C31.1126 209.744 30.7198 209.157 30.4518 208.511C30.1838 207.864 30.0459 207.171 30.0459 206.471C30.0459 205.772 30.1838 205.079 30.4518 204.432C30.7198 203.786 31.1126 203.198 31.6078 202.704C32.1029 202.209 32.6907 201.817 33.3374 201.55C33.9842 201.283 34.6773 201.146 35.3771 201.147H203.008C204.419 201.148 205.771 201.71 206.768 202.709C207.766 203.707 208.326 205.06 208.326 206.471C208.326 207.882 207.766 209.236 206.768 210.234C205.771 211.232 204.419 211.794 203.008 211.796Z" fill="#E6E6E6"/>
<path d="M224.972 229.767H35.3771C34.6773 229.768 33.9842 229.63 33.3374 229.363C32.6907 229.096 32.1029 228.704 31.6078 228.209C31.1126 227.715 30.7198 227.128 30.4518 226.481C30.1838 225.835 30.0459 225.142 30.0459 224.442C30.0459 223.742 30.1838 223.049 30.4518 222.403C30.7198 221.756 31.1126 221.169 31.6078 220.675C32.1029 220.18 32.6907 219.788 33.3374 219.521C33.9842 219.254 34.6773 219.117 35.3771 219.117H224.972C225.671 219.117 226.365 219.254 227.011 219.521C227.658 219.788 228.246 220.18 228.741 220.675C229.236 221.169 229.629 221.756 229.897 222.403C230.165 223.049 230.303 223.742 230.303 224.442C230.303 225.142 230.165 225.835 229.897 226.481C229.629 227.128 229.236 227.715 228.741 228.209C228.246 228.704 227.658 229.096 227.011 229.363C226.365 229.63 225.671 229.768 224.972 229.767Z" fill="#E6E6E6"/>
<path d="M203.008 170.959H35.3771C34.6773 170.959 33.9842 170.822 33.3374 170.555C32.6907 170.288 32.1029 169.896 31.6078 169.401C31.1126 168.907 30.7198 168.32 30.4518 167.673C30.1838 167.027 30.0459 166.334 30.0459 165.634C30.0459 164.934 30.1838 164.241 30.4518 163.595C30.7198 162.948 31.1126 162.361 31.6078 161.867C32.1029 161.372 32.6907 160.98 33.3374 160.713C33.9842 160.446 34.6773 160.308 35.3771 160.309H203.008C204.419 160.311 205.771 160.873 206.768 161.871C207.766 162.87 208.326 164.223 208.326 165.634C208.326 167.045 207.766 168.398 206.768 169.397C205.771 170.395 204.419 170.957 203.008 170.959Z" fill="#E6E6E6"/>
<path d="M224.972 188.929H35.3771C34.6773 188.93 33.9842 188.793 33.3374 188.526C32.6907 188.259 32.1029 187.867 31.6078 187.372C31.1126 186.878 30.7198 186.29 30.4518 185.644C30.1838 184.997 30.0459 184.304 30.0459 183.605C30.0459 182.905 30.1838 182.212 30.4518 181.565C30.7198 180.919 31.1126 180.332 31.6078 179.837C32.1029 179.343 32.6907 178.951 33.3374 178.683C33.9842 178.416 34.6773 178.279 35.3771 178.28H224.972C225.671 178.279 226.365 178.416 227.011 178.683C227.658 178.951 228.246 179.343 228.741 179.837C229.236 180.332 229.629 180.919 229.897 181.565C230.165 182.212 230.303 182.905 230.303 183.605C230.303 184.304 230.165 184.997 229.897 185.644C229.629 186.29 229.236 186.878 228.741 187.372C228.246 187.867 227.658 188.259 227.011 188.526C226.365 188.793 225.671 188.93 224.972 188.929Z" fill="#E6E6E6"/>
<path d="M203.008 311.091H35.3771C33.9649 311.091 32.6106 310.53 31.612 309.531C30.6135 308.533 30.0525 307.178 30.0525 305.766C30.0525 304.354 30.6135 303 31.612 302.001C32.6106 301.002 33.9649 300.441 35.3771 300.441H203.008C204.42 300.441 205.774 301.002 206.773 302.001C207.771 303 208.332 304.354 208.332 305.766C208.332 307.178 207.771 308.533 206.773 309.531C205.774 310.53 204.42 311.091 203.008 311.091Z" fill="#E6E6E6"/>
<path d="M224.972 329.061H35.3771C33.9649 329.061 32.6106 328.5 31.612 327.502C30.6135 326.503 30.0525 325.149 30.0525 323.736C30.0525 322.324 30.6135 320.97 31.612 319.971C32.6106 318.973 33.9649 318.412 35.3771 318.412H224.972C226.384 318.412 227.738 318.973 228.737 319.971C229.735 320.97 230.296 322.324 230.296 323.736C230.296 325.149 229.735 326.503 228.737 327.502C227.738 328.5 226.384 329.061 224.972 329.061Z" fill="#E6E6E6"/>
<path d="M203.008 370.365H35.3771C33.9649 370.365 32.6106 369.804 31.612 368.805C30.6135 367.806 30.0525 366.452 30.0525 365.04C30.0525 363.628 30.6135 362.273 31.612 361.275C32.6106 360.276 33.9649 359.715 35.3771 359.715H203.008C204.42 359.715 205.774 360.276 206.773 361.275C207.771 362.273 208.332 363.628 208.332 365.04C208.332 366.452 207.771 367.806 206.773 368.805C205.774 369.804 204.42 370.365 203.008 370.365Z" fill="#E6E6E6"/>
<path d="M224.972 388.335H35.3771C33.9649 388.335 32.6106 387.774 31.612 386.776C30.6135 385.777 30.0525 384.423 30.0525 383.01C30.0525 381.598 30.6135 380.244 31.612 379.245C32.6106 378.247 33.9649 377.686 35.3771 377.686H224.972C226.384 377.686 227.738 378.247 228.737 379.245C229.735 380.244 230.296 381.598 230.296 383.01C230.296 384.423 229.735 385.777 228.737 386.776C227.738 387.774 226.384 388.335 224.972 388.335Z" fill="#E6E6E6"/>
<path d="M558.765 345.491L320.908 345.491C317.913 345.488 315.042 344.296 312.925 342.179C310.807 340.061 309.616 337.191 309.613 334.196L309.613 11.2951C309.616 8.30053 310.807 5.42959 312.924 3.31212C315.042 1.19464 317.913 0.00355927 320.907 0.000186939L558.764 0C561.759 0.003368 564.63 1.19444 566.747 3.31191C568.865 5.42938 570.056 8.30032 570.059 11.2949L570.06 334.196C570.056 337.19 568.865 340.061 566.748 342.179C564.63 344.296 561.759 345.487 558.765 345.491Z" fill="white"/>
<path d="M558.765 345.491L320.908 345.491C317.913 345.488 315.042 344.296 312.925 342.179C310.807 340.061 309.616 337.191 309.613 334.196L309.613 11.2951C309.616 8.30053 310.807 5.42959 312.924 3.31212C315.042 1.19464 317.913 0.00355927 320.907 0.000186939L558.764 0C561.759 0.003368 564.63 1.19444 566.747 3.31191C568.865 5.42938 570.056 8.30032 570.059 11.2949L570.06 334.196C570.056 337.19 568.865 340.061 566.748 342.179C564.63 344.296 561.759 345.487 558.765 345.491ZM320.907 1.329C318.265 1.33199 315.732 2.38296 313.864 4.25131C311.995 6.11967 310.944 8.65284 310.941 11.2951L310.942 334.196C310.945 336.838 311.996 339.371 313.864 341.24C315.732 343.108 318.265 344.159 320.908 344.162L558.765 344.162C561.407 344.159 563.94 343.108 565.809 341.24C567.677 339.371 568.728 336.838 568.731 334.196L568.731 11.2949C568.728 8.65264 567.677 6.11947 565.808 4.25111C563.94 2.38276 561.407 1.3318 558.764 1.32881L320.907 1.329Z" fill="#CCCCCC"/>
<path d="M429.467 116.012L340.198 116.012C339.498 116.013 338.805 115.876 338.158 115.609C337.511 115.341 336.924 114.949 336.429 114.455C335.933 113.96 335.541 113.373 335.273 112.727C335.005 112.08 334.867 111.387 334.867 110.687C334.867 109.988 335.005 109.295 335.273 108.648C335.541 108.002 335.933 107.415 336.429 106.92C336.924 106.426 337.511 106.033 338.158 105.766C338.805 105.499 339.498 105.362 340.198 105.363L429.467 105.363C430.879 105.363 432.234 105.924 433.232 106.922C434.231 107.921 434.792 109.275 434.792 110.687C434.792 112.1 434.231 113.454 433.232 114.452C432.234 115.451 430.879 116.012 429.467 116.012Z" fill="#E6E6E6"/>
<path d="M429.467 132.347L340.198 132.347C339.498 132.348 338.805 132.211 338.158 131.944C337.511 131.676 336.924 131.284 336.429 130.79C335.933 130.295 335.541 129.708 335.273 129.062C335.005 128.415 334.867 127.722 334.867 127.022C334.867 126.323 335.005 125.63 335.273 124.983C335.541 124.337 335.933 123.75 336.429 123.255C336.924 122.761 337.511 122.368 338.158 122.101C338.805 121.834 339.498 121.697 340.198 121.698L429.467 121.698C430.879 121.698 432.234 122.259 433.232 123.257C434.231 124.256 434.792 125.61 434.792 127.022C434.792 128.435 434.231 129.789 433.232 130.787C432.234 131.786 430.879 132.347 429.467 132.347Z" fill="#E6E6E6"/>
<path d="M429.467 148.682L340.198 148.682C339.498 148.683 338.805 148.546 338.158 148.279C337.511 148.011 336.924 147.619 336.429 147.125C335.933 146.63 335.541 146.043 335.273 145.397C335.005 144.75 334.867 144.057 334.867 143.357C334.867 142.658 335.005 141.965 335.273 141.318C335.541 140.672 335.933 140.085 336.429 139.59C336.924 139.095 337.511 138.703 338.158 138.436C338.805 138.169 339.498 138.032 340.198 138.033L429.467 138.033C430.879 138.033 432.234 138.594 433.232 139.592C434.231 140.591 434.792 141.945 434.792 143.357C434.792 144.77 434.231 146.124 433.232 147.122C432.234 148.121 430.879 148.682 429.467 148.682Z" fill="#E6E6E6"/>
<path d="M535.645 264.66L446.375 264.66C445.675 264.661 444.982 264.524 444.335 264.257C443.689 263.989 443.101 263.597 442.606 263.103C442.111 262.608 441.718 262.021 441.45 261.375C441.182 260.728 441.044 260.035 441.044 259.335C441.044 258.636 441.182 257.943 441.45 257.296C441.718 256.65 442.111 256.063 442.606 255.568C443.101 255.074 443.689 254.681 444.335 254.414C444.982 254.147 445.675 254.01 446.375 254.011L535.645 254.011C537.057 254.011 538.411 254.572 539.41 255.57C540.408 256.569 540.969 257.923 540.969 259.335C540.969 260.748 540.408 262.102 539.41 263.1C538.411 264.099 537.057 264.66 535.645 264.66Z" fill="#E6E6E6"/>
<path d="M512.62 170.759L344.99 170.759C343.579 170.757 342.226 170.196 341.229 169.197C340.232 168.199 339.672 166.846 339.672 165.435C339.672 164.024 340.232 162.67 341.229 161.672C342.226 160.674 343.579 160.112 344.99 160.11L512.62 160.11C514.033 160.11 515.387 160.671 516.385 161.669C517.384 162.668 517.945 164.022 517.945 165.434C517.945 166.847 517.384 168.201 516.385 169.2C515.387 170.198 514.033 170.759 512.62 170.759Z" fill="#E6E6E6"/>
<path d="M534.584 188.73L344.99 188.73C344.29 188.731 343.597 188.594 342.95 188.327C342.303 188.059 341.716 187.667 341.221 187.173C340.725 186.678 340.333 186.091 340.065 185.445C339.797 184.798 339.659 184.105 339.659 183.405C339.659 182.706 339.797 182.013 340.065 181.366C340.333 180.72 340.725 180.132 341.221 179.638C341.716 179.143 342.303 178.751 342.95 178.484C343.597 178.217 344.29 178.08 344.99 178.081L534.584 178.081C535.997 178.081 537.351 178.642 538.35 179.64C539.348 180.639 539.909 181.993 539.909 183.405C539.909 184.817 539.348 186.172 538.35 187.17C537.351 188.169 535.997 188.73 534.584 188.73Z" fill="#E6E6E6"/>
<path d="M534.419 62.8895L340.324 62.8897C339.608 62.8906 338.899 62.7539 338.236 62.4875C337.574 62.221 336.973 61.8302 336.466 61.3371C335.959 60.844 335.557 60.2585 335.282 59.614C335.008 58.9695 334.867 58.2786 334.867 57.5809C334.867 56.8832 335.008 56.1923 335.282 55.5478C335.557 54.9033 335.959 54.3178 336.466 53.8247C336.973 53.3317 337.574 52.9407 338.236 52.6743C338.899 52.4079 339.608 52.2713 340.324 52.2721L534.419 52.272C535.865 52.272 537.252 52.8313 538.274 53.8269C539.296 54.8225 539.87 56.1728 539.87 57.5807C539.87 58.9887 539.296 60.339 538.274 61.3346C537.252 62.3302 535.865 62.8895 534.419 62.8895Z" fill="#E6E6E6"/>
<path d="M534.419 79.2245L340.324 79.2247C339.608 79.2255 338.899 79.0888 338.236 78.8224C337.574 78.556 336.973 78.1651 336.466 77.6721C335.959 77.179 335.557 76.5935 335.282 75.949C335.008 75.3044 334.867 74.6136 334.867 73.9159C334.867 73.2181 335.008 72.5273 335.282 71.8828C335.557 71.2382 335.959 70.6527 336.466 70.1597C336.973 69.6666 337.574 69.2757 338.236 69.0093C338.899 68.7429 339.608 68.6062 340.324 68.6071L534.419 68.6069C535.865 68.6069 537.252 69.1662 538.274 70.1618C539.296 71.1574 539.87 72.5077 539.87 73.9157C539.87 75.3237 539.296 76.674 538.274 77.6696C537.252 78.6652 535.865 79.2245 534.419 79.2245Z" fill="#E6E6E6"/>
<path d="M534.419 95.5594L340.324 95.5596C339.608 95.5605 338.899 95.4238 338.236 95.1574C337.574 94.891 336.973 94.5001 336.466 94.007C335.959 93.514 335.557 92.9284 335.282 92.2839C335.008 91.6394 334.867 90.9485 334.867 90.2508C334.867 89.5531 335.008 88.8622 335.282 88.2177C335.557 87.5732 335.959 86.9877 336.466 86.4946C336.973 86.0016 337.574 85.6107 338.236 85.3443C338.899 85.0779 339.608 84.9412 340.324 84.942L534.419 84.9419C535.865 84.9419 537.252 85.5012 538.274 86.4968C539.296 87.4924 539.87 88.8427 539.87 90.2507C539.87 91.6586 539.296 93.0089 538.274 94.0045C537.252 95.0001 535.865 95.5594 534.419 95.5594Z" fill="#E6E6E6"/>
<path d="M512.62 230.033L344.99 230.033C343.579 230.031 342.226 229.47 341.229 228.471C340.232 227.473 339.672 226.12 339.672 224.709C339.672 223.298 340.232 221.944 341.229 220.946C342.226 219.947 343.579 219.386 344.99 219.384L512.62 219.384C514.033 219.384 515.387 219.945 516.386 220.943C517.384 221.942 517.945 223.296 517.945 224.708C517.945 226.121 517.384 227.475 516.386 228.473C515.387 229.472 514.033 230.033 512.62 230.033Z" fill="#E6E6E6"/>
<path d="M534.584 248.004L344.99 248.004C344.29 248.005 343.597 247.868 342.95 247.6C342.303 247.333 341.716 246.941 341.221 246.447C340.725 245.952 340.333 245.365 340.065 244.718C339.797 244.072 339.659 243.379 339.659 242.679C339.659 241.979 339.797 241.287 340.065 240.64C340.333 239.994 340.725 239.406 341.221 238.912C341.716 238.417 342.303 238.025 342.95 237.758C343.597 237.491 344.29 237.354 344.99 237.355L534.584 237.354C535.997 237.354 537.351 237.915 538.35 238.914C539.348 239.913 539.909 241.267 539.909 242.679C539.909 244.091 539.348 245.446 538.35 246.444C537.351 247.443 535.997 248.004 534.584 248.004Z" fill="#E6E6E6"/>
<path d="M512.62 289.307L344.99 289.307C343.578 289.307 342.223 288.746 341.225 287.748C340.226 286.749 339.665 285.395 339.665 283.982C339.665 282.57 340.226 281.216 341.225 280.217C342.223 279.219 343.578 278.658 344.99 278.658L512.62 278.658C514.033 278.658 515.387 279.219 516.385 280.217C517.384 281.216 517.945 282.57 517.945 283.982C517.945 285.395 517.384 286.749 516.385 287.747C515.387 288.746 514.033 289.307 512.62 289.307Z" fill="#E6E6E6"/>
<path d="M534.584 307.277L344.99 307.278C343.578 307.278 342.223 306.717 341.225 305.718C340.226 304.719 339.665 303.365 339.665 301.953C339.665 300.541 340.226 299.186 341.225 298.188C342.223 297.189 343.578 296.628 344.99 296.628L534.584 296.628C535.997 296.628 537.351 297.189 538.35 298.188C539.348 299.186 539.909 300.541 539.909 301.953C539.909 303.365 539.348 304.719 538.35 305.718C537.351 306.716 535.997 307.277 534.584 307.277Z" fill="#E6E6E6"/>
<path d="M415.253 484.352H177.396C174.402 484.348 171.531 483.157 169.413 481.04C167.296 478.922 166.105 476.051 166.101 473.057V150.156C166.105 147.161 167.296 144.29 169.413 142.173C171.531 140.055 174.402 138.864 177.396 138.861H415.253C418.248 138.864 421.119 140.055 423.236 142.173C425.354 144.29 426.545 147.161 426.548 150.156V473.057C426.545 476.051 425.354 478.922 423.236 481.04C421.119 483.157 418.248 484.348 415.253 484.352Z" fill="white"/>
<path d="M415.253 484.352H177.396C174.402 484.348 171.531 483.157 169.413 481.04C167.296 478.922 166.105 476.051 166.101 473.057V150.156C166.105 147.161 167.296 144.29 169.413 142.173C171.531 140.055 174.402 138.864 177.396 138.861H415.253C418.248 138.864 421.119 140.055 423.236 142.173C425.354 144.29 426.545 147.161 426.548 150.156V473.057C426.545 476.051 425.354 478.922 423.236 481.04C421.119 483.157 418.248 484.348 415.253 484.352ZM177.396 140.19C174.754 140.193 172.221 141.244 170.352 143.112C168.484 144.98 167.433 147.513 167.43 150.156V473.057C167.433 475.699 168.484 478.232 170.352 480.1C172.221 481.969 174.754 483.02 177.396 483.023H415.253C417.895 483.02 420.429 481.969 422.297 480.1C424.165 478.232 425.216 475.699 425.219 473.057V150.156C425.216 147.513 424.165 144.98 422.297 143.112C420.429 141.244 417.895 140.193 415.253 140.19H177.396Z" fill="#3F3D56"/>
<path d="M267.93 222.724H200.625C199.212 222.724 197.858 222.163 196.86 221.165C195.861 220.166 195.3 218.812 195.3 217.4C195.3 215.988 195.861 214.633 196.86 213.635C197.858 212.636 199.212 212.075 200.625 212.075H267.93C269.342 212.075 270.697 212.636 271.695 213.635C272.694 214.633 273.255 215.988 273.255 217.4C273.255 218.812 272.694 220.166 271.695 221.165C270.697 222.163 269.342 222.724 267.93 222.724Z" fill="#F9A826"/>
<path d="M267.93 263.562H200.625C199.212 263.562 197.858 263.001 196.86 262.002C195.861 261.004 195.3 259.649 195.3 258.237C195.3 256.825 195.861 255.471 196.86 254.472C197.858 253.474 199.212 252.913 200.625 252.913H267.93C269.342 252.913 270.697 253.474 271.695 254.472C272.694 255.471 273.255 256.825 273.255 258.237C273.255 259.649 272.694 261.004 271.695 262.002C270.697 263.001 269.342 263.562 267.93 263.562Z" fill="#F9A826"/>
<path d="M267.93 240.693H200.625C199.212 240.693 197.858 240.132 196.86 239.133C195.861 238.135 195.3 236.781 195.3 235.368C195.3 233.956 195.861 232.602 196.86 231.603C197.858 230.605 199.212 230.044 200.625 230.044H267.93C269.342 230.044 270.697 230.605 271.695 231.603C272.694 232.602 273.255 233.956 273.255 235.368C273.255 236.781 272.694 238.135 271.695 239.133C270.697 240.132 269.342 240.693 267.93 240.693Z" fill="#F9A826"/>
<path d="M267.93 281.53H200.625C199.212 281.53 197.858 280.969 196.86 279.971C195.861 278.972 195.3 277.618 195.3 276.206C195.3 274.794 195.861 273.439 196.86 272.441C197.858 271.442 199.212 270.881 200.625 270.881H267.93C269.342 270.881 270.697 271.442 271.695 272.441C272.694 273.439 273.255 274.794 273.255 276.206C273.255 277.618 272.694 278.972 271.695 279.971C270.697 280.969 269.342 281.53 267.93 281.53Z" fill="#F9A826"/>
<path d="M369.109 309.62H201.478C200.066 309.62 198.712 309.059 197.713 308.06C196.715 307.062 196.154 305.707 196.154 304.295C196.154 302.883 196.715 301.529 197.713 300.53C198.712 299.532 200.066 298.971 201.478 298.971H369.109C370.521 298.971 371.875 299.532 372.874 300.53C373.873 301.529 374.434 302.883 374.434 304.295C374.434 305.707 373.873 307.062 372.874 308.06C371.875 309.059 370.521 309.62 369.109 309.62Z" fill="#CCCCCC"/>
<path d="M369.109 345.557H201.478C200.066 345.557 198.712 344.996 197.713 343.997C196.715 342.999 196.154 341.644 196.154 340.232C196.154 338.82 196.715 337.466 197.713 336.467C198.712 335.468 200.066 334.907 201.478 334.907H369.109C370.521 334.907 371.875 335.468 372.874 336.467C373.873 337.466 374.434 338.82 374.434 340.232C374.434 341.644 373.873 342.999 372.874 343.997C371.875 344.996 370.521 345.557 369.109 345.557Z" fill="#CCCCCC"/>
<path d="M369.109 464.802H201.478C200.066 464.802 198.712 464.241 197.713 463.243C196.715 462.244 196.154 460.89 196.154 459.477C196.154 458.065 196.715 456.711 197.713 455.712C198.712 454.714 200.066 454.153 201.478 454.153H369.109C370.521 454.153 371.875 454.714 372.874 455.712C373.873 456.711 374.434 458.065 374.434 459.477C374.434 460.89 373.873 462.244 372.874 463.243C371.875 464.241 370.521 464.802 369.109 464.802Z" fill="#CCCCCC"/>
<path d="M391.073 327.59H201.478C200.066 327.59 198.712 327.029 197.713 326.031C196.715 325.032 196.154 323.678 196.154 322.266C196.154 320.854 196.715 319.499 197.713 318.501C198.712 317.502 200.066 316.941 201.478 316.941H391.073C392.485 316.941 393.839 317.502 394.838 318.501C395.837 319.499 396.398 320.854 396.398 322.266C396.398 323.678 395.837 325.032 394.838 326.031C393.839 327.029 392.485 327.59 391.073 327.59Z" fill="#CCCCCC"/>
<path d="M369.109 377.061H201.478C200.067 377.059 198.714 376.498 197.717 375.499C196.72 374.501 196.16 373.148 196.16 371.736C196.16 370.325 196.72 368.972 197.717 367.974C198.714 366.975 200.067 366.414 201.478 366.412H369.109C370.521 366.412 371.875 366.973 372.874 367.971C373.872 368.97 374.433 370.324 374.433 371.736C374.433 373.149 373.872 374.503 372.874 375.502C371.875 376.5 370.521 377.061 369.109 377.061Z" fill="#CCCCCC"/>
<path d="M391.073 395.032H201.478C200.067 395.03 198.714 394.468 197.717 393.47C196.72 392.472 196.16 391.118 196.16 389.707C196.16 388.296 196.72 386.943 197.717 385.944C198.714 384.946 200.067 384.384 201.478 384.383H391.073C392.485 384.383 393.839 384.944 394.838 385.942C395.836 386.941 396.397 388.295 396.397 389.707C396.397 391.119 395.836 392.474 394.838 393.472C393.839 394.471 392.485 395.032 391.073 395.032Z" fill="#CCCCCC"/>
<path d="M369.109 428.168H201.478C200.066 428.168 198.712 427.607 197.713 426.608C196.715 425.61 196.154 424.255 196.154 422.843C196.154 421.431 196.715 420.077 197.713 419.078C198.712 418.08 200.066 417.519 201.478 417.519H369.109C370.521 417.519 371.875 418.08 372.874 419.078C373.873 420.077 374.434 421.431 374.434 422.843C374.434 424.255 373.873 425.61 372.874 426.608C371.875 427.607 370.521 428.168 369.109 428.168Z" fill="#CCCCCC"/>
<path d="M391.073 446.138H201.478C200.066 446.138 198.712 445.577 197.713 444.579C196.715 443.58 196.154 442.226 196.154 440.814C196.154 439.401 196.715 438.047 197.713 437.049C198.712 436.05 200.066 435.489 201.478 435.489H391.073C392.485 435.489 393.839 436.05 394.838 437.049C395.837 438.047 396.398 439.401 396.398 440.814C396.398 442.226 395.837 443.58 394.838 444.579C393.839 445.577 392.485 446.138 391.073 446.138Z" fill="#CCCCCC"/>
<path d="M85.5466 122.194H87.0376V127.801C86.3516 128.403 85.5396 128.865 84.6016 129.187C83.6636 129.509 82.6766 129.67 81.6406 129.67C80.1706 129.67 78.8476 129.348 77.6716 128.704C76.4956 128.06 75.5716 127.171 74.8996 126.037C74.2276 124.889 73.8916 123.608 73.8916 122.194C73.8916 120.78 74.2276 119.506 74.8996 118.372C75.5716 117.224 76.4956 116.328 77.6716 115.684C78.8476 115.04 80.1776 114.718 81.6616 114.718C82.7816 114.718 83.8106 114.9 84.7486 115.264C85.6866 115.614 86.4776 116.139 87.1216 116.839L86.1556 117.826C84.9936 116.678 83.5166 116.104 81.7246 116.104C80.5346 116.104 79.4566 116.37 78.4906 116.902C77.5386 117.42 76.7896 118.148 76.2436 119.086C75.6976 120.01 75.4246 121.046 75.4246 122.194C75.4246 123.342 75.6976 124.378 76.2436 125.302C76.7896 126.226 77.5386 126.954 78.4906 127.486C79.4426 128.018 80.5136 128.284 81.7036 128.284C83.2156 128.284 84.4966 127.906 85.5466 127.15V122.194ZM95.4887 129.67C94.3967 129.67 93.3467 129.495 92.3387 129.145C91.3447 128.795 90.5747 128.333 90.0287 127.759L90.6377 126.562C91.1697 127.094 91.8767 127.528 92.7587 127.864C93.6407 128.186 94.5507 128.347 95.4887 128.347C96.8047 128.347 97.7917 128.109 98.4497 127.633C99.1077 127.143 99.4367 126.513 99.4367 125.743C99.4367 125.155 99.2547 124.686 98.8907 124.336C98.5407 123.986 98.1067 123.72 97.5887 123.538C97.0707 123.342 96.3497 123.132 95.4257 122.908C94.3197 122.628 93.4377 122.362 92.7797 122.11C92.1217 121.844 91.5547 121.445 91.0787 120.913C90.6167 120.381 90.3857 119.66 90.3857 118.75C90.3857 118.008 90.5817 117.336 90.9737 116.734C91.3657 116.118 91.9677 115.628 92.7797 115.264C93.5917 114.9 94.5997 114.718 95.8037 114.718C96.6437 114.718 97.4627 114.837 98.2607 115.075C99.0727 115.299 99.7727 115.614 100.361 116.02L99.8357 117.259C99.2197 116.853 98.5617 116.552 97.8617 116.356C97.1617 116.146 96.4757 116.041 95.8037 116.041C94.5157 116.041 93.5427 116.293 92.8847 116.797C92.2407 117.287 91.9187 117.924 91.9187 118.708C91.9187 119.296 92.0937 119.772 92.4437 120.136C92.8077 120.486 93.2557 120.759 93.7877 120.955C94.3337 121.137 95.0617 121.34 95.9717 121.564C97.0497 121.83 97.9177 122.096 98.5757 122.362C99.2477 122.614 99.8147 123.006 100.277 123.538C100.739 124.056 100.97 124.763 100.97 125.659C100.97 126.401 100.767 127.08 100.361 127.696C99.9687 128.298 99.3597 128.781 98.5337 129.145C97.7077 129.495 96.6927 129.67 95.4887 129.67ZM107.007 116.188H101.841V114.844H113.727V116.188H108.561V129.544H107.007V116.188ZM131.743 129.544L128.383 124.819C128.005 124.861 127.613 124.882 127.207 124.882H123.259V129.544H121.705V114.844H127.207C129.083 114.844 130.553 115.292 131.617 116.188C132.681 117.084 133.213 118.316 133.213 119.884C133.213 121.032 132.919 122.005 132.331 122.803C131.757 123.587 130.931 124.154 129.853 124.504L133.444 129.544H131.743ZM127.165 123.559C128.621 123.559 129.734 123.237 130.504 122.593C131.274 121.949 131.659 121.046 131.659 119.884C131.659 118.694 131.274 117.784 130.504 117.154C129.734 116.51 128.621 116.188 127.165 116.188H123.259V123.559H127.165ZM146.184 124.483H136.944C137.028 125.631 137.469 126.562 138.267 127.276C139.065 127.976 140.073 128.326 141.291 128.326C141.977 128.326 142.607 128.207 143.181 127.969C143.755 127.717 144.252 127.353 144.672 126.877L145.512 127.843C145.022 128.431 144.406 128.879 143.664 129.187C142.936 129.495 142.131 129.649 141.249 129.649C140.115 129.649 139.107 129.411 138.225 128.935C137.357 128.445 136.678 127.773 136.188 126.919C135.698 126.065 135.453 125.099 135.453 124.021C135.453 122.943 135.684 121.977 136.146 121.123C136.622 120.269 137.266 119.604 138.078 119.128C138.904 118.652 139.828 118.414 140.85 118.414C141.872 118.414 142.789 118.652 143.601 119.128C144.413 119.604 145.05 120.269 145.512 121.123C145.974 121.963 146.205 122.929 146.205 124.021L146.184 124.483ZM140.85 119.695C139.786 119.695 138.89 120.038 138.162 120.724C137.448 121.396 137.042 122.278 136.944 123.37H144.777C144.679 122.278 144.266 121.396 143.538 120.724C142.824 120.038 141.928 119.695 140.85 119.695ZM154.931 118.414C155.967 118.414 156.905 118.652 157.745 119.128C158.585 119.59 159.243 120.248 159.719 121.102C160.195 121.956 160.433 122.929 160.433 124.021C160.433 125.127 160.195 126.107 159.719 126.961C159.243 127.815 158.585 128.48 157.745 128.956C156.919 129.418 155.981 129.649 154.931 129.649C154.035 129.649 153.223 129.467 152.495 129.103C151.781 128.725 151.193 128.179 150.731 127.465V133.618H149.24V118.498H150.668V120.682C151.116 119.954 151.704 119.394 152.432 119.002C153.174 118.61 154.007 118.414 154.931 118.414ZM154.826 128.326C155.596 128.326 156.296 128.151 156.926 127.801C157.556 127.437 158.046 126.926 158.396 126.268C158.76 125.61 158.942 124.861 158.942 124.021C158.942 123.181 158.76 122.439 158.396 121.795C158.046 121.137 157.556 120.626 156.926 120.262C156.296 119.898 155.596 119.716 154.826 119.716C154.042 119.716 153.335 119.898 152.705 120.262C152.089 120.626 151.599 121.137 151.235 121.795C150.885 122.439 150.71 123.181 150.71 124.021C150.71 124.861 150.885 125.61 151.235 126.268C151.599 126.926 152.089 127.437 152.705 127.801C153.335 128.151 154.042 128.326 154.826 128.326ZM167.987 129.649C166.923 129.649 165.964 129.411 165.11 128.935C164.256 128.445 163.584 127.773 163.094 126.919C162.604 126.065 162.359 125.099 162.359 124.021C162.359 122.943 162.604 121.977 163.094 121.123C163.584 120.269 164.256 119.604 165.11 119.128C165.964 118.652 166.923 118.414 167.987 118.414C169.051 118.414 170.01 118.652 170.864 119.128C171.718 119.604 172.383 120.269 172.859 121.123C173.349 121.977 173.594 122.943 173.594 124.021C173.594 125.099 173.349 126.065 172.859 126.919C172.383 127.773 171.718 128.445 170.864 128.935C170.01 129.411 169.051 129.649 167.987 129.649ZM167.987 128.326C168.771 128.326 169.471 128.151 170.087 127.801C170.717 127.437 171.207 126.926 171.557 126.268C171.907 125.61 172.082 124.861 172.082 124.021C172.082 123.181 171.907 122.432 171.557 121.774C171.207 121.116 170.717 120.612 170.087 120.262C169.471 119.898 168.771 119.716 167.987 119.716C167.203 119.716 166.496 119.898 165.866 120.262C165.25 120.612 164.76 121.116 164.396 121.774C164.046 122.432 163.871 123.181 163.871 124.021C163.871 124.861 164.046 125.61 164.396 126.268C164.76 126.926 165.25 127.437 165.866 127.801C166.496 128.151 167.203 128.326 167.987 128.326ZM178.066 120.661C178.416 119.919 178.934 119.359 179.62 118.981C180.32 118.603 181.181 118.414 182.203 118.414V119.863L181.846 119.842C180.684 119.842 179.774 120.199 179.116 120.913C178.458 121.627 178.129 122.628 178.129 123.916V129.544H176.638V118.498H178.066V120.661ZM191.192 128.872C190.912 129.124 190.562 129.32 190.142 129.46C189.736 129.586 189.309 129.649 188.861 129.649C187.825 129.649 187.027 129.369 186.467 128.809C185.907 128.249 185.627 127.458 185.627 126.436V119.758H183.653V118.498H185.627V116.083H187.118V118.498H190.478V119.758H187.118V126.352C187.118 127.01 187.279 127.514 187.601 127.864C187.937 128.2 188.413 128.368 189.029 128.368C189.337 128.368 189.631 128.319 189.911 128.221C190.205 128.123 190.457 127.983 190.667 127.801L191.192 128.872Z" fill="#FFB236"/>
<path d="M186.911 170.383H188.465V185.083H186.911V170.383ZM203.286 185.083L199.926 180.358C199.548 180.4 199.156 180.421 198.75 180.421H194.802V185.083H193.248V170.383H198.75C200.626 170.383 202.096 170.831 203.16 171.727C204.224 172.623 204.756 173.855 204.756 175.423C204.756 176.571 204.462 177.544 203.874 178.342C203.3 179.126 202.474 179.693 201.396 180.043L204.987 185.083H203.286ZM198.708 179.098C200.164 179.098 201.277 178.776 202.047 178.132C202.817 177.488 203.202 176.585 203.202 175.423C203.202 174.233 202.817 173.323 202.047 172.693C201.277 172.049 200.164 171.727 198.708 171.727H194.802V179.098H198.708ZM211.955 176.683C213.495 176.767 214.664 177.187 215.462 177.943C216.274 178.685 216.68 179.658 216.68 180.862C216.68 181.702 216.477 182.451 216.071 183.109C215.665 183.753 215.063 184.264 214.265 184.642C213.467 185.02 212.494 185.209 211.346 185.209C210.282 185.209 209.274 185.041 208.322 184.705C207.384 184.355 206.628 183.893 206.054 183.319L206.789 182.122C207.279 182.626 207.93 183.039 208.742 183.361C209.554 183.669 210.422 183.823 211.346 183.823C212.55 183.823 213.481 183.564 214.139 183.046C214.797 182.514 215.126 181.786 215.126 180.862C215.126 179.952 214.797 179.238 214.139 178.72C213.481 178.202 212.487 177.943 211.157 177.943H210.107V176.83L214.181 171.727H206.663V170.383H216.113V171.454L211.955 176.683ZM235.647 185.083L232.287 180.358C231.909 180.4 231.517 180.421 231.111 180.421H227.163V185.083H225.609V170.383H231.111C232.987 170.383 234.457 170.831 235.521 171.727C236.585 172.623 237.117 173.855 237.117 175.423C237.117 176.571 236.823 177.544 236.235 178.342C235.661 179.126 234.835 179.693 233.757 180.043L237.348 185.083H235.647ZM231.069 179.098C232.525 179.098 233.638 178.776 234.408 178.132C235.178 177.488 235.563 176.585 235.563 175.423C235.563 174.233 235.178 173.323 234.408 172.693C233.638 172.049 232.525 171.727 231.069 171.727H227.163V179.098H231.069ZM250.088 180.022H240.848C240.932 181.17 241.373 182.101 242.171 182.815C242.969 183.515 243.977 183.865 245.195 183.865C245.881 183.865 246.511 183.746 247.085 183.508C247.659 183.256 248.156 182.892 248.576 182.416L249.416 183.382C248.926 183.97 248.31 184.418 247.568 184.726C246.84 185.034 246.035 185.188 245.153 185.188C244.019 185.188 243.011 184.95 242.129 184.474C241.261 183.984 240.582 183.312 240.092 182.458C239.602 181.604 239.357 180.638 239.357 179.56C239.357 178.482 239.588 177.516 240.05 176.662C240.526 175.808 241.17 175.143 241.982 174.667C242.808 174.191 243.732 173.953 244.754 173.953C245.776 173.953 246.693 174.191 247.505 174.667C248.317 175.143 248.954 175.808 249.416 176.662C249.878 177.502 250.109 178.468 250.109 179.56L250.088 180.022ZM244.754 175.234C243.69 175.234 242.794 175.577 242.066 176.263C241.352 176.935 240.946 177.817 240.848 178.909H248.681C248.583 177.817 248.17 176.935 247.442 176.263C246.728 175.577 245.832 175.234 244.754 175.234ZM258.835 173.953C259.871 173.953 260.809 174.191 261.649 174.667C262.489 175.129 263.147 175.787 263.623 176.641C264.099 177.495 264.337 178.468 264.337 179.56C264.337 180.666 264.099 181.646 263.623 182.5C263.147 183.354 262.489 184.019 261.649 184.495C260.823 184.957 259.885 185.188 258.835 185.188C257.939 185.188 257.127 185.006 256.399 184.642C255.685 184.264 255.097 183.718 254.635 183.004V189.157H253.144V174.037H254.572V176.221C255.02 175.493 255.608 174.933 256.336 174.541C257.078 174.149 257.911 173.953 258.835 173.953ZM258.73 183.865C259.5 183.865 260.2 183.69 260.83 183.34C261.46 182.976 261.95 182.465 262.3 181.807C262.664 181.149 262.846 180.4 262.846 179.56C262.846 178.72 262.664 177.978 262.3 177.334C261.95 176.676 261.46 176.165 260.83 175.801C260.2 175.437 259.5 175.255 258.73 175.255C257.946 175.255 257.239 175.437 256.609 175.801C255.993 176.165 255.503 176.676 255.139 177.334C254.789 177.978 254.614 178.72 254.614 179.56C254.614 180.4 254.789 181.149 255.139 181.807C255.503 182.465 255.993 182.976 256.609 183.34C257.239 183.69 257.946 183.865 258.73 183.865ZM271.891 185.188C270.827 185.188 269.868 184.95 269.014 184.474C268.16 183.984 267.488 183.312 266.998 182.458C266.508 181.604 266.263 180.638 266.263 179.56C266.263 178.482 266.508 177.516 266.998 176.662C267.488 175.808 268.16 175.143 269.014 174.667C269.868 174.191 270.827 173.953 271.891 173.953C272.955 173.953 273.914 174.191 274.768 174.667C275.622 175.143 276.287 175.808 276.763 176.662C277.253 177.516 277.498 178.482 277.498 179.56C277.498 180.638 277.253 181.604 276.763 182.458C276.287 183.312 275.622 183.984 274.768 184.474C273.914 184.95 272.955 185.188 271.891 185.188ZM271.891 183.865C272.675 183.865 273.375 183.69 273.991 183.34C274.621 182.976 275.111 182.465 275.461 181.807C275.811 181.149 275.986 180.4 275.986 179.56C275.986 178.72 275.811 177.971 275.461 177.313C275.111 176.655 274.621 176.151 273.991 175.801C273.375 175.437 272.675 175.255 271.891 175.255C271.107 175.255 270.4 175.437 269.77 175.801C269.154 176.151 268.664 176.655 268.3 177.313C267.95 177.971 267.775 178.72 267.775 179.56C267.775 180.4 267.95 181.149 268.3 181.807C268.664 182.465 269.154 182.976 269.77 183.34C270.4 183.69 271.107 183.865 271.891 183.865ZM281.97 176.2C282.32 175.458 282.838 174.898 283.524 174.52C284.224 174.142 285.085 173.953 286.107 173.953V175.402L285.75 175.381C284.588 175.381 283.678 175.738 283.02 176.452C282.362 177.166 282.033 178.167 282.033 179.455V185.083H280.542V174.037H281.97V176.2ZM295.095 184.411C294.815 184.663 294.465 184.859 294.045 184.999C293.639 185.125 293.212 185.188 292.764 185.188C291.728 185.188 290.93 184.908 290.37 184.348C289.81 183.788 289.53 182.997 289.53 181.975V175.297H287.556V174.037H289.53V171.622H291.021V174.037H294.381V175.297H291.021V181.891C291.021 182.549 291.182 183.053 291.504 183.403C291.84 183.739 292.316 183.907 292.932 183.907C293.24 183.907 293.534 183.858 293.814 183.76C294.108 183.662 294.36 183.522 294.57 183.34L295.095 184.411Z" fill="#FFB236"/>
<path d="M385.621 22.5512L380.665 37.2512H379.027L374.722 24.7142L370.396 37.2512H368.779L363.823 22.5512H365.419L369.661 35.1932L374.05 22.5512H375.499L379.825 35.2562L384.13 22.5512H385.621ZM388.093 26.2052H389.584V37.2512H388.093V26.2052ZM388.849 23.7902C388.541 23.7902 388.282 23.6852 388.072 23.4752C387.862 23.2652 387.757 23.0132 387.757 22.7192C387.757 22.4392 387.862 22.1942 388.072 21.9842C388.282 21.7742 388.541 21.6692 388.849 21.6692C389.157 21.6692 389.416 21.7742 389.626 21.9842C389.836 22.1802 389.941 22.4182 389.941 22.6982C389.941 23.0062 389.836 23.2652 389.626 23.4752C389.416 23.6852 389.157 23.7902 388.849 23.7902ZM399.55 36.5792C399.27 36.8312 398.92 37.0272 398.5 37.1672C398.094 37.2932 397.667 37.3562 397.219 37.3562C396.183 37.3562 395.385 37.0762 394.825 36.5162C394.265 35.9562 393.985 35.1652 393.985 34.1432V27.4652H392.011V26.2052H393.985V23.7902H395.476V26.2052H398.836V27.4652H395.476V34.0592C395.476 34.7172 395.637 35.2212 395.959 35.5712C396.295 35.9072 396.771 36.0752 397.387 36.0752C397.695 36.0752 397.989 36.0262 398.269 35.9282C398.563 35.8302 398.815 35.6902 399.025 35.5082L399.55 36.5792ZM407.892 26.1212C409.278 26.1212 410.377 26.5272 411.189 27.3392C412.015 28.1372 412.428 29.3062 412.428 30.8462V37.2512H410.937V30.9932C410.937 29.8452 410.65 28.9702 410.076 28.3682C409.502 27.7662 408.683 27.4652 407.619 27.4652C406.429 27.4652 405.484 27.8222 404.784 28.5362C404.098 29.2362 403.755 30.2092 403.755 31.4552V37.2512H402.264V21.6692H403.755V28.1372C404.161 27.4932 404.721 26.9962 405.435 26.6462C406.149 26.2962 406.968 26.1212 407.892 26.1212ZM421.032 37.3562C419.968 37.3562 419.009 37.1182 418.155 36.6422C417.301 36.1522 416.629 35.4802 416.139 34.6262C415.649 33.7722 415.404 32.8062 415.404 31.7282C415.404 30.6502 415.649 29.6842 416.139 28.8302C416.629 27.9762 417.301 27.3112 418.155 26.8352C419.009 26.3592 419.968 26.1212 421.032 26.1212C422.096 26.1212 423.055 26.3592 423.909 26.8352C424.763 27.3112 425.428 27.9762 425.904 28.8302C426.394 29.6842 426.639 30.6502 426.639 31.7282C426.639 32.8062 426.394 33.7722 425.904 34.6262C425.428 35.4802 424.763 36.1522 423.909 36.6422C423.055 37.1182 422.096 37.3562 421.032 37.3562ZM421.032 36.0332C421.816 36.0332 422.516 35.8582 423.132 35.5082C423.762 35.1442 424.252 34.6332 424.602 33.9752C424.952 33.3172 425.127 32.5682 425.127 31.7282C425.127 30.8882 424.952 30.1392 424.602 29.4812C424.252 28.8232 423.762 28.3192 423.132 27.9692C422.516 27.6052 421.816 27.4232 421.032 27.4232C420.248 27.4232 419.541 27.6052 418.911 27.9692C418.295 28.3192 417.805 28.8232 417.441 29.4812C417.091 30.1392 416.916 30.8882 416.916 31.7282C416.916 32.5682 417.091 33.3172 417.441 33.9752C417.805 34.6332 418.295 35.1442 418.911 35.5082C419.541 35.8582 420.248 36.0332 421.032 36.0332ZM429.683 21.6692H431.174V37.2512H429.683V21.6692ZM445.403 21.6692V37.2512H443.975V35.0672C443.527 35.8092 442.932 36.3762 442.19 36.7682C441.462 37.1602 440.636 37.3562 439.712 37.3562C438.676 37.3562 437.738 37.1182 436.898 36.6422C436.058 36.1662 435.4 35.5012 434.924 34.6472C434.448 33.7932 434.21 32.8202 434.21 31.7282C434.21 30.6362 434.448 29.6632 434.924 28.8092C435.4 27.9552 436.058 27.2972 436.898 26.8352C437.738 26.3592 438.676 26.1212 439.712 26.1212C440.608 26.1212 441.413 26.3102 442.127 26.6882C442.855 27.0522 443.45 27.5912 443.912 28.3052V21.6692H445.403ZM439.838 36.0332C440.608 36.0332 441.301 35.8582 441.917 35.5082C442.547 35.1442 443.037 34.6332 443.387 33.9752C443.751 33.3172 443.933 32.5682 443.933 31.7282C443.933 30.8882 443.751 30.1392 443.387 29.4812C443.037 28.8232 442.547 28.3192 441.917 27.9692C441.301 27.6052 440.608 27.4232 439.838 27.4232C439.054 27.4232 438.347 27.6052 437.717 27.9692C437.101 28.3192 436.611 28.8232 436.247 29.4812C435.897 30.1392 435.722 30.8882 435.722 31.7282C435.722 32.5682 435.897 33.3172 436.247 33.9752C436.611 34.6332 437.101 35.1442 437.717 35.5082C438.347 35.8582 439.054 36.0332 439.838 36.0332ZM449.555 26.2052H451.046V37.2512H449.555V26.2052ZM450.311 23.7902C450.003 23.7902 449.744 23.6852 449.534 23.4752C449.324 23.2652 449.219 23.0132 449.219 22.7192C449.219 22.4392 449.324 22.1942 449.534 21.9842C449.744 21.7742 450.003 21.6692 450.311 21.6692C450.619 21.6692 450.878 21.7742 451.088 21.9842C451.298 22.1802 451.403 22.4182 451.403 22.6982C451.403 23.0062 451.298 23.2652 451.088 23.4752C450.878 23.6852 450.619 23.7902 450.311 23.7902ZM460.823 26.1212C462.209 26.1212 463.308 26.5272 464.12 27.3392C464.946 28.1372 465.359 29.3062 465.359 30.8462V37.2512H463.868V30.9932C463.868 29.8452 463.581 28.9702 463.007 28.3682C462.433 27.7662 461.614 27.4652 460.55 27.4652C459.36 27.4652 458.415 27.8222 457.715 28.5362C457.029 29.2362 456.686 30.2092 456.686 31.4552V37.2512H455.195V26.2052H456.623V28.2422C457.029 27.5702 457.589 27.0522 458.303 26.6882C459.031 26.3102 459.871 26.1212 460.823 26.1212ZM479.675 26.2052V35.9072C479.675 37.7832 479.213 39.1692 478.289 40.0652C477.379 40.9752 476 41.4302 474.152 41.4302C473.13 41.4302 472.157 41.2762 471.233 40.9682C470.323 40.6742 469.581 40.2612 469.007 39.7292L469.763 38.5952C470.295 39.0712 470.939 39.4422 471.695 39.7082C472.465 39.9742 473.27 40.1072 474.11 40.1072C475.51 40.1072 476.539 39.7782 477.197 39.1202C477.855 38.4762 478.184 37.4682 478.184 36.0962V34.6892C477.722 35.3892 477.113 35.9212 476.357 36.2852C475.615 36.6492 474.789 36.8312 473.879 36.8312C472.843 36.8312 471.898 36.6072 471.044 36.1592C470.204 35.6972 469.539 35.0602 469.049 34.2482C468.573 33.4222 468.335 32.4912 468.335 31.4552C468.335 30.4192 468.573 29.4952 469.049 28.6832C469.539 27.8712 470.204 27.2412 471.044 26.7932C471.884 26.3452 472.829 26.1212 473.879 26.1212C474.817 26.1212 475.664 26.3102 476.42 26.6882C477.176 27.0662 477.785 27.6122 478.247 28.3262V26.2052H479.675ZM474.026 35.5082C474.824 35.5082 475.545 35.3402 476.189 35.0042C476.833 34.6542 477.33 34.1712 477.68 33.5552C478.044 32.9392 478.226 32.2392 478.226 31.4552C478.226 30.6712 478.044 29.9782 477.68 29.3762C477.33 28.7602 476.833 28.2842 476.189 27.9482C475.559 27.5982 474.838 27.4232 474.026 27.4232C473.228 27.4232 472.507 27.5912 471.863 27.9272C471.233 28.2632 470.736 28.7392 470.372 29.3552C470.022 29.9712 469.847 30.6712 469.847 31.4552C469.847 32.2392 470.022 32.9392 470.372 33.5552C470.736 34.1712 471.233 34.6542 471.863 35.0042C472.507 35.3402 473.228 35.5082 474.026 35.5082ZM492.511 23.8952H487.345V22.5512H499.231V23.8952H494.065V37.2512H492.511V23.8952ZM504.648 26.1212C506.09 26.1212 507.196 26.4852 507.966 27.2132C508.736 27.9272 509.121 28.9912 509.121 30.4052V37.2512H507.693V35.5292C507.357 36.1032 506.86 36.5512 506.202 36.8732C505.558 37.1952 504.788 37.3562 503.892 37.3562C502.66 37.3562 501.68 37.0622 500.952 36.4742C500.224 35.8862 499.86 35.1092 499.86 34.1432C499.86 33.2052 500.196 32.4492 500.868 31.8752C501.554 31.3012 502.639 31.0142 504.123 31.0142H507.63V30.3422C507.63 29.3902 507.364 28.6692 506.832 28.1792C506.3 27.6752 505.523 27.4232 504.501 27.4232C503.801 27.4232 503.129 27.5422 502.485 27.7802C501.841 28.0042 501.288 28.3192 500.826 28.7252L500.154 27.6122C500.714 27.1362 501.386 26.7722 502.17 26.5202C502.954 26.2542 503.78 26.1212 504.648 26.1212ZM504.123 36.1802C504.963 36.1802 505.684 35.9912 506.286 35.6132C506.888 35.2212 507.336 34.6612 507.63 33.9332V32.1272H504.165C502.275 32.1272 501.33 32.7852 501.33 34.1012C501.33 34.7452 501.575 35.2562 502.065 35.6342C502.555 35.9982 503.241 36.1802 504.123 36.1802ZM520.206 37.2512L516.699 32.6312L513.171 37.2512H511.491L515.859 31.5812L511.701 26.2052H513.381L516.699 30.5312L520.017 26.2052H521.655L517.497 31.5812L521.907 37.2512H520.206Z" fill="#FFB236"/>
<path opacity="0.5" fill-rule="evenodd" clip-rule="evenodd" d="M338.885 194.174C314.375 194.174 294.503 214.045 294.503 238.556C294.503 263.067 314.375 282.938 338.885 282.938C363.396 282.938 383.267 263.067 383.267 238.556H338.885V194.174Z" stroke="#212529" stroke-linecap="round" stroke-linejoin="round"/>
<path opacity="0.5" fill-rule="evenodd" clip-rule="evenodd" d="M352.901 180.158V224.541H397.283C397.283 200.03 377.411 180.158 352.901 180.158Z" stroke="#212529" stroke-linecap="round" stroke-linejoin="round"/>
</g>
<path d="M709.798 445.951H471.941C468.946 445.947 466.075 444.756 463.958 442.639C461.84 440.521 460.649 437.65 460.646 434.656V111.755C460.649 108.76 461.84 105.889 463.958 103.772C466.075 101.654 468.946 100.463 471.941 100.46H709.798C712.792 100.463 715.663 101.654 717.781 103.772C719.898 105.889 721.089 108.76 721.093 111.755V434.656C721.089 437.65 719.898 440.521 717.781 442.639C715.663 444.756 712.792 445.947 709.798 445.951Z" fill="white"/>
<path d="M650.759 157.664H483.129C482.429 157.665 481.736 157.528 481.089 157.26C480.442 156.993 479.855 156.601 479.359 156.107C478.864 155.612 478.472 155.025 478.204 154.378C477.936 153.732 477.798 153.039 477.798 152.339C477.798 151.639 477.936 150.947 478.204 150.3C478.472 149.654 478.864 149.066 479.359 148.572C479.855 148.077 480.442 147.685 481.089 147.418C481.736 147.151 482.429 147.014 483.129 147.015H650.759C652.17 147.016 653.523 147.578 654.52 148.577C655.517 149.575 656.077 150.928 656.077 152.339C656.077 153.75 655.517 155.104 654.52 156.102C653.523 157.1 652.17 157.662 650.759 157.664Z" fill="#E6E6E6"/>
<path d="M650.759 173.999H483.129C482.429 174 481.736 173.863 481.089 173.595C480.442 173.328 479.855 172.936 479.359 172.442C478.864 171.947 478.472 171.36 478.204 170.713C477.936 170.067 477.798 169.374 477.798 168.674C477.798 167.974 477.936 167.281 478.204 166.635C478.472 165.989 478.864 165.401 479.359 164.907C479.855 164.412 480.442 164.02 481.089 163.753C481.736 163.486 482.429 163.349 483.129 163.35H650.759C652.17 163.351 653.523 163.913 654.52 164.911C655.517 165.91 656.077 167.263 656.077 168.674C656.077 170.085 655.517 171.439 654.52 172.437C653.523 173.435 652.17 173.997 650.759 173.999Z" fill="#E6E6E6"/>
<path d="M650.759 190.334H483.129C482.429 190.335 481.736 190.198 481.089 189.93C480.442 189.663 479.855 189.271 479.359 188.777C478.864 188.282 478.472 187.695 478.204 187.048C477.936 186.402 477.798 185.709 477.798 185.009C477.798 184.309 477.936 183.616 478.204 182.97C478.472 182.324 478.864 181.736 479.359 181.242C479.855 180.747 480.442 180.355 481.089 180.088C481.736 179.821 482.429 179.684 483.129 179.685H650.759C652.17 179.686 653.523 180.248 654.52 181.246C655.517 182.245 656.077 183.598 656.077 185.009C656.077 186.42 655.517 187.774 654.52 188.772C653.523 189.77 652.17 190.332 650.759 190.334Z" fill="#E6E6E6"/>
<path d="M675.262 226.271H507.631C506.931 226.272 506.238 226.135 505.592 225.867C504.945 225.6 504.357 225.208 503.862 224.714C503.367 224.219 502.974 223.632 502.706 222.985C502.438 222.339 502.3 221.646 502.3 220.946C502.3 220.246 502.438 219.553 502.706 218.907C502.974 218.261 503.367 217.673 503.862 217.179C504.357 216.684 504.945 216.292 505.592 216.025C506.238 215.758 506.931 215.621 507.631 215.622H675.262C676.673 215.623 678.025 216.185 679.023 217.183C680.02 218.182 680.58 219.535 680.58 220.946C680.58 222.357 680.02 223.711 679.023 224.709C678.025 225.707 676.673 226.269 675.262 226.271Z" fill="#E6E6E6"/>
<path d="M650.759 242.606H483.129C482.429 242.607 481.736 242.47 481.089 242.202C480.442 241.935 479.855 241.543 479.359 241.049C478.864 240.554 478.472 239.967 478.204 239.32C477.936 238.674 477.798 237.981 477.798 237.281C477.798 236.581 477.936 235.888 478.204 235.242C478.472 234.596 478.864 234.008 479.359 233.514C479.855 233.019 480.442 232.627 481.089 232.36C481.736 232.093 482.429 231.956 483.129 231.957H650.759C652.17 231.958 653.523 232.52 654.52 233.518C655.517 234.517 656.077 235.87 656.077 237.281C656.077 238.692 655.517 240.046 654.52 241.044C653.523 242.042 652.17 242.604 650.759 242.606Z" fill="#E6E6E6"/>
<path d="M650.759 258.941H483.129C482.429 258.942 481.736 258.805 481.089 258.537C480.442 258.27 479.855 257.878 479.359 257.384C478.864 256.889 478.472 256.302 478.204 255.655C477.936 255.009 477.798 254.316 477.798 253.616C477.798 252.916 477.936 252.223 478.204 251.577C478.472 250.931 478.864 250.343 479.359 249.849C479.855 249.354 480.442 248.962 481.089 248.695C481.736 248.428 482.429 248.291 483.129 248.292H650.759C652.17 248.293 653.523 248.855 654.52 249.853C655.517 250.852 656.077 252.205 656.077 253.616C656.077 255.027 655.517 256.381 654.52 257.379C653.523 258.377 652.17 258.939 650.759 258.941Z" fill="#E6E6E6"/>
<path d="M675.262 283.443H507.631C506.931 283.444 506.238 283.307 505.592 283.04C504.945 282.772 504.357 282.38 503.862 281.886C503.367 281.391 502.974 280.804 502.706 280.157C502.438 279.511 502.3 278.818 502.3 278.118C502.3 277.419 502.438 276.726 502.706 276.079C502.974 275.433 503.367 274.845 503.862 274.351C504.357 273.856 504.945 273.464 505.592 273.197C506.238 272.93 506.931 272.793 507.631 272.794H675.262C676.673 272.795 678.025 273.357 679.023 274.356C680.02 275.354 680.58 276.707 680.58 278.118C680.58 279.529 680.02 280.883 679.023 281.881C678.025 282.879 676.673 283.441 675.262 283.443Z" fill="#E6E6E6"/>
<path d="M650.759 299.778H483.129C482.429 299.779 481.736 299.642 481.089 299.374C480.442 299.107 479.855 298.715 479.359 298.221C478.864 297.726 478.472 297.139 478.204 296.492C477.936 295.846 477.798 295.153 477.798 294.453C477.798 293.753 477.936 293.061 478.204 292.414C478.472 291.768 478.864 291.18 479.359 290.686C479.855 290.191 480.442 289.799 481.089 289.532C481.736 289.265 482.429 289.128 483.129 289.129H650.759C652.17 289.13 653.523 289.692 654.52 290.691C655.517 291.689 656.077 293.042 656.077 294.453C656.077 295.864 655.517 297.218 654.52 298.216C653.523 299.214 652.17 299.776 650.759 299.778Z" fill="#E6E6E6"/>
<path d="M650.759 316.113H483.129C482.429 316.114 481.736 315.977 481.089 315.709C480.442 315.442 479.855 315.05 479.359 314.556C478.864 314.061 478.472 313.474 478.204 312.827C477.936 312.181 477.798 311.488 477.798 310.788C477.798 310.088 477.936 309.396 478.204 308.749C478.472 308.103 478.864 307.515 479.359 307.021C479.855 306.526 480.442 306.134 481.089 305.867C481.736 305.6 482.429 305.463 483.129 305.464H650.759C652.17 305.465 653.523 306.027 654.52 307.025C655.517 308.024 656.077 309.377 656.077 310.788C656.077 312.199 655.517 313.553 654.52 314.551C653.523 315.549 652.17 316.111 650.759 316.113Z" fill="#E6E6E6"/>
<path d="M675.262 340.615H507.631C506.931 340.616 506.238 340.479 505.592 340.212C504.945 339.945 504.357 339.553 503.862 339.058C503.367 338.564 502.974 337.976 502.706 337.33C502.438 336.683 502.3 335.99 502.3 335.291C502.3 334.591 502.438 333.898 502.706 333.252C502.974 332.605 503.367 332.018 503.862 331.523C504.357 331.029 504.945 330.637 505.592 330.369C506.238 330.102 506.931 329.965 507.631 329.966H675.262C676.673 329.968 678.025 330.53 679.023 331.528C680.02 332.526 680.58 333.88 680.58 335.291C680.58 336.702 680.02 338.055 679.023 339.053C678.025 340.052 676.673 340.614 675.262 340.615Z" fill="#E6E6E6"/>
<path d="M650.759 356.95H483.129C482.429 356.951 481.736 356.814 481.089 356.547C480.442 356.28 479.855 355.888 479.359 355.393C478.864 354.899 478.472 354.311 478.204 353.665C477.936 353.018 477.798 352.325 477.798 351.626C477.798 350.926 477.936 350.233 478.204 349.586C478.472 348.94 478.864 348.353 479.359 347.858C479.855 347.364 480.442 346.972 481.089 346.704C481.736 346.437 482.429 346.3 483.129 346.301H650.759C652.17 346.303 653.523 346.865 654.52 347.863C655.517 348.861 656.077 350.215 656.077 351.626C656.077 353.037 655.517 354.39 654.52 355.388C653.523 356.387 652.17 356.949 650.759 356.95Z" fill="#E6E6E6"/>
<path d="M650.759 373.285H483.129C482.429 373.286 481.736 373.149 481.089 372.882C480.442 372.615 479.855 372.223 479.359 371.728C478.864 371.233 478.472 370.646 478.204 370C477.936 369.353 477.798 368.66 477.798 367.961C477.798 367.261 477.936 366.568 478.204 365.921C478.472 365.275 478.864 364.688 479.359 364.193C479.855 363.699 480.442 363.307 481.089 363.039C481.736 362.772 482.429 362.635 483.129 362.636H650.759C652.17 362.638 653.523 363.199 654.52 364.198C655.517 365.196 656.077 366.55 656.077 367.961C656.077 369.372 655.517 370.725 654.52 371.723C653.523 372.722 652.17 373.283 650.759 373.285Z" fill="#E6E6E6"/>
<path d="M650.759 405.955H483.129C482.429 405.956 481.736 405.819 481.089 405.552C480.442 405.285 479.855 404.892 479.359 404.398C478.864 403.903 478.472 403.316 478.204 402.67C477.936 402.023 477.798 401.33 477.798 400.631C477.798 399.931 477.936 399.238 478.204 398.591C478.472 397.945 478.864 397.358 479.359 396.863C479.855 396.369 480.442 395.977 481.089 395.709C481.736 395.442 482.429 395.305 483.129 395.306H650.759C652.17 395.308 653.523 395.869 654.52 396.868C655.517 397.866 656.077 399.219 656.077 400.631C656.077 402.042 655.517 403.395 654.52 404.393C653.523 405.392 652.17 405.953 650.759 405.955Z" fill="#E6E6E6"/>
<path d="M650.759 422.29H483.129C482.429 422.291 481.736 422.154 481.089 421.887C480.442 421.619 479.855 421.227 479.359 420.733C478.864 420.238 478.472 419.651 478.204 419.005C477.936 418.358 477.798 417.665 477.798 416.965C477.798 416.266 477.936 415.573 478.204 414.926C478.472 414.28 478.864 413.693 479.359 413.198C479.855 412.704 480.442 412.311 481.089 412.044C481.736 411.777 482.429 411.64 483.129 411.641H650.759C652.17 411.643 653.523 412.204 654.52 413.203C655.517 414.201 656.077 415.554 656.077 416.965C656.077 418.377 655.517 419.73 654.52 420.728C653.523 421.727 652.17 422.288 650.759 422.29Z" fill="#E6E6E6"/>
<path d="M709.798 445.134H471.941C468.946 445.131 466.075 443.94 463.958 441.822C461.84 439.705 460.649 436.834 460.646 433.839V110.938C460.649 107.944 461.84 105.073 463.958 102.955C466.075 100.838 468.946 99.6467 471.941 99.6433H709.798C712.792 99.6467 715.663 100.838 717.781 102.955C719.898 105.073 721.089 107.944 721.093 110.938V433.839C721.089 436.834 719.898 439.705 717.781 441.822C715.663 443.94 712.792 445.131 709.798 445.134ZM471.941 100.972C469.298 100.975 466.765 102.026 464.897 103.894C463.029 105.763 461.978 108.296 461.975 110.938V433.839C461.978 436.481 463.028 439.014 464.897 440.883C466.765 442.751 469.298 443.802 471.941 443.805H709.798C712.44 443.802 714.973 442.751 716.841 440.883C718.71 439.014 719.761 436.481 719.764 433.839V110.938C719.761 108.296 718.71 105.763 716.841 103.894C714.973 102.026 712.44 100.975 709.798 100.972H471.941Z" fill="#CCCCCC"/>
<path d="M777.588 490.055H539.731C536.736 490.052 533.865 488.861 531.748 486.743C529.63 484.626 528.439 481.755 528.436 478.76V155.859C528.439 152.865 529.63 149.994 531.748 147.876C533.865 145.759 536.736 144.568 539.731 144.564H777.588C780.583 144.568 783.453 145.759 785.571 147.876C787.688 149.994 788.88 152.865 788.883 155.859V478.76C788.88 481.755 787.688 484.626 785.571 486.743C783.453 488.861 780.583 490.052 777.588 490.055Z" fill="white"/>
<path d="M777.588 489.238H539.731C536.736 489.235 533.865 488.044 531.748 485.926C529.63 483.809 528.439 480.938 528.436 477.943V155.042C528.439 152.048 529.63 149.177 531.748 147.059C533.865 144.942 536.736 143.751 539.731 143.748H777.588C780.583 143.751 783.453 144.942 785.571 147.059C787.688 149.177 788.88 152.048 788.883 155.042V477.943C788.88 480.938 787.688 483.809 785.571 485.926C783.453 488.044 780.583 489.235 777.588 489.238ZM539.731 145.076C537.089 145.079 534.556 146.13 532.687 147.999C530.819 149.867 529.768 152.4 529.765 155.042V477.943C529.768 480.586 530.819 483.119 532.687 484.987C534.555 486.855 537.089 487.906 539.731 487.909H777.588C780.23 487.906 782.763 486.855 784.632 484.987C786.5 483.119 787.551 480.586 787.554 477.943V155.042C787.551 152.4 786.5 149.867 784.632 147.999C782.763 146.13 780.23 145.079 777.588 145.076H539.731Z" fill="#CCCCCC"/>
<path d="M528.542 116.477C530.418 116.477 531.888 116.925 532.952 117.821C534.016 118.717 534.548 119.949 534.548 121.517C534.548 123.085 534.016 124.317 532.952 125.213C531.888 126.095 530.418 126.536 528.542 126.536H524.594V131.177H523.04V116.477H528.542ZM528.5 125.171C529.956 125.171 531.069 124.856 531.839 124.226C532.609 123.582 532.994 122.679 532.994 121.517C532.994 120.327 532.609 119.417 531.839 118.787C531.069 118.143 529.956 117.821 528.5 117.821H524.594V125.171H528.5ZM538.734 122.294C539.084 121.552 539.602 120.992 540.288 120.614C540.988 120.236 541.849 120.047 542.871 120.047V121.496L542.514 121.475C541.352 121.475 540.442 121.832 539.784 122.546C539.126 123.26 538.797 124.261 538.797 125.549V131.177H537.306V120.131H538.734V122.294ZM549.983 131.282C548.919 131.282 547.96 131.044 547.106 130.568C546.252 130.078 545.58 129.406 545.09 128.552C544.6 127.698 544.355 126.732 544.355 125.654C544.355 124.576 544.6 123.61 545.09 122.756C545.58 121.902 546.252 121.237 547.106 120.761C547.96 120.285 548.919 120.047 549.983 120.047C551.047 120.047 552.006 120.285 552.86 120.761C553.714 121.237 554.379 121.902 554.855 122.756C555.345 123.61 555.59 124.576 555.59 125.654C555.59 126.732 555.345 127.698 554.855 128.552C554.379 129.406 553.714 130.078 552.86 130.568C552.006 131.044 551.047 131.282 549.983 131.282ZM549.983 129.959C550.767 129.959 551.467 129.784 552.083 129.434C552.713 129.07 553.203 128.559 553.553 127.901C553.903 127.243 554.078 126.494 554.078 125.654C554.078 124.814 553.903 124.065 553.553 123.407C553.203 122.749 552.713 122.245 552.083 121.895C551.467 121.531 550.767 121.349 549.983 121.349C549.199 121.349 548.492 121.531 547.862 121.895C547.246 122.245 546.756 122.749 546.392 123.407C546.042 124.065 545.867 124.814 545.867 125.654C545.867 126.494 546.042 127.243 546.392 127.901C546.756 128.559 547.246 129.07 547.862 129.434C548.492 129.784 549.199 129.959 549.983 129.959ZM567.608 120.131L562.694 131.177H561.161L556.268 120.131H557.822L561.959 129.539L566.138 120.131H567.608ZM569.708 120.131H571.199V131.177H569.708V120.131ZM570.464 117.716C570.156 117.716 569.897 117.611 569.687 117.401C569.477 117.191 569.372 116.939 569.372 116.645C569.372 116.365 569.477 116.12 569.687 115.91C569.897 115.7 570.156 115.595 570.464 115.595C570.772 115.595 571.031 115.7 571.241 115.91C571.451 116.106 571.556 116.344 571.556 116.624C571.556 116.932 571.451 117.191 571.241 117.401C571.031 117.611 570.772 117.716 570.464 117.716ZM578.309 131.282C577.413 131.282 576.552 131.156 575.726 130.904C574.914 130.638 574.277 130.309 573.815 129.917L574.487 128.741C574.949 129.105 575.53 129.406 576.23 129.644C576.93 129.868 577.658 129.98 578.414 129.98C579.422 129.98 580.164 129.826 580.64 129.518C581.13 129.196 581.375 128.748 581.375 128.174C581.375 127.768 581.242 127.453 580.976 127.229C580.71 126.991 580.374 126.816 579.968 126.704C579.562 126.578 579.023 126.459 578.351 126.347C577.455 126.179 576.734 126.011 576.188 125.843C575.642 125.661 575.173 125.36 574.781 124.94C574.403 124.52 574.214 123.939 574.214 123.197C574.214 122.273 574.599 121.517 575.369 120.929C576.139 120.341 577.21 120.047 578.582 120.047C579.296 120.047 580.01 120.145 580.724 120.341C581.438 120.523 582.026 120.768 582.488 121.076L581.837 122.273C580.927 121.643 579.842 121.328 578.582 121.328C577.63 121.328 576.909 121.496 576.419 121.832C575.943 122.168 575.705 122.609 575.705 123.155C575.705 123.575 575.838 123.911 576.104 124.163C576.384 124.415 576.727 124.604 577.133 124.73C577.539 124.842 578.099 124.961 578.813 125.087C579.695 125.255 580.402 125.423 580.934 125.591C581.466 125.759 581.921 126.046 582.299 126.452C582.677 126.858 582.866 127.418 582.866 128.132C582.866 129.098 582.46 129.868 581.648 130.442C580.85 131.002 579.737 131.282 578.309 131.282ZM585.622 120.131H587.113V131.177H585.622V120.131ZM586.378 117.716C586.07 117.716 585.811 117.611 585.601 117.401C585.391 117.191 585.286 116.939 585.286 116.645C585.286 116.365 585.391 116.12 585.601 115.91C585.811 115.7 586.07 115.595 586.378 115.595C586.686 115.595 586.945 115.7 587.155 115.91C587.365 116.106 587.47 116.344 587.47 116.624C587.47 116.932 587.365 117.191 587.155 117.401C586.945 117.611 586.686 117.716 586.378 117.716ZM595.777 131.282C594.713 131.282 593.754 131.044 592.9 130.568C592.046 130.078 591.374 129.406 590.884 128.552C590.394 127.698 590.149 126.732 590.149 125.654C590.149 124.576 590.394 123.61 590.884 122.756C591.374 121.902 592.046 121.237 592.9 120.761C593.754 120.285 594.713 120.047 595.777 120.047C596.841 120.047 597.8 120.285 598.654 120.761C599.508 121.237 600.173 121.902 600.649 122.756C601.139 123.61 601.384 124.576 601.384 125.654C601.384 126.732 601.139 127.698 600.649 128.552C600.173 129.406 599.508 130.078 598.654 130.568C597.8 131.044 596.841 131.282 595.777 131.282ZM595.777 129.959C596.561 129.959 597.261 129.784 597.877 129.434C598.507 129.07 598.997 128.559 599.347 127.901C599.697 127.243 599.872 126.494 599.872 125.654C599.872 124.814 599.697 124.065 599.347 123.407C598.997 122.749 598.507 122.245 597.877 121.895C597.261 121.531 596.561 121.349 595.777 121.349C594.993 121.349 594.286 121.531 593.656 121.895C593.04 122.245 592.55 122.749 592.186 123.407C591.836 124.065 591.661 124.814 591.661 125.654C591.661 126.494 591.836 127.243 592.186 127.901C592.55 128.559 593.04 129.07 593.656 129.434C594.286 129.784 594.993 129.959 595.777 129.959ZM610.056 120.047C611.442 120.047 612.541 120.453 613.353 121.265C614.179 122.063 614.592 123.232 614.592 124.772V131.177H613.101V124.919C613.101 123.771 612.814 122.896 612.24 122.294C611.666 121.692 610.847 121.391 609.783 121.391C608.593 121.391 607.648 121.748 606.948 122.462C606.262 123.162 605.919 124.135 605.919 125.381V131.177H604.428V120.131H605.856V122.168C606.262 121.496 606.822 120.978 607.536 120.614C608.264 120.236 609.104 120.047 610.056 120.047ZM627.307 117.821H622.141V116.477H634.027V117.821H628.861V131.177H627.307V117.821ZM639.443 120.047C640.885 120.047 641.991 120.411 642.761 121.139C643.531 121.853 643.916 122.917 643.916 124.331V131.177H642.488V129.455C642.152 130.029 641.655 130.477 640.997 130.799C640.353 131.121 639.583 131.282 638.687 131.282C637.455 131.282 636.475 130.988 635.747 130.4C635.019 129.812 634.655 129.035 634.655 128.069C634.655 127.131 634.991 126.375 635.663 125.801C636.349 125.227 637.434 124.94 638.918 124.94H642.425V124.268C642.425 123.316 642.159 122.595 641.627 122.105C641.095 121.601 640.318 121.349 639.296 121.349C638.596 121.349 637.924 121.468 637.28 121.706C636.636 121.93 636.083 122.245 635.621 122.651L634.949 121.538C635.509 121.062 636.181 120.698 636.965 120.446C637.749 120.18 638.575 120.047 639.443 120.047ZM638.918 130.106C639.758 130.106 640.479 129.917 641.081 129.539C641.683 129.147 642.131 128.587 642.425 127.859V126.053H638.96C637.07 126.053 636.125 126.711 636.125 128.027C636.125 128.671 636.37 129.182 636.86 129.56C637.35 129.924 638.036 130.106 638.918 130.106ZM655.001 131.177L651.494 126.557L647.966 131.177H646.286L650.654 125.507L646.496 120.131H648.176L651.494 124.457L654.812 120.131H656.45L652.292 125.507L656.702 131.177H655.001Z" fill="#FFB236"/>
<path d="M571.749 176.939V178.283H561.354V163.583H571.434V164.927H562.908V170.156H570.51V171.479H562.908V176.939H571.749ZM580.715 167.153C582.101 167.153 583.2 167.559 584.012 168.371C584.838 169.169 585.251 170.338 585.251 171.878V178.283H583.76V172.025C583.76 170.877 583.473 170.002 582.899 169.4C582.325 168.798 581.506 168.497 580.442 168.497C579.252 168.497 578.307 168.854 577.607 169.568C576.921 170.268 576.578 171.241 576.578 172.487V178.283H575.087V167.237H576.515V169.274C576.921 168.602 577.481 168.084 578.195 167.72C578.923 167.342 579.763 167.153 580.715 167.153ZM599.42 162.701V178.283H597.992V176.099C597.544 176.841 596.949 177.408 596.207 177.8C595.479 178.192 594.653 178.388 593.729 178.388C592.693 178.388 591.755 178.15 590.915 177.674C590.075 177.198 589.417 176.533 588.941 175.679C588.465 174.825 588.227 173.852 588.227 172.76C588.227 171.668 588.465 170.695 588.941 169.841C589.417 168.987 590.075 168.329 590.915 167.867C591.755 167.391 592.693 167.153 593.729 167.153C594.625 167.153 595.43 167.342 596.144 167.72C596.872 168.084 597.467 168.623 597.929 169.337V162.701H599.42ZM593.855 177.065C594.625 177.065 595.318 176.89 595.934 176.54C596.564 176.176 597.054 175.665 597.404 175.007C597.768 174.349 597.95 173.6 597.95 172.76C597.95 171.92 597.768 171.171 597.404 170.513C597.054 169.855 596.564 169.351 595.934 169.001C595.318 168.637 594.625 168.455 593.855 168.455C593.071 168.455 592.364 168.637 591.734 169.001C591.118 169.351 590.628 169.855 590.264 170.513C589.914 171.171 589.739 171.92 589.739 172.76C589.739 173.6 589.914 174.349 590.264 175.007C590.628 175.665 591.118 176.176 591.734 176.54C592.364 176.89 593.071 177.065 593.855 177.065ZM613.583 178.388C612.519 178.388 611.56 178.15 610.706 177.674C609.852 177.184 609.18 176.512 608.69 175.658C608.2 174.804 607.955 173.838 607.955 172.76C607.955 171.682 608.2 170.716 608.69 169.862C609.18 169.008 609.852 168.343 610.706 167.867C611.56 167.391 612.519 167.153 613.583 167.153C614.647 167.153 615.606 167.391 616.46 167.867C617.314 168.343 617.979 169.008 618.455 169.862C618.945 170.716 619.19 171.682 619.19 172.76C619.19 173.838 618.945 174.804 618.455 175.658C617.979 176.512 617.314 177.184 616.46 177.674C615.606 178.15 614.647 178.388 613.583 178.388ZM613.583 177.065C614.367 177.065 615.067 176.89 615.683 176.54C616.313 176.176 616.803 175.665 617.153 175.007C617.503 174.349 617.678 173.6 617.678 172.76C617.678 171.92 617.503 171.171 617.153 170.513C616.803 169.855 616.313 169.351 615.683 169.001C615.067 168.637 614.367 168.455 613.583 168.455C612.799 168.455 612.092 168.637 611.462 169.001C610.846 169.351 610.356 169.855 609.992 170.513C609.642 171.171 609.467 171.92 609.467 172.76C609.467 173.6 609.642 174.349 609.992 175.007C610.356 175.665 610.846 176.176 611.462 176.54C612.092 176.89 612.799 177.065 613.583 177.065ZM625.888 163.856C625.244 163.856 624.754 164.031 624.418 164.381C624.096 164.731 623.935 165.249 623.935 165.935V167.237H627.337V168.497H623.977V178.283H622.486V168.497H620.512V167.237H622.486V165.872C622.486 164.864 622.773 164.066 623.347 163.478C623.935 162.89 624.761 162.596 625.825 162.596C626.245 162.596 626.651 162.659 627.043 162.785C627.435 162.897 627.764 163.065 628.03 163.289L627.526 164.402C627.092 164.038 626.546 163.856 625.888 163.856ZM640.202 173.201V178.283H638.669V173.201L632.789 163.583H634.448L639.488 171.836L644.528 163.583H646.082L640.202 173.201ZM656.544 173.222H647.304C647.388 174.37 647.829 175.301 648.627 176.015C649.425 176.715 650.433 177.065 651.651 177.065C652.337 177.065 652.967 176.946 653.541 176.708C654.115 176.456 654.612 176.092 655.032 175.616L655.872 176.582C655.382 177.17 654.766 177.618 654.024 177.926C653.296 178.234 652.491 178.388 651.609 178.388C650.475 178.388 649.467 178.15 648.585 177.674C647.717 177.184 647.038 176.512 646.548 175.658C646.058 174.804 645.813 173.838 645.813 172.76C645.813 171.682 646.044 170.716 646.506 169.862C646.982 169.008 647.626 168.343 648.438 167.867C649.264 167.391 650.188 167.153 651.21 167.153C652.232 167.153 653.149 167.391 653.961 167.867C654.773 168.343 655.41 169.008 655.872 169.862C656.334 170.702 656.565 171.668 656.565 172.76L656.544 173.222ZM651.21 168.434C650.146 168.434 649.25 168.777 648.522 169.463C647.808 170.135 647.402 171.017 647.304 172.109H655.137C655.039 171.017 654.626 170.135 653.898 169.463C653.184 168.777 652.288 168.434 651.21 168.434ZM663.156 167.153C664.598 167.153 665.704 167.517 666.474 168.245C667.244 168.959 667.629 170.023 667.629 171.437V178.283H666.201V176.561C665.865 177.135 665.368 177.583 664.71 177.905C664.066 178.227 663.296 178.388 662.4 178.388C661.168 178.388 660.188 178.094 659.46 177.506C658.732 176.918 658.368 176.141 658.368 175.175C658.368 174.237 658.704 173.481 659.376 172.907C660.062 172.333 661.147 172.046 662.631 172.046H666.138V171.374C666.138 170.422 665.872 169.701 665.34 169.211C664.808 168.707 664.031 168.455 663.009 168.455C662.309 168.455 661.637 168.574 660.993 168.812C660.349 169.036 659.796 169.351 659.334 169.757L658.662 168.644C659.222 168.168 659.894 167.804 660.678 167.552C661.462 167.286 662.288 167.153 663.156 167.153ZM662.631 177.212C663.471 177.212 664.192 177.023 664.794 176.645C665.396 176.253 665.844 175.693 666.138 174.965V173.159H662.673C660.783 173.159 659.838 173.817 659.838 175.133C659.838 175.777 660.083 176.288 660.573 176.666C661.063 177.03 661.749 177.212 662.631 177.212ZM673.107 169.4C673.457 168.658 673.975 168.098 674.661 167.72C675.361 167.342 676.222 167.153 677.244 167.153V168.602L676.887 168.581C675.725 168.581 674.815 168.938 674.157 169.652C673.499 170.366 673.17 171.367 673.17 172.655V178.283H671.679V167.237H673.107V169.4ZM695.956 178.283L692.596 173.558C692.218 173.6 691.826 173.621 691.42 173.621H687.472V178.283H685.918V163.583H691.42C693.296 163.583 694.766 164.031 695.83 164.927C696.894 165.823 697.426 167.055 697.426 168.623C697.426 169.771 697.132 170.744 696.544 171.542C695.97 172.326 695.144 172.893 694.066 173.243L697.657 178.283H695.956ZM691.378 172.298C692.834 172.298 693.947 171.976 694.717 171.332C695.487 170.688 695.872 169.785 695.872 168.623C695.872 167.433 695.487 166.523 694.717 165.893C693.947 165.249 692.834 164.927 691.378 164.927H687.472V172.298H691.378ZM710.397 173.222H701.157C701.241 174.37 701.682 175.301 702.48 176.015C703.278 176.715 704.286 177.065 705.504 177.065C706.19 177.065 706.82 176.946 707.394 176.708C707.968 176.456 708.465 176.092 708.885 175.616L709.725 176.582C709.235 177.17 708.619 177.618 707.877 177.926C707.149 178.234 706.344 178.388 705.462 178.388C704.328 178.388 703.32 178.15 702.438 177.674C701.57 177.184 700.891 176.512 700.401 175.658C699.911 174.804 699.666 173.838 699.666 172.76C699.666 171.682 699.897 170.716 700.359 169.862C700.835 169.008 701.479 168.343 702.291 167.867C703.117 167.391 704.041 167.153 705.063 167.153C706.085 167.153 707.002 167.391 707.814 167.867C708.626 168.343 709.263 169.008 709.725 169.862C710.187 170.702 710.418 171.668 710.418 172.76L710.397 173.222ZM705.063 168.434C703.999 168.434 703.103 168.777 702.375 169.463C701.661 170.135 701.255 171.017 701.157 172.109H708.99C708.892 171.017 708.479 170.135 707.751 169.463C707.037 168.777 706.141 168.434 705.063 168.434ZM719.144 167.153C720.18 167.153 721.118 167.391 721.958 167.867C722.798 168.329 723.456 168.987 723.932 169.841C724.408 170.695 724.646 171.668 724.646 172.76C724.646 173.866 724.408 174.846 723.932 175.7C723.456 176.554 722.798 177.219 721.958 177.695C721.132 178.157 720.194 178.388 719.144 178.388C718.248 178.388 717.436 178.206 716.708 177.842C715.994 177.464 715.406 176.918 714.944 176.204V182.357H713.453V167.237H714.881V169.421C715.329 168.693 715.917 168.133 716.645 167.741C717.387 167.349 718.22 167.153 719.144 167.153ZM719.039 177.065C719.809 177.065 720.509 176.89 721.139 176.54C721.769 176.176 722.259 175.665 722.609 175.007C722.973 174.349 723.155 173.6 723.155 172.76C723.155 171.92 722.973 171.178 722.609 170.534C722.259 169.876 721.769 169.365 721.139 169.001C720.509 168.637 719.809 168.455 719.039 168.455C718.255 168.455 717.548 168.637 716.918 169.001C716.302 169.365 715.812 169.876 715.448 170.534C715.098 171.178 714.923 171.92 714.923 172.76C714.923 173.6 715.098 174.349 715.448 175.007C715.812 175.665 716.302 176.176 716.918 176.54C717.548 176.89 718.255 177.065 719.039 177.065ZM732.2 178.388C731.136 178.388 730.177 178.15 729.323 177.674C728.469 177.184 727.797 176.512 727.307 175.658C726.817 174.804 726.572 173.838 726.572 172.76C726.572 171.682 726.817 170.716 727.307 169.862C727.797 169.008 728.469 168.343 729.323 167.867C730.177 167.391 731.136 167.153 732.2 167.153C733.264 167.153 734.223 167.391 735.077 167.867C735.931 168.343 736.596 169.008 737.072 169.862C737.562 170.716 737.807 171.682 737.807 172.76C737.807 173.838 737.562 174.804 737.072 175.658C736.596 176.512 735.931 177.184 735.077 177.674C734.223 178.15 733.264 178.388 732.2 178.388ZM732.2 177.065C732.984 177.065 733.684 176.89 734.3 176.54C734.93 176.176 735.42 175.665 735.77 175.007C736.12 174.349 736.295 173.6 736.295 172.76C736.295 171.92 736.12 171.171 735.77 170.513C735.42 169.855 734.93 169.351 734.3 169.001C733.684 168.637 732.984 168.455 732.2 168.455C731.416 168.455 730.709 168.637 730.079 169.001C729.463 169.351 728.973 169.855 728.609 170.513C728.259 171.171 728.084 171.92 728.084 172.76C728.084 173.6 728.259 174.349 728.609 175.007C728.973 175.665 729.463 176.176 730.079 176.54C730.709 176.89 731.416 177.065 732.2 177.065ZM742.279 169.4C742.629 168.658 743.147 168.098 743.833 167.72C744.533 167.342 745.394 167.153 746.416 167.153V168.602L746.059 168.581C744.897 168.581 743.987 168.938 743.329 169.652C742.671 170.366 742.342 171.367 742.342 172.655V178.283H740.851V167.237H742.279V169.4ZM755.405 177.611C755.125 177.863 754.775 178.059 754.355 178.199C753.949 178.325 753.522 178.388 753.074 178.388C752.038 178.388 751.24 178.108 750.68 177.548C750.12 176.988 749.84 176.197 749.84 175.175V168.497H747.866V167.237H749.84V164.822H751.331V167.237H754.691V168.497H751.331V175.091C751.331 175.749 751.492 176.253 751.814 176.603C752.15 176.939 752.626 177.107 753.242 177.107C753.55 177.107 753.844 177.058 754.124 176.96C754.418 176.862 754.67 176.722 754.88 176.54L755.405 177.611Z" fill="#FFB236"/>
<path opacity="0.5" fill-rule="evenodd" clip-rule="evenodd" d="M609.229 361.607C584.718 361.607 564.847 381.479 564.847 405.989C564.847 430.5 584.718 450.371 609.229 450.371C633.739 450.371 653.611 430.5 653.611 405.989H609.229V361.607Z" stroke="#212529" stroke-linecap="round" stroke-linejoin="round"/>
<path opacity="0.5" fill-rule="evenodd" clip-rule="evenodd" d="M623.244 347.592V391.974H667.626C667.626 367.463 647.755 347.592 623.244 347.592Z" stroke="#212529" stroke-linecap="round" stroke-linejoin="round"/>
<path d="M767.601 356.134L678.332 356.134C677.632 356.135 676.939 355.997 676.292 355.73C675.645 355.463 675.057 355.071 674.562 354.576C674.067 354.082 673.674 353.495 673.406 352.848C673.138 352.202 673 351.509 673 350.809C673 350.109 673.138 349.416 673.406 348.77C673.674 348.123 674.067 347.536 674.562 347.042C675.057 346.547 675.645 346.155 676.292 345.888C676.939 345.621 677.632 345.484 678.332 345.484L767.601 345.484C769.013 345.484 770.368 346.045 771.366 347.044C772.365 348.042 772.926 349.397 772.926 350.809C772.926 352.221 772.365 353.576 771.366 354.574C770.368 355.573 769.013 356.134 767.601 356.134Z" fill="#E6E6E6"/>
<path d="M767.601 372.469L678.332 372.469C677.632 372.47 676.939 372.332 676.292 372.065C675.645 371.798 675.057 371.406 674.562 370.911C674.067 370.417 673.674 369.83 673.406 369.183C673.138 368.537 673 367.844 673 367.144C673 366.444 673.138 365.751 673.406 365.105C673.674 364.458 674.067 363.871 674.562 363.377C675.057 362.882 675.645 362.49 676.292 362.223C676.939 361.956 677.632 361.819 678.332 361.819L767.601 361.819C769.013 361.819 770.368 362.38 771.366 363.379C772.365 364.377 772.926 365.732 772.926 367.144C772.926 368.556 772.365 369.91 771.366 370.909C770.368 371.908 769.013 372.469 767.601 372.469Z" fill="#E6E6E6"/>
<path d="M767.601 388.804L678.332 388.804C677.632 388.804 676.939 388.667 676.292 388.4C675.645 388.133 675.057 387.741 674.562 387.246C674.067 386.752 673.674 386.165 673.406 385.518C673.138 384.872 673 384.179 673 383.479C673 382.779 673.138 382.086 673.406 381.44C673.674 380.793 674.067 380.206 674.562 379.712C675.057 379.217 675.645 378.825 676.292 378.558C676.939 378.291 677.632 378.154 678.332 378.154L767.601 378.154C769.013 378.154 770.368 378.715 771.366 379.714C772.365 380.712 772.926 382.067 772.926 383.479C772.926 384.891 772.365 386.245 771.366 387.244C770.368 388.243 769.013 388.804 767.601 388.804Z" fill="#E6E6E6"/>
<path d="M767.601 405.139L678.332 405.139C677.632 405.139 676.939 405.002 676.292 404.735C675.645 404.468 675.057 404.076 674.562 403.581C674.067 403.087 673.674 402.5 673.406 401.853C673.138 401.207 673 400.514 673 399.814C673 399.114 673.138 398.421 673.406 397.775C673.674 397.128 674.067 396.541 674.562 396.047C675.057 395.552 675.645 395.16 676.292 394.893C676.939 394.626 677.632 394.488 678.332 394.489L767.601 394.489C769.013 394.489 770.368 395.05 771.366 396.049C772.365 397.047 772.926 398.402 772.926 399.814C772.926 401.226 772.365 402.58 771.366 403.579C770.368 404.578 769.013 405.139 767.601 405.139Z" fill="#E6E6E6"/>
<path d="M767.601 421.473L678.332 421.474C677.632 421.474 676.939 421.337 676.292 421.07C675.645 420.803 675.057 420.411 674.562 419.916C674.067 419.422 673.674 418.835 673.406 418.188C673.138 417.542 673 416.849 673 416.149C673 415.449 673.138 414.756 673.406 414.11C673.674 413.463 674.067 412.876 674.562 412.382C675.057 411.887 675.645 411.495 676.292 411.228C676.939 410.961 677.632 410.823 678.332 410.824L767.601 410.824C769.013 410.824 770.368 411.385 771.366 412.384C772.365 413.382 772.926 414.737 772.926 416.149C772.926 417.561 772.365 418.915 771.366 419.914C770.368 420.912 769.013 421.473 767.601 421.473Z" fill="#E6E6E6"/>
<path d="M767.601 437.808L678.332 437.809C677.632 437.809 676.939 437.672 676.292 437.405C675.645 437.138 675.057 436.746 674.562 436.251C674.067 435.757 673.674 435.169 673.406 434.523C673.138 433.877 673 433.184 673 432.484C673 431.784 673.138 431.091 673.406 430.445C673.674 429.798 674.067 429.211 674.562 428.716C675.057 428.222 675.645 427.83 676.292 427.563C676.939 427.295 677.632 427.158 678.332 427.159L767.601 427.159C769.013 427.159 770.368 427.72 771.366 428.719C772.365 429.717 772.926 431.072 772.926 432.484C772.926 433.896 772.365 435.25 771.366 436.249C770.368 437.247 769.013 437.808 767.601 437.808Z" fill="#E6E6E6"/>
<path d="M767.601 454.143L678.332 454.143C677.632 454.144 676.939 454.007 676.292 453.74C675.645 453.473 675.057 453.081 674.562 452.586C674.067 452.092 673.674 451.504 673.406 450.858C673.138 450.212 673 449.519 673 448.819C673 448.119 673.138 447.426 673.406 446.78C673.674 446.133 674.067 445.546 674.562 445.051C675.057 444.557 675.645 444.165 676.292 443.898C676.939 443.63 677.632 443.493 678.332 443.494L767.601 443.494C769.013 443.494 770.368 444.055 771.366 445.054C772.365 446.052 772.926 447.407 772.926 448.819C772.926 450.231 772.365 451.585 771.366 452.584C770.368 453.582 769.013 454.143 767.601 454.143Z" fill="#E6E6E6"/>
<path d="M734.068 207.485H566.437C565.737 207.486 565.044 207.349 564.398 207.082C563.751 206.815 563.163 206.423 562.668 205.928C562.173 205.434 561.78 204.846 561.512 204.2C561.244 203.554 561.106 202.861 561.106 202.161C561.106 201.461 561.244 200.768 561.512 200.122C561.78 199.475 562.173 198.888 562.668 198.393C563.163 197.899 563.751 197.507 564.398 197.24C565.044 196.972 565.737 196.835 566.437 196.836H734.068C735.479 196.838 736.831 197.4 737.829 198.398C738.826 199.396 739.386 200.75 739.386 202.161C739.386 203.572 738.826 204.925 737.829 205.924C736.831 206.922 735.479 207.484 734.068 207.485Z" fill="#E6E6E6"/>
<path d="M756.032 225.456H566.437C565.737 225.457 565.044 225.32 564.398 225.053C563.751 224.786 563.163 224.393 562.668 223.899C562.173 223.404 561.78 222.817 561.512 222.171C561.244 221.524 561.106 220.831 561.106 220.132C561.106 219.432 561.244 218.739 561.512 218.092C561.78 217.446 562.173 216.859 562.668 216.364C563.163 215.87 563.751 215.478 564.398 215.21C565.044 214.943 565.737 214.806 566.437 214.807H756.032C756.732 214.806 757.425 214.943 758.071 215.21C758.718 215.478 759.306 215.87 759.801 216.364C760.296 216.859 760.689 217.446 760.957 218.092C761.225 218.739 761.363 219.432 761.363 220.132C761.363 220.831 761.225 221.524 760.957 222.171C760.689 222.817 760.296 223.404 759.801 223.899C759.306 224.393 758.718 224.786 758.071 225.053C757.425 225.32 756.732 225.457 756.032 225.456Z" fill="#E6E6E6"/>
<path d="M756.032 241.791H566.437C565.737 241.792 565.044 241.655 564.398 241.388C563.751 241.12 563.163 240.728 562.668 240.234C562.173 239.739 561.78 239.152 561.512 238.506C561.244 237.859 561.106 237.166 561.106 236.466C561.106 235.767 561.244 235.074 561.512 234.427C561.78 233.781 562.173 233.194 562.668 232.699C563.163 232.205 563.751 231.812 564.398 231.545C565.044 231.278 565.737 231.141 566.437 231.142H756.032C756.732 231.141 757.425 231.278 758.071 231.545C758.718 231.812 759.306 232.205 759.801 232.699C760.296 233.194 760.689 233.781 760.957 234.427C761.225 235.074 761.363 235.767 761.363 236.466C761.363 237.166 761.225 237.859 760.957 238.506C760.689 239.152 760.296 239.739 759.801 240.234C759.306 240.728 758.718 241.12 758.071 241.388C757.425 241.655 756.732 241.792 756.032 241.791Z" fill="#E6E6E6"/>
<path d="M756.032 271.194H566.437C565.737 271.195 565.044 271.058 564.398 270.791C563.751 270.523 563.163 270.131 562.668 269.637C562.173 269.142 561.78 268.555 561.512 267.908C561.244 267.262 561.106 266.569 561.106 265.869C561.106 265.17 561.244 264.477 561.512 263.83C561.78 263.184 562.173 262.596 562.668 262.102C563.163 261.607 563.751 261.215 564.398 260.948C565.044 260.681 565.737 260.544 566.437 260.545H756.032C756.732 260.544 757.425 260.681 758.071 260.948C758.718 261.215 759.306 261.607 759.801 262.102C760.296 262.596 760.689 263.184 760.957 263.83C761.225 264.477 761.363 265.17 761.363 265.869C761.363 266.569 761.225 267.262 760.957 267.908C760.689 268.555 760.296 269.142 759.801 269.637C759.306 270.131 758.718 270.523 758.071 270.791C757.425 271.058 756.732 271.195 756.032 271.194Z" fill="#E6E6E6"/>
<path d="M756.032 303.864H566.437C565.737 303.865 565.044 303.728 564.398 303.46C563.751 303.193 563.163 302.801 562.668 302.307C562.173 301.812 561.78 301.225 561.512 300.578C561.244 299.932 561.106 299.239 561.106 298.539C561.106 297.839 561.244 297.147 561.512 296.5C561.78 295.854 562.173 295.266 562.668 294.772C563.163 294.277 563.751 293.885 564.398 293.618C565.044 293.351 565.737 293.214 566.437 293.215H756.032C756.732 293.214 757.425 293.351 758.071 293.618C758.718 293.885 759.306 294.277 759.801 294.772C760.296 295.266 760.689 295.854 760.957 296.5C761.225 297.147 761.363 297.839 761.363 298.539C761.363 299.239 761.225 299.932 760.957 300.578C760.689 301.225 760.296 301.812 759.801 302.307C759.306 302.801 758.718 303.193 758.071 303.46C757.425 303.728 756.732 303.865 756.032 303.864Z" fill="#E6E6E6"/>
<path d="M756.032 287.529H566.437C565.737 287.53 565.044 287.393 564.398 287.125C563.751 286.858 563.163 286.466 562.668 285.972C562.173 285.477 561.78 284.89 561.512 284.243C561.244 283.597 561.106 282.904 561.106 282.204C561.106 281.504 561.244 280.812 561.512 280.165C561.78 279.519 562.173 278.931 562.668 278.437C563.163 277.942 563.751 277.55 564.398 277.283C565.044 277.016 565.737 276.879 566.437 276.88H756.032C756.732 276.879 757.425 277.016 758.071 277.283C758.718 277.55 759.306 277.942 759.801 278.437C760.296 278.931 760.689 279.519 760.957 280.165C761.225 280.812 761.363 281.504 761.363 282.204C761.363 282.904 761.225 283.597 760.957 284.243C760.689 284.89 760.296 285.477 759.801 285.972C759.306 286.466 758.718 286.858 758.071 287.125C757.425 287.393 756.732 287.53 756.032 287.529Z" fill="#E6E6E6"/>
<path d="M756.032 321.832H566.437C565.737 321.833 565.044 321.696 564.398 321.429C563.751 321.162 563.163 320.77 562.668 320.275C562.173 319.781 561.78 319.193 561.512 318.547C561.244 317.9 561.106 317.208 561.106 316.508C561.106 315.808 561.244 315.115 561.512 314.469C561.78 313.822 562.173 313.235 562.668 312.74C563.163 312.246 563.751 311.854 564.398 311.587C565.044 311.319 565.737 311.182 566.437 311.183H756.032C756.732 311.182 757.425 311.319 758.071 311.587C758.718 311.854 759.306 312.246 759.801 312.74C760.296 313.235 760.689 313.822 760.957 314.469C761.225 315.115 761.363 315.808 761.363 316.508C761.363 317.208 761.225 317.9 760.957 318.547C760.689 319.193 760.296 319.781 759.801 320.275C759.306 320.77 758.718 321.162 758.071 321.429C757.425 321.696 756.732 321.833 756.032 321.832Z" fill="#E6E6E6"/>
<defs>
<clipPath id="clip0_3_1159">
<rect width="570.06" height="515.746" fill="white"/>
</clipPath>
</defs>
</svg>
