<svg width="717" height="441" viewBox="0 0 717 441" fill="none" xmlns="http://www.w3.org/2000/svg">
<g clip-path="url(#clip0_3_1261)">
<path opacity="0.1" d="M717 282.974C717.012 294.911 715.567 306.805 712.696 318.393C711.73 322.293 710.608 326.116 709.33 329.862C707.764 334.48 705.951 339.011 703.9 343.436C702.865 345.67 701.771 347.863 700.619 350.016C700.637 362.257 698.114 374.369 693.21 385.586C684.341 405.71 668.532 421.982 648.662 431.44C636.221 437.368 622.626 440.483 608.843 440.562H136.111C115.076 440.609 94.4046 435.091 76.1974 424.568C73.5067 423.011 70.885 421.353 68.3324 419.593C62.7898 415.768 57.5824 411.48 52.7666 406.774C46.2468 400.403 40.503 393.285 35.6546 385.568C24.2635 367.499 18.2292 346.576 18.2503 325.222C6.7145 305.001 -0.012207 280.779 -0.012207 254.751C-0.012207 221.911 10.6775 191.954 28.24 169.276C31.9014 164.538 35.9121 160.081 40.2385 155.94C44.5072 151.842 49.0955 148.09 53.9597 144.72C57.8501 142.018 61.9175 139.58 66.1348 137.422C67.8941 136.522 69.6594 135.683 71.4553 134.898C73.0319 134.199 74.6268 133.548 76.24 132.934C78.1759 132.196 80.1361 131.521 82.1206 130.909C84.1051 130.296 86.0633 129.757 87.995 129.291C90.8359 128.598 93.7254 128.034 96.6637 127.6C99.0987 127.242 101.534 126.992 103.969 126.798C105.905 126.66 107.857 126.579 109.825 126.554H110.89C113.057 126.554 115.212 126.639 117.349 126.785C117.574 126.335 117.818 125.879 118.043 125.429C118.895 123.812 119.778 122.194 120.667 120.607V120.564C120.819 120.29 120.971 120.017 121.129 119.749C121.848 118.454 122.596 117.171 123.364 115.9C123.717 115.292 124.064 114.72 124.423 114.142C124.502 114.002 124.581 113.868 124.672 113.729C125.038 113.12 125.409 112.512 125.786 111.904C127.665 108.908 129.619 105.959 131.649 103.056C131.825 102.806 131.99 102.563 132.166 102.32C132.483 101.87 132.775 101.426 133.128 100.982C133.968 99.8083 134.832 98.6285 135.703 97.4669C136.312 96.6459 136.92 95.8249 137.578 95.0343C139.161 92.991 140.786 90.9598 142.448 88.9529C144.11 86.9461 145.863 84.927 147.634 82.9506C147.878 82.6769 148.121 82.4093 148.377 82.1357L150.977 79.3078C151.104 79.174 151.214 79.0524 151.336 78.9308C151.646 78.5963 151.944 78.2618 152.279 77.9334C153.673 76.4617 155.104 75.0082 156.54 73.573C163.879 66.2889 171.696 59.5031 179.941 53.2611C180.264 53.0057 180.592 52.7624 180.915 52.5192C182.461 51.3515 184.032 50.2021 185.602 49.071C194.243 42.8819 203.273 37.2551 212.637 32.2255C213.282 31.8606 213.94 31.5139 214.603 31.1673C223.001 26.7323 231.636 22.7612 240.469 19.2721C245.282 17.3706 250.181 15.5948 255.164 13.9447C258.464 12.8683 261.775 11.8406 265.13 10.904C270.316 9.41611 275.568 8.07414 280.884 6.87813C296.547 3.36724 312.481 1.19843 328.513 0.395338C333.383 0.139919 338.308 0.0122107 343.287 0.0122107C367.315 -0.0195671 391.249 3.00491 414.511 9.0127C414.752 9.37582 415.081 9.67184 415.467 9.87292C415.854 10.074 416.285 10.1735 416.721 10.1621H418.766C419.655 10.3993 420.538 10.6486 421.427 10.904C426.39 12.3352 431.282 13.8941 436.104 15.5806L437.321 16.0185C449.221 20.2456 460.799 25.3267 471.965 31.222C482.03 36.5258 491.721 42.5075 500.972 49.1257C502.397 50.1474 503.801 51.1792 505.185 52.2212C506.865 51.1387 508.574 50.1069 510.31 49.1257C517.019 45.3112 524.143 42.279 531.544 40.0887C547.017 35.5144 563.389 34.8747 579.172 38.2278C599.414 42.5152 617.737 53.1577 632.536 68.2944C638.564 74.4676 643.934 81.2504 648.558 88.5333C648.893 89.0563 649.228 89.5854 649.55 90.1206C653.517 96.5884 656.926 103.381 659.741 110.426C659.844 110.682 659.948 110.931 660.039 111.187C662.638 117.78 664.734 124.559 666.309 131.468C666.382 131.815 666.468 132.167 666.541 132.52C668.014 139.206 669.015 145.988 669.536 152.814C669.536 153.057 669.536 153.306 669.584 153.556C669.84 157.087 669.97 160.657 669.974 164.265C669.974 167.488 669.864 170.687 669.664 173.856C669.664 174.202 669.615 174.567 669.584 174.92C669.53 175.844 669.45 176.744 669.371 177.675C674.02 181.419 678.372 185.518 682.386 189.935C684.16 191.869 685.877 193.878 687.536 195.962C692.594 202.291 697.037 209.086 700.807 216.255C711.083 235.704 717 258.533 717 282.974Z" fill="#F9A826"/>
<path opacity="0.1" d="M648.211 402.675C648.211 416.498 633.869 429.433 608.843 440.574H136.111C114.238 440.574 93.7538 432.668 76.1974 418.882C71.7839 413.652 69.4585 408.233 69.4585 402.669C69.4585 387.976 85.6756 374.262 113.715 362.671L114.506 362.355C122.42 359.114 131.265 356.055 140.932 353.178C141.176 353.105 141.425 353.038 141.669 352.953C149.339 350.703 157.498 348.57 166.147 346.555C166.42 346.495 166.688 346.428 166.962 346.379C170.298 345.588 173.701 344.853 177.177 344.117L178.516 343.837C203.81 338.595 232.561 334.435 263.742 331.613H263.778C268.145 331.208 272.558 330.845 277.019 330.525C281.98 330.129 287.002 329.795 292.079 329.485C295.957 329.236 299.883 329.023 303.822 328.828C303.836 328.822 303.852 328.819 303.868 328.819C303.883 328.819 303.899 328.822 303.913 328.828C321.683 327.934 340.043 327.466 358.817 327.466C405.24 327.466 449.119 330.312 488 335.372C488.036 335.365 488.073 335.365 488.109 335.372C494.087 336.15 499.956 336.971 505.678 337.847C507.315 338.102 508.947 338.358 510.548 338.619C517.005 339.661 523.295 340.762 529.419 341.921C601.435 355.598 648.211 377.729 648.211 402.675Z" fill="#F9A826"/>
<path d="M530.527 147.949C530.527 147.949 524.086 145.34 503.596 154.723C483.105 164.107 480.548 162.921 475.246 161.51C469.944 160.099 466.985 159.735 461.3 151.896C461.3 151.896 457.288 130.179 453.386 126.81C449.484 123.441 433.011 128.731 433.011 128.731C433.011 128.731 413.233 133.262 409.464 106.838C409.464 106.838 412.137 86.94 408.497 80.8342C408.497 80.8342 415.85 83.9966 427.977 78.8882C440.103 73.7798 449.813 84.3919 449.813 84.3919C449.813 84.3919 452.856 92.2977 452.552 97.0169C452.248 101.736 454.171 103.506 459.954 101.225C459.954 101.225 462.797 97.1872 458.773 90.5098C454.75 83.8324 451.876 78.8638 452.996 73.6825C454.116 68.5011 457.349 61.3068 467.728 57.7127C478.107 54.1186 492.2 53.4557 498.963 50.6157C505.726 47.7756 507.394 45.9634 507.394 45.9634C507.394 45.9634 503.231 50.1291 513.038 67.7957C522.845 85.4622 516.593 93.1248 516.593 93.1248C516.593 93.1248 511.376 105.549 488.34 104.54C488.34 104.54 466.145 105.348 478.247 114.75C478.247 114.75 485.997 113.175 497.581 109.496C509.166 105.817 517.53 121.002 519.606 131.565C521.682 142.129 530.527 147.949 530.527 147.949Z" fill="#F9A826"/>
<path d="M500.692 59.3424L500.814 59.3059C501.703 62.675 491.786 76.2244 483.306 86.9946L483.209 86.9155C495.165 71.7485 501.38 61.9513 500.692 59.3424Z" fill="#444053"/>
<path d="M483.379 86.7087L483.434 86.8425C476.659 95.4417 468.142 105.695 461.324 113.315C460.673 114.039 460.028 114.799 459.407 115.577L459.212 115.419C459.821 114.641 460.484 113.874 461.136 113.151C467.947 105.561 476.598 95.3139 483.379 86.7087Z" fill="#444053"/>
<path d="M459.376 115.225L459.51 115.456C447.104 130.933 446.282 154.985 446.251 155.173L443.634 152.133C443.664 151.938 446.885 130.811 459.376 115.225Z" fill="#444053"/>
<path d="M516.167 139.556C516.167 139.556 501.557 131.955 490.137 134.691C478.716 137.428 453.033 125.022 453.033 125.022C453.033 125.022 442.136 120.601 439.945 115.559C439.945 115.559 432.463 107.653 432.031 103.573C431.599 99.492 424.324 89.2083 419.576 88.813" stroke="#444053" stroke-miterlimit="10"/>
<path d="M514.018 146.872C514.018 146.872 506.652 141.91 507.511 136.133" stroke="#444053" stroke-miterlimit="10"/>
<path d="M502.72 153.276C502.72 153.276 492.182 149.457 491.153 134.472" stroke="#444053" stroke-miterlimit="10"/>
<path d="M485.729 157.156C485.729 157.156 475.66 148.812 479.002 134.229" stroke="#444053" stroke-miterlimit="10"/>
<path d="M465.281 153.082C465.281 153.082 458.585 139.033 464.545 129.893" stroke="#444053" stroke-miterlimit="10"/>
<path d="M516.307 130.294C516.307 130.294 508.691 132.727 510.323 136.716" stroke="#444053" stroke-miterlimit="10"/>
<path d="M507.115 116.508C507.115 116.508 496.918 119.737 496.681 134.144" stroke="#444053" stroke-miterlimit="10"/>
<path d="M492.894 113.151C492.894 113.151 483.611 124.596 484.293 134.995" stroke="#444053" stroke-miterlimit="10"/>
<path d="M476.64 117.639C476.64 117.639 467.424 126.445 468.599 131.34" stroke="#444053" stroke-miterlimit="10"/>
<path d="M471.083 114.531C471.083 114.531 462.438 116.076 461.227 113.242" stroke="#444053" stroke-miterlimit="10"/>
<path d="M459.851 104.108C459.851 104.108 464.216 109.885 465.33 108.59" stroke="#444053" stroke-miterlimit="10"/>
<path d="M503.146 100.453C503.146 100.453 481.352 102.034 476.421 95.4661" stroke="#444053" stroke-miterlimit="10"/>
<path d="M455.292 74.99C455.292 74.99 465.512 96.9135 472.945 99.7049" stroke="#444053" stroke-miterlimit="10"/>
<path d="M465.993 64.5481C465.993 64.5481 472.269 84.7141 480.049 91.0083" stroke="#444053" stroke-miterlimit="10"/>
<path d="M512.313 83.808C512.313 83.808 495.743 90.9111 485.796 83.7229" stroke="#444053" stroke-width="0.75" stroke-miterlimit="10"/>
<path d="M480.75 60.2485C480.75 60.2485 484.536 75.0689 489.637 78.6509" stroke="#444053" stroke-width="0.75" stroke-miterlimit="10"/>
<path d="M509.811 67.1997C509.811 67.1997 500.497 70.7269 497.027 68.0268" stroke="#444053" stroke-width="0.75" stroke-miterlimit="10"/>
<path d="M451.87 108.948C451.87 108.948 451.87 121.871 448.352 122.79" stroke="#444053" stroke-miterlimit="10"/>
<path d="M423.083 125.691C423.083 125.691 437.084 126.907 443.518 119.676" stroke="#444053" stroke-miterlimit="10"/>
<path d="M448.266 93.6843C448.266 93.6843 444.882 106.79 435.543 110.323" stroke="#444053" stroke-miterlimit="10"/>
<path d="M414.694 111.886C414.694 111.886 424.592 115.322 433.109 106.571" stroke="#444053" stroke-miterlimit="10"/>
<path d="M437.254 82.4153C437.254 82.4153 436.323 93.5443 430.266 98.756" stroke="#444053" stroke-miterlimit="10"/>
<path d="M415.071 94.9248C415.071 94.9248 423.283 94.9795 425.207 92.3037" stroke="#444053" stroke-miterlimit="10"/>
<path d="M474.467 137.185H240.585V255.128H474.467V137.185Z" fill="#33323D"/>
<path d="M548.065 290.959H167.729V368.595H548.065V290.959Z" fill="#33323D"/>
<path d="M258.519 310.365H453.545L492.401 441H217.422L258.519 310.365Z" fill="white"/>
<path d="M156.894 244.674V284.988V293.477V368.589H229.749V296.931H486.046V368.589H558.901V293.477V284.988V244.674H156.894Z" fill="#504F60"/>
<path opacity="0.1" d="M558.901 244.674H156.894V284.981H558.901V244.674Z" fill="#33323D"/>
<path opacity="0.8" d="M537.236 270.806C540.537 270.806 543.214 268.132 543.214 264.834C543.214 261.536 540.537 258.862 537.236 258.862C533.934 258.862 531.258 261.536 531.258 264.834C531.258 268.132 533.934 270.806 537.236 270.806Z" fill="#8CCF4D"/>
<path opacity="0.8" d="M510.335 270.806C513.636 270.806 516.313 268.132 516.313 264.834C516.313 261.536 513.636 258.862 510.335 258.862C507.033 258.862 504.357 261.536 504.357 264.834C504.357 268.132 507.033 270.806 510.335 270.806Z" fill="#FA5959"/>
<path d="M465.878 108.815H249.18V237.206H465.878V108.815Z" fill="white"/>
<path d="M498.842 296.208C499.298 301.176 495.542 305.999 496.638 310.864C496.869 311.904 497.32 312.889 497.484 313.905C497.935 316.793 496.212 319.53 494.562 321.95L480.421 342.737C479.854 343.648 479.175 344.486 478.4 345.23C475.691 347.662 471.637 347.383 468.087 348.1C465.592 348.606 463.236 349.643 461.178 351.141C461.089 351.212 461.029 351.314 461.012 351.427C460.995 351.54 461.022 351.655 461.087 351.749C461.672 352.551 462.448 353.194 463.346 353.619C464.243 354.043 465.233 354.237 466.225 354.182C466.596 354.668 466.225 355.398 465.713 355.739C464.952 356.262 463.887 356.402 463.759 357.691C463.706 358.139 463.795 358.592 464.015 358.986C464.587 359.857 465.475 360.472 466.493 360.701C471.363 362.197 476.677 359.57 480.342 355.994C484.006 352.418 486.636 347.906 490.234 344.263C492.224 342.25 494.495 340.523 496.541 338.571C500.631 334.679 503.846 329.941 506.889 325.192C507.894 323.814 508.652 322.273 509.13 320.637C509.507 319.019 509.336 317.31 509.775 315.705C510.347 313.607 511.887 311.934 513.166 310.171C515.68 306.716 517.354 302.496 517.019 298.239C516.684 293.982 514.054 289.792 510.037 288.344C508.791 287.849 507.419 287.766 506.122 288.107C504.473 288.612 503.261 289.974 502.135 291.276L499.45 294.371C498.781 295.056 498.25 295.863 497.886 296.749C497.713 297.195 497.673 297.682 497.771 298.151C497.87 298.619 498.102 299.049 498.44 299.388" fill="#FBBEBE"/>
<path opacity="0.05" d="M498.842 296.208C499.298 301.176 495.542 305.999 496.638 310.864C496.869 311.904 497.32 312.889 497.484 313.905C497.935 316.793 496.212 319.53 494.562 321.95L480.421 342.737C479.854 343.648 479.175 344.486 478.4 345.23C475.691 347.662 471.637 347.383 468.087 348.1C465.592 348.606 463.236 349.643 461.178 351.141C461.089 351.212 461.029 351.314 461.012 351.427C460.995 351.54 461.022 351.655 461.087 351.749C461.672 352.551 462.448 353.194 463.346 353.619C464.243 354.043 465.233 354.237 466.225 354.182C466.596 354.668 466.225 355.398 465.713 355.739C464.952 356.262 463.887 356.402 463.759 357.691C463.706 358.139 463.795 358.592 464.015 358.986C464.587 359.857 465.475 360.472 466.493 360.701C471.363 362.197 476.677 359.57 480.342 355.994C484.006 352.418 486.636 347.906 490.234 344.263C492.224 342.25 494.495 340.523 496.541 338.571C500.631 334.679 503.846 329.941 506.889 325.192C507.894 323.814 508.652 322.273 509.13 320.637C509.507 319.019 509.336 317.31 509.775 315.705C510.347 313.607 511.887 311.934 513.166 310.171C515.68 306.716 517.354 302.496 517.019 298.239C516.684 293.982 514.054 289.792 510.037 288.344C508.791 287.849 507.419 287.766 506.122 288.107C504.473 288.612 503.261 289.974 502.135 291.276L499.45 294.371C498.781 295.056 498.25 295.863 497.886 296.749C497.713 297.195 497.673 297.682 497.771 298.151C497.87 298.619 498.102 299.049 498.44 299.388" fill="black"/>
<path d="M509.549 424.094C506.457 425.973 502.61 426.095 499.018 425.651C498.409 425.584 497.758 425.541 497.387 425.985C496.851 426.636 497.484 427.585 498.135 428.108C500.257 429.694 502.748 430.718 505.373 431.081C507.717 431.408 510.081 431.564 512.447 431.55C518.9 431.659 525.389 431.769 531.781 430.838C532.15 430.81 532.509 430.705 532.834 430.528C533.247 430.24 533.533 429.805 533.632 429.312C534.076 427.658 533.23 425.87 531.958 424.72C530.685 423.571 529.048 422.926 527.447 422.288L521.834 420.104C520.513 419.587 518.401 418.231 516.964 418.335C514.34 418.548 511.777 422.792 509.549 424.094Z" fill="#3F3D56"/>
<path opacity="0.05" d="M509.549 424.094C506.457 425.973 502.61 426.095 499.018 425.651C498.409 425.584 497.758 425.541 497.387 425.985C496.851 426.636 497.484 427.585 498.135 428.108C500.257 429.694 502.748 430.718 505.373 431.081C507.717 431.408 510.081 431.564 512.447 431.55C518.9 431.659 525.389 431.769 531.781 430.838C532.15 430.81 532.509 430.705 532.834 430.528C533.247 430.24 533.533 429.805 533.632 429.312C534.076 427.658 533.23 425.87 531.958 424.72C530.685 423.571 529.048 422.926 527.447 422.288L521.834 420.104C520.513 419.587 518.401 418.231 516.964 418.335C514.34 418.548 511.777 422.792 509.549 424.094Z" fill="black"/>
<path d="M513.464 349.627C511.132 352.734 508.709 356.316 509.288 360.166C509.598 362.24 510.761 364.07 511.613 365.986C512.68 368.621 513.47 371.36 513.969 374.159C514.846 378.228 515.722 382.308 516.258 386.438C516.867 391.102 514.006 404.597 513.738 409.298C513.671 410.429 513.543 411.657 512.752 412.472C512.441 412.794 512.027 413.08 511.893 413.476C511.808 413.878 511.873 414.298 512.076 414.655C513.397 417.629 516.094 419.837 519.089 421.102C522.084 422.367 529.37 424.538 532.621 424.653C533.053 424.705 533.491 424.647 533.893 424.483C534.332 424.221 534.677 423.827 534.88 423.358C537.229 418.876 534.971 402.918 535.008 397.852C535.008 393.595 536.036 389.436 535.854 385.215C535.701 381.828 534.794 378.526 534.466 375.144C533.924 369.604 534.941 364.046 535.963 358.572C536.742 354.382 537.522 350.186 538.52 346.039C539.129 343.515 539.835 340.961 541.229 338.741C542.331 336.996 543.828 335.542 545.088 333.876C548.581 329.302 550.131 323.539 549.404 317.833C549.331 317.274 541.296 319.87 540.596 320.174C537.712 321.399 535.059 323.106 532.749 325.222C530.923 326.986 529.431 329.351 527.8 331.334C525.499 334.131 523.228 336.951 520.988 339.793C518.443 343.057 515.935 346.335 513.464 349.627Z" fill="#464353"/>
<path opacity="0.05" d="M513.464 349.426C511.132 352.534 508.709 356.116 509.288 359.971C509.598 362.039 510.761 363.87 511.613 365.785C512.679 368.421 513.469 371.16 513.969 373.959C514.846 378.027 515.722 382.108 516.258 386.237C516.867 390.901 514.006 404.402 513.738 409.103C513.671 410.228 513.543 411.463 512.752 412.272C512.441 412.594 512.027 412.88 511.893 413.275C511.801 413.689 511.866 414.123 512.076 414.491C513.397 417.459 516.094 419.673 519.089 420.931C522.084 422.19 529.37 423.364 532.621 423.467C533.053 423.519 533.491 423.461 533.893 423.297C534.332 423.035 534.677 422.641 534.88 422.172C537.229 417.69 534.971 402.748 535.008 397.688C535.008 393.431 536.036 389.266 535.854 385.045C535.701 381.658 534.794 378.355 534.466 374.974C533.924 369.434 534.941 363.876 535.963 358.408C536.742 354.212 537.522 350.016 538.52 345.869C539.129 343.345 539.835 340.791 541.229 338.571C542.331 336.832 543.828 335.372 545.088 333.742C548.577 329.167 550.127 323.405 549.404 317.699C549.331 317.134 541.296 319.731 540.596 320.041C537.71 321.267 535.056 322.978 532.749 325.101C530.923 326.87 529.431 329.23 527.8 331.182C525.499 333.979 523.228 336.801 520.988 339.647C518.443 342.891 515.935 346.15 513.464 349.426Z" fill="black"/>
<path d="M487.476 281.205C494.715 281.205 500.582 275.343 500.582 268.111C500.582 260.88 494.715 255.018 487.476 255.018C480.238 255.018 474.37 260.88 474.37 268.111C474.37 275.343 480.238 281.205 487.476 281.205Z" fill="#FBBEBE"/>
<path d="M499.274 267.564C500.484 269.495 502.071 271.163 503.94 272.469C505.809 273.775 507.921 274.692 510.152 275.166L509.166 278.736C507.461 284.896 505.513 291.409 500.783 295.678C501.301 293.592 500.631 291.348 499.45 289.554C498.187 287.809 496.69 286.246 495 284.908L487.458 278.352C487.233 278.187 487.041 277.98 486.892 277.744C486.709 277.283 486.709 276.77 486.892 276.309C487.854 273.323 490.599 271.444 492.821 269.437C493.939 268.391 494.939 267.227 495.804 265.965C497.35 263.818 498.281 265.965 499.274 267.564Z" fill="#FBBEBE"/>
<path d="M470.206 254.951L469.914 252.519C471.983 253.054 473.944 251.302 475.265 249.478C476.586 247.654 477.815 245.513 479.83 244.759C482.265 243.835 484.871 245.312 487.208 246.529C489.829 247.986 492.706 248.925 495.682 249.296C496.157 249.312 496.628 249.389 497.082 249.527C498.604 250.068 499.329 251.959 499.548 253.705C499.767 255.45 499.706 257.274 500.461 258.819C501.027 259.987 502.007 260.856 502.604 262.006C504.205 265.107 502.658 269.34 504.351 272.381L500.15 268.531C499.761 268.178 499.219 267.814 498.799 268.112C498.379 268.41 498.44 268.86 498.3 269.267C497.892 270.483 496.4 270.824 495.311 270.356C494.221 269.887 493.436 268.853 492.638 267.923C490.782 265.734 488.572 263.812 485.942 262.875C484.804 262.439 483.586 262.251 482.369 262.324C481.152 262.396 479.965 262.727 478.887 263.295C476.927 264.402 475.49 266.98 473.091 267.072C469.798 267.193 468.428 261.069 466.9 258.649C467.457 258.228 467.848 257.626 468.006 256.947C468.164 256.268 468.078 255.556 467.765 254.933C468.033 254.83 470.163 254.556 470.206 254.951Z" fill="#464353"/>
<path d="M524.835 423.99C522.245 426.298 518.882 427.55 515.412 427.499C514.529 427.499 513.305 427.669 513.299 428.551C513.315 428.814 513.403 429.066 513.555 429.281C514.654 431.105 516.388 432.461 518.425 433.088C520.312 433.66 522.333 433.562 524.306 433.465L530.058 433.167C531.142 433.106 532.232 433.052 533.315 432.918C534.399 432.784 535.567 432.559 536.7 432.395C539.473 431.999 542.278 431.866 545.076 431.999C545.819 432.03 546.677 431.999 547.14 431.44C547.602 430.88 547.353 429.871 547.182 429.062C546.842 427.396 547.182 425.65 546.866 423.978C546.312 421.041 543.786 418.797 540.998 417.732C538.41 416.747 533.82 415.622 531.367 417.258C528.737 419.022 527.155 421.892 524.835 423.99Z" fill="#3F3D56"/>
<path d="M530.533 325.708C531.045 328.141 533.376 329.965 533.449 332.398C533.504 334.368 532.092 336.047 531.081 337.719C530.116 339.471 529.301 341.302 528.646 343.192C526.725 348.098 524.344 352.812 521.536 357.271C520.185 359.405 518.675 361.729 518.985 364.24C519.198 365.412 519.61 366.539 520.203 367.573L524.251 375.606C525.14 377.211 525.835 378.916 526.321 380.684C526.668 382.211 526.704 383.792 526.93 385.349C527.569 390.275 529.882 395.237 528.518 400.011C528.397 400.425 527.971 400.923 527.648 400.619C528.981 403.113 530.083 405.63 529.955 408.458C529.9 409.942 529.444 411.499 529.998 412.873C530.311 413.408 530.518 413.999 530.606 414.613C530.606 415.014 530.418 415.397 530.375 415.829C530.266 416.966 531.306 417.915 532.396 418.261C533.486 418.608 534.661 418.596 535.756 418.924C537.869 419.532 539.366 421.357 541.174 422.622C543.005 423.89 545.168 424.594 547.396 424.647C547.712 424.68 548.03 424.617 548.309 424.464C548.469 424.326 548.597 424.155 548.685 423.963C548.773 423.771 548.819 423.563 548.82 423.352C548.917 422.344 548.765 421.329 548.376 420.395C547.988 419.46 547.375 418.636 546.592 417.994C546.252 417.777 545.97 417.481 545.77 417.13C545.668 416.819 545.641 416.487 545.691 416.163C546.02 411.742 545.941 407.3 545.454 402.894C545.234 401.498 545.163 400.084 545.241 398.673C545.363 397.499 545.716 396.332 545.582 395.158C545.448 393.984 544.857 392.926 544.504 391.795C543.895 389.788 544.054 387.635 543.987 385.531C543.877 381.882 543.043 378.307 542.209 374.755C541.887 373.362 541.521 371.897 540.529 370.863C539.689 369.987 538.331 369.142 538.648 367.974C538.821 367.542 539.082 367.15 539.415 366.825C539.808 366.334 540.096 365.769 540.262 365.164C540.429 364.558 540.47 363.925 540.383 363.304C540.739 363.398 541.117 363.365 541.451 363.209C541.785 363.054 542.053 362.786 542.209 362.452C548.79 359.357 554.11 353.154 556.454 346.27C556.586 345.762 556.791 345.277 557.063 344.828C557.672 343.977 558.731 343.612 559.668 343.138C562.615 341.66 564.654 338.881 566.523 336.162C567.612 334.581 568.696 332.951 569.165 331.096C569.421 329.897 569.543 328.674 569.53 327.448L569.694 321.111C569.727 320.701 569.686 320.289 569.573 319.894C569.418 319.516 569.185 319.174 568.891 318.891C567.106 316.992 564.759 315.713 562.195 315.242C560.466 314.932 558.7 314.993 556.953 314.847C553.562 314.567 550.214 313.521 546.824 313.764C541.491 314.154 536.749 317.845 534.235 322.558C533.352 324.243 532.427 325.708 530.533 325.708Z" fill="#464353"/>
<path d="M500.948 284.501C501.025 285.478 500.894 286.46 500.564 287.383C500.15 288.271 499.103 288.958 498.196 288.6C498.47 287.991 497.74 287.268 497.064 287.347C496.73 287.421 496.419 287.576 496.158 287.797C495.897 288.019 495.694 288.3 495.566 288.618C495.112 289.522 494.961 290.547 495.134 291.543C495.347 292.759 496.066 293.976 495.877 295.192C495.725 296.226 494.964 297.26 495.372 298.233C495.634 298.67 495.962 299.064 496.346 299.4C496.881 300.056 497.143 300.892 497.079 301.735C497.014 302.578 496.627 303.364 495.999 303.931L506.214 304.132C505.842 305.84 506.603 307.586 507.48 309.1C509.933 313.262 513.317 316.8 517.367 319.438C521.417 322.076 526.024 323.741 530.825 324.304C530.566 324.457 530.344 324.665 530.175 324.914C530.006 325.162 529.894 325.446 529.848 325.743C529.801 326.04 529.821 326.343 529.906 326.632C529.991 326.92 530.138 327.187 530.338 327.411C531.166 328.232 532.572 328.129 533.613 327.594C534.654 327.059 535.476 326.177 536.426 325.496C538.101 324.303 540.149 323.751 542.197 323.939C543.475 324.06 544.717 324.474 546.002 324.547C549.788 324.748 553.039 322.029 556.661 320.898C559.315 320.083 562.316 320.083 564.575 318.429C565.536 317.717 566.322 316.55 566.042 315.388C565.804 314.722 565.429 314.112 564.94 313.6C563.655 311.946 562.9 309.951 561.987 308.072C560.166 304.348 557.661 300.998 554.603 298.196C552.3 296.179 549.859 294.324 547.298 292.644C546.675 292.179 546.011 291.772 545.314 291.428C544.384 291.125 543.477 290.757 542.599 290.327C541.381 289.573 540.705 288.241 539.786 287.164C537.759 284.805 534.648 283.716 532.152 281.861C530.478 280.645 529.005 278.979 527.002 278.377C526.034 278.085 525 278.061 524.026 277.769C521.822 277.1 520.215 275.141 518.048 274.351C516.331 273.743 514.444 273.889 512.63 273.664C510.634 273.416 508.728 272.693 507.072 271.553C506.522 271.111 505.906 270.758 505.246 270.507C502.512 269.674 502.287 274.764 502.031 276.534C501.624 279.24 500.948 281.843 500.948 284.501Z" fill="#F9A826"/>
<path d="M503.614 301.59C504.071 306.558 500.315 311.375 501.41 316.246C501.642 317.286 502.092 318.271 502.257 319.286C502.713 322.175 500.984 324.912 499.335 327.326L485.193 348.064C484.626 348.976 483.947 349.813 483.172 350.557C480.463 352.99 476.409 352.71 472.86 353.428C470.365 353.934 468.009 354.971 465.951 356.468C465.861 356.539 465.802 356.641 465.785 356.754C465.768 356.867 465.794 356.982 465.859 357.076C466.443 357.879 467.22 358.523 468.117 358.948C469.015 359.373 470.005 359.566 470.997 359.509C471.369 360.002 470.997 360.725 470.486 361.066C469.725 361.595 468.66 361.735 468.532 363.024C468.478 363.472 468.568 363.925 468.787 364.319C469.362 365.188 470.249 365.803 471.265 366.034C476.135 367.53 481.449 364.903 485.114 361.327C488.779 357.751 491.409 353.239 495.012 349.596C497.003 347.583 499.274 345.856 501.313 343.904C505.41 340.012 508.588 335.274 511.662 330.525C512.666 329.147 513.424 327.606 513.902 325.97C514.279 324.352 514.109 322.643 514.547 321.038C515.12 318.94 516.66 317.261 517.938 315.504C520.452 312.05 522.126 307.829 521.791 303.572C521.457 299.315 518.827 295.125 514.809 293.678C513.564 293.179 512.191 293.096 510.895 293.44C509.251 293.945 508.034 295.307 506.907 296.609L504.223 299.704C503.554 300.388 503.024 301.196 502.664 302.082C502.49 302.527 502.45 303.013 502.547 303.48C502.644 303.948 502.875 304.377 503.212 304.715" fill="#FBBEBE"/>
<path d="M510.773 281.174C508.911 281.284 506.865 281.466 505.55 282.792C505.003 283.401 504.558 284.095 504.235 284.848C502.963 287.444 501.721 290.157 501.63 293.045C501.551 295.356 502.239 297.613 502.573 299.899C502.866 301.797 502.123 303.73 501.965 305.652C504.272 304.947 507.316 303.986 509.41 302.794C510.782 301.897 512.24 301.139 513.762 300.532C515.984 299.796 519.716 301.061 521.81 302.101C521.926 300.617 520.818 298.044 520.933 296.56C520.952 295.939 521.063 295.325 521.262 294.736C521.577 294.113 521.95 293.52 522.376 292.966C523.184 291.661 523.555 290.133 523.438 288.603C523.321 287.073 522.721 285.62 521.725 284.452C519.856 282.348 516.922 281.558 514.128 281.235C512.366 281.03 510.591 280.967 508.819 281.047" fill="#F9A826"/>
<path d="M234.978 238.629L222.974 221.236C222.974 221.236 222.748 216.93 221.963 215.927C221.178 214.923 221.793 212.685 221.793 212.685C221.793 212.685 222.639 211.469 221.908 211.341C221.178 211.214 221.793 208.489 221.793 208.489L221.738 204.129C221.738 204.129 222.414 199.933 221.854 198.929C221.688 198.657 221.605 198.342 221.615 198.024C221.625 197.706 221.727 197.397 221.908 197.135C221.908 197.135 222.578 194.733 221.908 194.094C221.239 193.456 221.403 189.734 221.567 186.766C221.732 183.799 220.393 182.126 220.393 181.682C220.393 181.238 215.961 176.872 215.961 176.477C215.961 176.081 213.154 174.464 211.468 174.044C209.782 173.624 208.948 173.259 209.003 173.034C209.058 172.809 206.367 171.922 206.367 171.922C206.367 171.922 204.011 171.751 203.11 170.578C202.209 169.404 199.458 169.063 199.391 169.051L199.336 168.82C199.336 168.735 199.305 168.65 199.287 168.565C199.509 168.211 199.713 167.845 199.896 167.47L200.054 167.129C201.04 167.136 202.004 166.836 202.812 166.272C203.21 165.942 203.535 165.534 203.766 165.072C203.998 164.61 204.131 164.106 204.157 163.59C204.205 162.556 203.978 161.528 203.5 160.61C203.007 159.607 202.282 158.561 202.538 157.466C202.647 156.998 202.927 156.584 203.074 156.122C203.292 155.22 203.147 154.268 202.672 153.471C202.246 152.662 201.655 151.944 201.18 151.16C200.578 150.155 200.175 149.044 199.993 147.888C199.959 147.272 199.813 146.668 199.561 146.106C199.306 145.709 198.97 145.372 198.575 145.115C196.818 143.863 194.699 143.222 192.542 143.29C191.014 143.339 189.498 143.752 187.976 143.564C187.07 143.408 186.178 143.176 185.31 142.871C183.429 142.311 181.256 142.086 179.618 143.163C177.981 144.239 177.329 146.355 176.215 148.028C175.235 149.487 173.78 150.716 173.05 152.285C173.05 152.285 173.05 152.224 173.05 152.199C172.866 152.557 172.725 152.934 172.63 153.325C172.421 154.564 172.506 155.834 172.879 157.034C172.962 157.68 173.286 158.271 173.786 158.688C174.34 159.047 175.101 158.962 175.747 159.078L175.674 159.394C175.017 162.537 175.566 165.813 177.214 168.57C178.861 171.328 181.486 173.366 184.567 174.281C184.567 174.397 184.567 174.506 184.567 174.622C184.566 174.943 184.546 175.264 184.507 175.583C184.507 175.583 178.863 174.421 177.348 175.205C175.832 175.99 172.861 176.604 172.411 177.03C171.96 177.456 170.84 177.145 169.83 179.773C168.819 182.4 168.709 185.082 167.395 186.316C166.08 187.551 165.434 188.384 165.374 189.278C165.313 190.172 165.544 190.397 165.039 190.677C164.533 190.956 163.821 192.13 164.028 192.58C164.106 192.888 164.089 193.211 163.98 193.51C163.872 193.808 163.677 194.066 163.419 194.252C163.153 194.439 162.941 194.693 162.803 194.987C162.665 195.282 162.607 195.607 162.634 195.931C162.634 195.931 162.293 197.147 161.508 197.445C160.723 197.743 160.217 199.568 160.217 199.568L157.673 202.487L152.632 196.916C152.254 196.5 151.726 196.25 151.163 196.222C150.601 196.193 150.05 196.388 149.631 196.764L147.154 198.99C146.199 199.222 145.336 199.734 144.676 200.462C144.139 201.018 143.704 201.664 143.392 202.371L142.04 203.587C141.613 204.116 141.352 204.758 141.289 205.435C141.226 206.111 141.365 206.79 141.687 207.388L144.919 210.958V210.989C143.774 211.089 142.686 211.532 141.797 212.26C136.975 216.517 136.927 220.427 137.645 222.215C138.363 224.003 144.487 230.881 144.487 230.881C144.487 230.881 148.042 235.497 153.174 237.947L153.138 237.99C153.032 238.1 152.932 238.216 152.839 238.337L152.754 238.446L152.675 238.556L152.584 238.689C152.559 238.725 152.537 238.761 152.517 238.799L152.419 238.957C152.397 238.992 152.376 239.029 152.358 239.066C152.316 239.139 152.279 239.212 152.243 239.285C152.229 239.309 152.217 239.333 152.206 239.358C152.158 239.456 152.109 239.553 152.066 239.662L152.018 239.772C151.987 239.845 151.963 239.918 151.932 239.997C151.913 240.045 151.897 240.093 151.884 240.143L151.811 240.362C151.791 240.413 151.774 240.466 151.762 240.52C151.762 240.599 151.713 240.678 151.695 240.763C151.677 240.848 151.664 240.86 151.652 240.915C151.64 240.97 151.591 241.177 151.567 241.317C151.567 241.365 151.567 241.42 151.537 241.475C151.506 241.529 151.506 241.663 151.488 241.761C151.47 241.858 151.488 241.894 151.488 241.967L151.451 242.241V242.46C151.451 242.563 151.451 242.667 151.421 242.776C151.39 242.886 151.421 242.904 151.421 242.971C151.421 243.147 151.421 243.323 151.421 243.512C151.311 250.056 151.695 251.004 151.695 251.004C151.945 251.609 152.354 252.135 152.877 252.527C153.401 252.92 154.021 253.165 154.672 253.236C154.991 253.261 155.312 253.245 155.627 253.187C158.549 252.683 165.367 251.509 167.802 251.971C169.257 252.239 171.942 251.837 173.853 251.479L174.359 251.381L174.706 252.494L175.814 252.19L176.757 252.731L177.366 253.078C178.474 256.824 182.966 255.547 182.966 255.547L184.032 256.155L194.861 256.435C196.077 257.167 197.362 257.778 198.697 258.259C198.873 258.317 199.054 258.358 199.238 258.381C200.251 258.463 201.267 258.482 202.282 258.436C203.11 258.436 203.749 258.381 203.749 258.381C203.749 258.381 203.64 255.444 203.481 252.154C206.838 252.071 210.188 251.797 213.514 251.333C219.297 250.323 221.707 245.069 222.596 242.259C222.862 243.407 223.051 244.571 223.162 245.744C223.399 246.775 223.7 247.791 224.063 248.785C224.373 249.579 224.782 250.331 225.281 251.023C229.542 249.569 226.961 247.374 226.066 246.437C225.171 245.501 226.675 244.704 226.675 244.704C226.675 244.704 227.856 243.919 227.74 243.196C227.624 242.472 227.57 241.688 231.393 241.742C235.216 241.797 234.978 238.629 234.978 238.629ZM175.734 202.925C175.783 203.241 176.343 206.689 176.794 207.595C176.928 208.193 176.971 208.808 176.922 209.42C174.663 209.237 172.307 209.14 172.307 209.14C172.373 209.222 172.416 209.321 172.429 209.426L172.07 209.347L171.558 209.225L175.722 202.894L175.734 202.925ZM167.48 216.036L171.394 216.644L171.723 216.693C171.612 217.295 171.545 217.905 171.522 218.517C171.522 218.578 171.607 218.645 171.735 218.724C171.681 219.031 171.656 219.343 171.662 219.655C171.723 219.959 173.549 220.628 175.649 221.181C175.619 221.297 175.594 221.406 175.564 221.503C173.707 220.53 170.791 220.074 170.457 219.35C170.122 218.627 160.187 215.16 160.187 215.16L159.201 214.668L161.812 215.16L162.531 215.087C164.158 215.51 165.811 215.827 167.48 216.036Z" fill="url(#paint0_linear_3_1261)"/>
<path d="M222.207 241.061C222.207 241.061 220.654 250.451 212.759 251.838C204.863 253.224 178.504 252.95 178.504 252.95C178.504 252.95 163.432 250.779 157.983 238.063C152.535 225.347 149.029 220.281 153.722 220.062C158.415 219.843 183.587 228.576 185.03 228.673C186.473 228.771 223.601 209.341 222.207 241.061Z" fill="#65617D"/>
<path opacity="0.05" d="M222.207 241.061C222.207 241.061 220.654 250.451 212.759 251.838C204.863 253.224 178.504 252.95 178.504 252.95C178.504 252.95 163.432 250.779 157.983 238.063C152.535 225.347 149.029 220.281 153.722 220.062C158.415 219.843 183.587 228.576 185.03 228.673C186.473 228.771 223.601 209.341 222.207 241.061Z" fill="black"/>
<path d="M151.524 251.515C151.769 252.116 152.172 252.64 152.691 253.031C153.21 253.422 153.825 253.665 154.471 253.735C154.79 253.755 155.111 253.736 155.427 253.68C158.318 253.181 165.1 252.014 167.492 252.464C168.929 252.725 171.589 252.33 173.482 251.977C174.742 251.74 175.668 251.515 175.668 251.515C175.668 251.515 173.44 244.126 173.166 243.907C172.892 243.688 163.152 237.826 163.152 237.826L155.445 237.272C154.407 237.427 153.47 237.976 152.827 238.805C152.018 239.79 151.317 241.402 151.269 244.047C151.141 250.56 151.524 251.515 151.524 251.515Z" fill="#3F3D56"/>
<path opacity="0.05" d="M151.524 251.515C151.769 252.117 152.172 252.64 152.691 253.031C153.21 253.422 153.825 253.665 154.471 253.735C153.716 252.762 153.017 251.746 152.377 250.694L152.419 245.306C152.266 243.828 152.462 242.335 152.99 240.946C153.519 239.558 154.366 238.312 155.463 237.309C155.463 237.309 151.403 237.583 151.287 244.084C151.171 250.585 151.524 251.515 151.524 251.515Z" fill="black"/>
<path opacity="0.1" d="M184.951 239.729L192.128 234.116L203.415 223.006L200.371 222.866C199.914 223.158 198.636 224.082 198.587 225.189C198.532 226.545 195.543 225.286 193.979 226.058C192.414 226.831 184.805 236.579 183.472 236.512C182.139 236.446 181.079 235.837 180.519 236.786L180.483 236.847L184.951 239.729Z" fill="black"/>
<path opacity="0.1" d="M152.809 238.817C153.065 238.939 153.327 239.06 153.588 239.17C159.037 241.505 165.763 246.395 166.269 247.282C166.573 247.824 170.475 250.189 173.482 251.965C174.742 251.728 175.668 251.503 175.668 251.503C175.668 251.503 173.44 244.114 173.166 243.895C172.892 243.676 163.152 237.814 163.152 237.814L155.445 237.26C154.397 237.417 153.452 237.975 152.809 238.817Z" fill="black"/>
<path d="M137.688 222.896C138.406 224.672 144.469 231.508 144.469 231.508C144.469 231.508 148.304 236.506 153.759 238.805C159.213 241.104 165.934 246.03 166.433 246.918C166.756 247.49 171.102 250.105 174.158 251.899L174.846 252.3L176.362 253.182L177.165 253.638C177.165 253.638 179.028 252.148 180.885 250.646C182.741 249.144 184.537 247.672 184.537 247.605C184.537 247.538 185.316 245.55 185.146 245.44C184.975 245.331 184.677 244.613 183.971 243.719C183.226 242.728 182.256 241.927 181.14 241.384C179.527 240.555 178.24 239.208 177.488 237.559C177.488 237.559 177.244 237.382 176.879 237.145C176.122 236.625 175.276 236.248 174.383 236.032C173.166 235.88 170.877 233.381 170.877 233.381C169.987 232.802 169.244 232.023 168.71 231.106C168.101 229.89 159.499 223.967 158.702 223.419L179.606 236.835L184.61 240.046L191.787 234.439L203.074 223.328L199.348 223.158C193.869 222.921 184.129 222.55 182.912 222.829C181.915 223.059 180.887 223.126 179.868 223.03C179.868 223.03 177.092 223.152 175.254 222.185C173.415 221.218 170.524 220.762 170.189 220.044C169.854 219.326 160.017 215.884 160.017 215.884C160.017 215.884 146.624 208.775 141.833 212.996C137.042 217.216 136.963 221.108 137.688 222.896Z" fill="#65617D"/>
<path d="M180.891 182.12L182.613 187.843L184.841 200.729L193.017 201.283L195.355 197.39L197.717 193.474C197.717 193.474 199.19 188.268 200.249 183.233C201.18 178.775 201.795 174.445 200.779 173.977C199.872 173.563 199.281 172.061 198.891 170.444C198.843 170.249 198.8 170.042 198.764 169.836C198.491 168.468 198.308 167.085 198.216 165.694C198.216 165.694 181.092 164.806 183.484 171.861C183.911 173.066 184.129 174.335 184.129 175.613C184.129 175.941 184.129 176.264 184.068 176.568C183.95 177.662 183.606 178.72 183.059 179.675C182.513 180.63 181.774 181.463 180.891 182.12Z" fill="#EE8E9E"/>
<path d="M177.335 181.177L177.944 190.908L179.332 199.184L180.891 203.022L182.285 223.99C182.285 223.99 195.677 225.541 198.952 223.96C199.194 223.868 199.405 223.71 199.561 223.504C203.5 217.562 202.209 200.352 202.209 200.352L203.707 189.241L202.708 183.476L200.273 183.221L198.41 183.02C198.41 183.02 197.99 183.537 197.382 184.34C195.732 186.511 192.7 190.792 192.907 192.574C193.181 195.006 192.573 197.518 191.623 197.907C190.673 198.297 189.9 198.965 189.736 198.297C189.499 197.736 189.44 197.116 189.565 196.521C189.736 195.572 188.841 192.683 188.841 192.683C188.841 192.683 187.343 189.296 187.453 187.855C187.562 186.413 187.289 184.741 186.844 184.352C186.4 183.963 185.785 183.573 186.284 181.798C186.783 180.022 184.093 176.562 184.093 176.562L177.335 181.177Z" fill="#E3E8F4"/>
<path opacity="0.1" d="M195.044 205.454L195.604 222.063L198.812 223.845C199.053 223.748 199.263 223.588 199.421 223.382C203.36 217.441 202.069 200.23 202.069 200.23L203.573 189.12L202.568 183.354L200.133 183.099C201.071 178.641 201.679 174.317 200.663 173.843C199.756 173.43 199.165 171.927 198.782 170.316L197.047 182.065C197.047 182.065 197.193 183.123 197.242 184.218C197.314 184.91 197.266 185.61 197.102 186.286C196.877 187.195 196.839 188.141 196.992 189.065C195.988 190.829 195.488 194.1 195.245 197.257C194.916 201.453 195.044 205.454 195.044 205.454Z" fill="black"/>
<path d="M198.83 170.024C198.83 170.024 201.637 170.371 202.526 171.539C203.414 172.706 205.752 172.877 205.752 172.877C205.752 172.877 208.418 173.764 208.363 173.983C208.309 174.202 209.143 174.543 210.798 174.987C212.454 175.431 215.248 177.042 215.248 177.419C215.248 177.796 219.638 182.139 219.638 182.583C219.638 183.026 220.971 184.693 220.806 187.636C220.642 190.58 220.472 194.326 221.141 194.934C221.811 195.542 221.141 197.932 221.141 197.932C220.961 198.192 220.86 198.499 220.851 198.815C220.841 199.131 220.923 199.443 221.086 199.714C221.64 200.711 220.971 204.877 220.971 204.877L221.032 209.213C221.032 209.213 220.423 211.931 221.141 212.047C221.859 212.163 221.032 213.379 221.032 213.379C221.032 213.379 220.423 215.599 221.196 216.602C221.969 217.605 222.194 221.875 222.194 221.875L234.095 239.152C234.095 239.152 234.266 242.32 230.485 242.266C226.705 242.211 226.754 242.989 226.869 243.707C226.985 244.424 225.81 245.209 225.81 245.209C225.81 245.209 224.313 245.987 225.202 246.93C226.09 247.873 228.647 250.044 224.422 251.485C223.925 250.799 223.515 250.053 223.205 249.265C222.847 248.285 222.55 247.284 222.316 246.267C222.316 246.267 221.926 242.041 221.147 241.487C220.368 240.934 220.478 238.264 220.478 238.264C220.478 238.264 221.592 236.099 220.033 235.223C218.475 234.348 195.902 221.844 195.902 221.844L195.354 205.23C195.354 205.23 194.965 192.951 197.302 188.84C197.15 187.916 197.187 186.97 197.412 186.061C197.802 185.064 197.357 181.841 197.357 181.841L198.83 170.024Z" fill="#3F3D56"/>
<path opacity="0.1" d="M184.257 176.714C184.257 176.714 178.669 175.564 177.165 176.343C175.662 177.121 172.721 177.729 172.295 178.167C171.869 178.605 170.743 178.283 169.739 180.892C168.734 183.501 168.631 186.17 167.346 187.393C166.062 188.615 165.404 189.448 165.349 190.336C165.295 191.224 165.514 191.449 165.015 191.723C164.515 191.996 163.797 193.17 164.01 193.614C164.223 194.058 175.576 203.837 175.576 203.837C175.576 203.837 176.137 207.559 176.636 208.501C177.135 209.444 176.082 222.446 174.968 223.334C173.854 224.222 182.449 224.149 182.449 224.149C182.449 224.149 182.839 215.635 183.174 215.173C183.508 214.71 182.948 205.619 182.948 205.619C182.948 205.619 182.894 197.841 183.618 195.785C184.342 193.729 184.227 186.894 184.227 186.894C184.227 186.894 184.866 182.795 185.645 181.84C186.424 180.886 184.257 176.714 184.257 176.714Z" fill="black"/>
<path d="M184.093 176.55C184.093 176.55 178.504 175.4 177.001 176.173C175.497 176.945 172.551 177.565 172.131 177.997C171.711 178.429 170.572 178.107 169.574 180.722C168.575 183.337 168.46 185.994 167.181 187.217C165.903 188.439 165.233 189.272 165.179 190.16C165.124 191.048 165.349 191.273 164.844 191.553C164.339 191.832 163.626 192.994 163.845 193.438C164.065 193.882 175.412 203.661 175.412 203.661C175.412 203.661 175.966 207.383 176.471 208.325C176.976 209.268 175.911 222.27 174.797 223.158C173.683 224.046 182.309 223.967 182.309 223.967C182.309 223.967 182.698 215.453 183.027 214.996C183.356 214.54 182.808 205.436 182.808 205.436C182.808 205.436 182.753 197.664 183.478 195.609C184.202 193.553 184.117 186.718 184.117 186.718C184.117 186.718 184.756 182.619 185.535 181.664C186.314 180.709 184.093 176.55 184.093 176.55Z" fill="#3F3D56"/>
<path opacity="0.1" d="M183.508 171.849C183.935 173.054 184.153 174.323 184.154 175.601C186.885 176.4 189.806 176.266 192.452 175.219C195.099 174.173 197.32 172.274 198.764 169.823C198.491 168.456 198.308 167.073 198.216 165.682C198.216 165.682 181.116 164.788 183.508 171.849Z" fill="black"/>
<path d="M175.053 163.067C175.051 166.328 176.301 169.465 178.546 171.831C180.791 174.198 183.86 175.613 187.119 175.786C190.378 175.959 193.579 174.876 196.062 172.76C198.546 170.644 200.121 167.657 200.464 164.414C200.808 161.172 199.892 157.921 197.907 155.333C195.922 152.745 193.018 151.017 189.795 150.505C186.572 149.993 183.275 150.736 180.584 152.581C177.893 154.427 176.013 157.233 175.333 160.422C175.146 161.291 175.052 162.178 175.053 163.067Z" fill="#EE8E9E"/>
<path d="M166.877 192.525L163.833 193.468C163.911 193.775 163.895 194.098 163.786 194.395C163.678 194.692 163.482 194.95 163.225 195.134C162.96 195.319 162.749 195.57 162.613 195.863C162.477 196.156 162.421 196.479 162.452 196.801C162.452 196.801 162.117 198.017 161.338 198.303C160.558 198.589 160.059 200.413 160.059 200.413L157.502 203.356C157.502 203.356 156.553 204.135 156.723 204.524C156.894 204.913 155.719 205.023 155.719 205.023L156.328 214.911L161.611 215.915L164.893 215.58L167.559 214.583L169.897 213.19L170.95 210.472L175.625 203.356L166.877 192.525Z" fill="#3F3D56"/>
<path d="M156.48 205.783C156.48 205.783 149.698 196.01 144.633 201.283C139.569 206.556 146.691 215.118 148.359 214.838C150.027 214.559 157.983 214.115 157.983 214.115L156.48 205.783Z" fill="#EE8E9E"/>
<path d="M172.456 201.557L142.499 186.282C142.038 186.047 141.473 186.23 141.238 186.691L129.556 209.554C129.321 210.015 129.504 210.579 129.965 210.814L159.922 226.089C160.383 226.324 160.948 226.141 161.183 225.681L172.865 202.817C173.1 202.356 172.917 201.792 172.456 201.557Z" fill="#3F3D56"/>
<path d="M169.669 202.915L143.085 189.36L132.859 209.374L159.444 222.93L169.669 202.915Z" fill="#F9A826"/>
<path d="M136.951 199.325C137.22 199.325 137.438 199.107 137.438 198.838C137.438 198.569 137.22 198.352 136.951 198.352C136.682 198.352 136.464 198.569 136.464 198.838C136.464 199.107 136.682 199.325 136.951 199.325Z" fill="#E6E8EC"/>
<path d="M165.727 214.376C166.174 214.376 166.536 214.014 166.536 213.567C166.536 213.12 166.174 212.758 165.727 212.758C165.279 212.758 164.917 213.12 164.917 213.567C164.917 214.014 165.279 214.376 165.727 214.376Z" fill="#E6E8EC"/>
<path d="M152.091 207.839C152.03 215.173 167.212 216.73 167.212 216.73L171.09 217.338L172.831 217.611L173.555 210.448C173.555 210.448 172.758 210.326 171.765 210.095C170.292 209.754 168.387 209.164 167.991 208.331C167.352 206.951 152.133 200.504 152.091 207.839Z" fill="#EE8E9E"/>
<path opacity="0.1" d="M175.333 160.422C175.682 160.447 176.011 160.594 176.264 160.835C176.69 161.291 176.714 162.1 177.274 162.38C177.484 162.468 177.714 162.493 177.938 162.453C179.417 162.246 180.27 160.58 181.694 160.118C182.522 159.905 183.398 159.98 184.178 160.33C184.495 160.433 184.78 160.615 185.006 160.859C185.48 161.468 185.146 162.38 185.365 163.122C185.669 164.156 186.905 164.563 187.97 164.697C189.036 164.831 190.241 164.91 190.953 165.712C191.189 166.013 191.358 166.361 191.449 166.732C191.541 167.103 191.552 167.489 191.483 167.865C191.419 168.127 191.419 168.4 191.483 168.662C191.775 169.495 193.218 169.367 193.595 168.711C193.875 168.23 193.79 167.835 194.441 167.701C194.907 167.664 195.374 167.746 195.799 167.938C196.932 168.327 198.126 168.51 199.323 168.479C200.085 166.856 200.495 165.09 200.526 163.298C200.557 161.505 200.208 159.726 199.503 158.078C198.797 156.429 197.751 154.948 196.433 153.732C195.114 152.516 193.553 151.591 191.852 151.02C190.151 150.448 188.348 150.242 186.562 150.416C184.776 150.589 183.046 151.137 181.487 152.025C179.928 152.913 178.574 154.12 177.515 155.567C176.455 157.014 175.713 158.668 175.339 160.422H175.333Z" fill="black"/>
<path d="M191.477 168.327C191.413 168.066 191.413 167.793 191.477 167.531C191.546 167.156 191.535 166.771 191.444 166.4C191.352 166.03 191.183 165.684 190.947 165.384C190.235 164.575 189.036 164.502 187.964 164.362C186.893 164.223 185.663 163.821 185.359 162.787C185.14 162.045 185.474 161.139 185 160.531C184.777 160.282 184.491 160.099 184.172 160.002C183.392 159.65 182.517 159.573 181.688 159.783C180.263 160.245 179.411 161.912 177.932 162.118C177.708 162.162 177.477 162.137 177.268 162.045C176.708 161.766 176.66 160.957 176.258 160.501C175.582 159.789 174.298 160.251 173.476 159.722C172.977 159.307 172.655 158.718 172.575 158.074C172.207 156.882 172.123 155.619 172.331 154.389C172.812 152.327 174.663 150.91 175.838 149.141C176.94 147.499 177.561 145.419 179.21 144.33C180.86 143.242 182.985 143.485 184.853 144.038C185.713 144.345 186.596 144.576 187.495 144.732C188.999 144.914 190.509 144.507 192.018 144.458C194.158 144.389 196.261 145.03 197.996 146.282C198.388 146.537 198.72 146.873 198.97 147.268C199.221 147.826 199.37 148.426 199.409 149.037C199.587 150.185 199.986 151.288 200.584 152.285C201.046 153.069 201.637 153.775 202.057 154.583C202.526 155.376 202.67 156.32 202.459 157.217C202.312 157.673 202.032 158.086 201.923 158.555C201.679 159.637 202.392 160.677 202.879 161.674C203.352 162.587 203.577 163.609 203.53 164.636C203.504 165.148 203.372 165.649 203.143 166.107C202.913 166.566 202.591 166.972 202.197 167.3C201.37 167.873 200.384 168.173 199.378 168.157C198.158 168.194 196.941 168.011 195.787 167.616C195.361 167.426 194.894 167.345 194.429 167.379C193.778 167.513 193.863 167.908 193.583 168.388C193.212 169.033 191.775 169.161 191.477 168.327Z" fill="#3F3D56"/>
<path opacity="0.1" d="M184.616 240.058L191.793 234.451L203.08 223.34L199.354 223.17C198.917 223.565 198.638 224.105 198.569 224.69C198.514 226.046 195.525 224.781 193.961 225.56C192.396 226.338 184.787 236.081 183.454 236.014C182.12 235.947 181.061 235.339 180.501 236.281L180.465 236.342C180.242 236.598 179.943 236.775 179.612 236.847L184.616 240.058Z" fill="black"/>
<path d="M170.158 239.668L173.762 251.168L174.328 252.993L176.045 252.525L179.831 251.485L196.682 246.863C198.804 246.771 200.881 246.219 202.769 245.245C205.955 243.462 209.6 242.668 213.24 242.965C215.468 243.171 217.945 242.21 220.003 238.416C220.003 238.416 224.672 224.641 212.886 220.694C201.101 216.748 200.535 222.793 200.535 222.793L200.371 222.89C199.914 223.182 198.636 224.106 198.587 225.213C198.532 226.569 195.543 225.31 193.979 226.083C192.414 226.855 184.805 236.603 183.472 236.537C182.138 236.47 181.079 235.862 180.519 236.81L180.483 236.871C180.069 237.437 178.833 237.57 178.011 237.589C177.756 237.602 177.5 237.602 177.244 237.589L177.135 237.619L176.282 237.874L170.158 239.668Z" fill="#65617D"/>
<path opacity="0.1" d="M171.09 217.344L172.831 217.617L173.555 210.453C173.555 210.453 172.758 210.332 171.766 210.101C172.027 211.104 171.431 214.966 171.09 217.344Z" fill="black"/>
<path opacity="0.1" d="M216.563 183.86C216.563 183.86 221.732 182.357 220.453 197.026C219.566 205.979 215.756 214.391 209.611 220.968C209.611 220.968 198.599 225.797 193.65 225.019C188.701 224.24 185.091 224.076 185.091 224.076C183.532 223.289 181.825 222.836 180.081 222.744C177.305 222.635 171.467 220.92 171.351 220.354C171.236 219.789 172.8 211.633 172.131 211.025C172.131 211.025 179.916 211.341 180.696 211.901C181.475 212.46 182.589 212.065 183.423 211.901C184.257 211.737 186.814 209.523 191.872 211.469C191.872 211.469 193.595 211.633 194.265 211.189C194.811 210.935 195.432 210.896 196.006 211.08C196.439 210.936 196.849 210.732 197.223 210.472C197.388 210.253 198.727 210.472 198.727 210.472C198.807 210.507 198.893 210.525 198.98 210.525C199.068 210.524 199.154 210.504 199.233 210.468C199.312 210.431 199.382 210.377 199.439 210.311C199.495 210.244 199.537 210.166 199.561 210.083C199.737 209.629 200.002 209.216 200.34 208.866C200.34 208.866 201.838 200.425 204.674 197.257C204.901 197.059 205.075 196.809 205.181 196.527C205.287 196.246 205.322 195.943 205.283 195.645C205.052 194.745 209.891 182.078 216.563 183.86Z" fill="black"/>
<path d="M216.423 182.728C216.423 182.728 221.598 181.232 220.319 195.895C219.434 204.848 215.624 213.262 209.478 219.837C209.478 219.837 198.465 224.672 193.516 223.893C188.567 223.115 184.951 222.933 184.951 222.933C183.394 222.146 181.69 221.692 179.947 221.601C177.165 221.485 171.327 219.776 171.217 219.211C171.108 218.645 172.66 210.49 171.997 209.876C171.997 209.876 179.783 210.198 180.562 210.758C181.341 211.317 182.449 210.916 183.283 210.758C184.117 210.599 186.674 208.38 191.738 210.32C191.738 210.32 193.461 210.49 194.125 210.046C194.671 209.794 195.291 209.753 195.866 209.931C196.297 209.784 196.707 209.579 197.083 209.322C197.248 209.097 198.581 209.322 198.581 209.322C198.661 209.358 198.747 209.376 198.834 209.375C198.922 209.375 199.008 209.355 199.087 209.318C199.166 209.281 199.236 209.228 199.293 209.161C199.349 209.095 199.391 209.017 199.415 208.933C199.591 208.48 199.856 208.066 200.194 207.717C200.194 207.717 201.698 199.276 204.534 196.107C204.761 195.91 204.935 195.659 205.041 195.378C205.147 195.097 205.182 194.794 205.143 194.496C204.918 193.62 209.751 180.971 216.423 182.728Z" fill="#3F3D56"/>
<path opacity="0.1" d="M176.264 237.844L183.606 246.723L183.654 246.675C183.709 246.504 184.434 244.619 184.263 244.503C184.093 244.388 182.82 241.615 180.264 240.447C178.963 239.814 177.871 238.822 177.116 237.589L176.264 237.844Z" fill="black"/>
<path opacity="0.1" d="M176.361 253.212L177.165 253.668C177.165 253.668 179.028 252.178 180.884 250.676C182.741 249.174 184.537 247.702 184.537 247.635C184.537 247.568 185.316 245.58 185.146 245.47C184.975 245.361 184.677 244.643 183.971 243.749C178.991 242.356 182.144 245.811 182.583 245.969C182.583 245.969 176.526 244.576 176.191 251.174C176.162 251.858 176.219 252.542 176.361 253.212Z" fill="black"/>
<path d="M182.504 256.003L183.563 256.611L194.295 256.885C195.498 257.616 196.771 258.227 198.094 258.709C198.269 258.761 198.448 258.8 198.629 258.825C199.626 258.906 200.626 258.924 201.624 258.88C202.446 258.88 203.079 258.825 203.079 258.825C203.079 258.825 202.574 245.306 202.191 243.883C202.008 243.202 201.107 243.348 200.218 243.688C199.552 243.961 198.909 244.286 198.295 244.661C198.295 244.661 193.741 245.105 193.017 245.494C192.292 245.884 190.235 245.269 188.956 245.494C187.678 245.719 185.395 243.992 185.395 243.992C179.168 241.937 182.674 245.768 183.118 245.938C183.118 245.938 177.031 244.546 176.72 251.144C176.41 257.742 182.504 256.003 182.504 256.003Z" fill="#3F3D56"/>
<path d="M198.021 250.785C198.137 253.583 200.322 257.055 201.625 258.892C202.447 258.892 203.08 258.837 203.08 258.837C203.08 258.837 202.575 245.318 202.191 243.895C202.008 243.214 201.107 243.36 200.219 243.701C199.141 245.72 197.924 248.523 198.021 250.785Z" fill="#565387"/>
<path opacity="0.1" d="M198.021 250.785C198.137 253.583 200.322 257.055 201.625 258.892C202.447 258.892 203.08 258.837 203.08 258.837C203.08 258.837 202.575 245.318 202.191 243.895C202.008 243.214 201.107 243.36 200.219 243.701C199.141 245.72 197.924 248.523 198.021 250.785Z" fill="black"/>
<path opacity="0.05" d="M196.182 251.156C196.925 253.857 196.913 256.885 198.094 258.722C198.269 258.774 198.448 258.812 198.63 258.837C199.626 258.918 200.626 258.937 201.625 258.892C202.446 258.892 203.079 258.837 203.079 258.837C203.079 258.837 202.574 245.318 202.191 243.895C202.008 243.214 201.107 243.36 200.218 243.701C199.552 243.973 198.909 244.298 198.295 244.674C198.295 244.674 195.239 247.696 196.182 251.156Z" fill="black"/>
<path opacity="0.1" d="M159.158 223.748C159.158 223.748 164.491 225.475 169.008 231.617L159.158 223.748Z" fill="black"/>
<g opacity="0.1">
<path d="M202.477 157.083C202.477 157.126 202.477 157.162 202.447 157.205C202.395 157.363 202.332 157.518 202.258 157.667C202.316 157.467 202.39 157.272 202.477 157.083Z" fill="black"/>
<path d="M172.319 154.389C172.41 154 172.549 153.624 172.733 153.27C172.733 153.361 172.672 153.459 172.648 153.556C172.445 154.787 172.531 156.048 172.898 157.241C172.978 157.883 173.298 158.472 173.793 158.889C174.62 159.418 175.905 158.956 176.581 159.668C177.007 160.124 177.031 160.933 177.591 161.212C177.8 161.303 178.031 161.329 178.255 161.285C179.734 161.079 180.586 159.412 182.011 158.95C182.839 158.737 183.716 158.814 184.494 159.169C184.814 159.266 185.1 159.449 185.322 159.698C185.797 160.306 185.462 161.212 185.681 161.954C185.986 162.988 187.222 163.396 188.287 163.529C189.352 163.663 190.558 163.742 191.27 164.551C191.506 164.851 191.675 165.197 191.766 165.567C191.858 165.938 191.869 166.323 191.799 166.698C191.736 166.96 191.736 167.233 191.799 167.494C192.092 168.328 193.534 168.2 193.912 167.543C194.192 167.063 194.107 166.667 194.758 166.534C195.223 166.5 195.689 166.581 196.116 166.771C197.27 167.166 198.487 167.349 199.707 167.312C200.713 167.327 201.699 167.028 202.526 166.455C202.887 166.171 203.182 165.812 203.39 165.402C203.202 166.147 202.774 166.81 202.173 167.288C201.346 167.861 200.36 168.161 199.354 168.145C198.134 168.182 196.917 167.999 195.762 167.604C195.336 167.414 194.87 167.333 194.405 167.367C193.754 167.501 193.839 167.896 193.565 168.376C193.181 169.033 191.739 169.161 191.446 168.328C191.386 168.066 191.386 167.793 191.446 167.531C191.516 167.156 191.505 166.771 191.413 166.401C191.322 166.03 191.153 165.684 190.917 165.384C190.205 164.575 189.005 164.502 187.934 164.363C186.862 164.223 185.633 163.821 185.328 162.787C185.109 162.045 185.444 161.139 184.969 160.531C184.749 160.284 184.464 160.101 184.147 160.002C183.366 159.65 182.489 159.573 181.658 159.783C180.239 160.245 179.381 161.912 177.902 162.118C177.678 162.162 177.447 162.137 177.238 162.045C176.678 161.766 176.629 160.957 176.228 160.501C175.552 159.789 174.274 160.251 173.446 159.722C172.947 159.307 172.625 158.718 172.545 158.074C172.183 156.88 172.105 155.618 172.319 154.389Z" fill="black"/>
</g>
<path opacity="0.1" d="M203.341 198.856C202.318 200.231 201.156 201.502 200.255 202.949C199.276 204.376 198.801 206.088 198.903 207.814C199.835 206.859 200.267 205.534 200.851 204.336C201.85 202.304 203.335 200.583 204.595 198.723C204.833 198.364 206.367 196.29 205.594 196.205C204.948 196.114 203.688 198.388 203.341 198.856Z" fill="black"/>
<path d="M208.82 328.981C209.557 331.34 210.3 333.706 211.219 335.998C212.875 339.984 214.959 343.779 217.434 347.316C219.03 349.645 220.745 351.89 222.572 354.042C224.861 356.736 227.442 359.448 228.221 362.891C228.69 364.879 228.532 366.953 228.726 368.972C228.921 370.991 229.585 373.156 231.235 374.372C232.409 375.242 233.913 375.503 235.356 375.728C236.391 375.893 237.681 375.947 238.217 375.053C238.404 374.688 238.502 374.284 238.503 373.874L238.753 370.9C238.801 370.255 239.033 369.434 239.678 369.404C240.323 369.373 240.646 370.231 241.194 370.62C241.924 371.131 243.02 370.62 243.422 369.848C243.755 369.011 243.777 368.083 243.483 367.233C243.039 365.54 242.242 363.96 241.144 362.598C240.045 361.235 238.67 360.12 237.109 359.327C236.025 358.89 234.985 358.35 234.004 357.715C233.008 356.85 232.182 355.806 231.569 354.638C225.92 345.346 220.24 336.005 216.253 325.891C215.468 324.084 214.937 322.176 214.676 320.223C214.482 318.235 214.792 316.234 214.92 314.239C215.156 310.656 214.823 307.058 213.934 303.578C213.739 302.665 213.396 301.79 212.917 300.988C211.274 298.5 207.438 298.129 205.003 299.844C204.107 300.533 203.363 301.401 202.821 302.393C202.278 303.384 201.947 304.478 201.85 305.604C201.674 307.623 202.836 309.715 203.427 311.594C205.216 317.395 207.014 323.191 208.82 328.981Z" fill="#A1616A"/>
<path opacity="0.05" d="M208.82 328.981C209.557 331.34 210.3 333.706 211.219 335.998C212.875 339.984 214.959 343.779 217.434 347.316C219.03 349.645 220.745 351.89 222.572 354.042C224.861 356.736 227.442 359.448 228.221 362.891C228.69 364.879 228.532 366.953 228.726 368.972C228.921 370.991 229.585 373.156 231.235 374.372C232.409 375.242 233.913 375.503 235.356 375.728C236.391 375.893 237.681 375.947 238.217 375.053C238.404 374.688 238.502 374.284 238.503 373.874L238.753 370.9C238.801 370.255 239.033 369.434 239.678 369.404C240.323 369.373 240.646 370.231 241.194 370.62C241.924 371.131 243.02 370.62 243.422 369.848C243.755 369.011 243.777 368.083 243.483 367.233C243.039 365.54 242.242 363.96 241.144 362.598C240.045 361.235 238.67 360.12 237.109 359.327C236.025 358.89 234.985 358.35 234.004 357.715C233.008 356.85 232.182 355.806 231.569 354.638C225.92 345.346 220.24 336.005 216.253 325.891C215.468 324.084 214.937 322.176 214.676 320.223C214.482 318.235 214.792 316.234 214.92 314.239C215.156 310.656 214.823 307.058 213.934 303.578C213.739 302.665 213.396 301.79 212.917 300.988C211.274 298.5 207.438 298.129 205.003 299.844C204.107 300.533 203.363 301.401 202.821 302.393C202.278 303.384 201.947 304.478 201.85 305.604C201.674 307.623 202.836 309.715 203.427 311.594C205.216 317.395 207.014 323.191 208.82 328.981Z" fill="black"/>
<path d="M173.33 428.338C174.431 428.721 175.602 428.862 176.763 428.752C176.849 427.803 178.127 427.59 179.077 427.639C179.536 427.624 179.991 427.729 180.398 427.943C180.635 428.095 180.818 428.314 181.049 428.472C181.461 428.698 181.924 428.817 182.394 428.819L187.337 429.232C189.541 429.421 191.836 429.591 193.9 428.807C194.311 428.676 194.676 428.432 194.953 428.101C195.513 427.298 194.953 426.149 194.18 425.565C193.407 424.981 192.408 424.72 191.629 424.124C189.912 422.816 189.675 420.372 188.768 418.413C188.123 417.179 187.328 416.029 186.4 414.99C185.728 414.097 184.944 413.294 184.068 412.6C182.084 411.17 179.807 411.201 177.476 410.994C175.832 410.848 174.286 410.751 173.105 412.21C171.644 414.035 172.228 417.684 172.319 419.812C172.433 422.676 172.771 425.527 173.33 428.338Z" fill="#514E7F"/>
<path opacity="0.05" d="M173.33 428.338C174.431 428.721 175.602 428.862 176.763 428.752C176.849 427.803 178.127 427.59 179.077 427.639C179.536 427.624 179.991 427.729 180.398 427.943C180.635 428.095 180.818 428.314 181.049 428.472C181.461 428.698 181.924 428.817 182.394 428.819L187.337 429.232C189.541 429.421 191.836 429.591 193.9 428.807C194.311 428.676 194.676 428.432 194.953 428.101C195.513 427.298 194.953 426.149 194.18 425.565C193.407 424.981 192.408 424.72 191.629 424.124C189.912 422.816 189.675 420.372 188.768 418.413C188.123 417.179 187.328 416.029 186.4 414.99C185.728 414.097 184.944 413.294 184.068 412.6C182.084 411.17 179.807 411.201 177.476 410.994C175.832 410.848 174.286 410.751 173.105 412.21C171.644 414.035 172.228 417.684 172.319 419.812C172.433 422.676 172.771 425.527 173.33 428.338Z" fill="black"/>
<path d="M175.327 332.283C173.817 332.769 173.159 334.648 173.439 336.211C173.719 337.774 174.657 339.124 175.43 340.511C177.634 344.446 178.583 348.946 180.434 353.051C181.816 356.091 183.685 358.95 185.048 362.027C186.412 365.104 187.258 368.577 186.43 371.842C186.028 373.43 185.249 374.883 184.732 376.446C184.22 378.14 183.885 379.883 183.733 381.646C183.063 387.635 182.943 393.672 183.374 399.683C183.378 400.416 183.531 401.14 183.825 401.812C184.135 402.42 184.671 403.028 184.434 403.636C184.33 403.885 184.105 404.068 183.995 404.311C183.679 404.992 184.312 405.716 184.89 406.202C184.787 406.385 184.648 406.546 184.482 406.674C184.316 406.802 184.125 406.896 183.922 406.95C184.337 407.214 184.656 407.604 184.831 408.063C185.007 408.522 185.029 409.026 184.896 409.498C184.385 409.578 184.354 410.362 184.677 410.776C185 411.189 185.511 411.445 185.742 411.913C185.879 412.294 185.864 412.713 185.701 413.084C185.538 413.455 185.239 413.75 184.866 413.908C184.105 414.2 183.276 414.263 182.479 414.09C181.13 413.902 179.796 413.609 178.492 413.214C177.81 413.08 177.2 412.705 176.773 412.158C176.345 411.611 176.13 410.927 176.167 410.234C175.865 407.759 175.774 405.263 175.893 402.772C176.106 390.707 175.893 378.629 175.369 366.57C175.156 361.705 173.695 356.992 171.814 352.516C170.774 350.228 169.618 347.996 168.35 345.826C165.635 340.864 163.237 335.366 163.858 329.741C163.925 329.133 164.144 328.409 164.746 328.312C164.982 328.286 165.22 328.326 165.434 328.427C166.685 329.011 167.895 329.677 169.056 330.422C170.965 331.54 173.117 332.178 175.327 332.283Z" fill="#464353"/>
<path opacity="0.05" d="M175.327 332.283C173.817 332.769 173.159 334.648 173.439 336.211C173.719 337.774 174.657 339.124 175.43 340.511C177.634 344.446 178.583 348.946 180.434 353.051C181.816 356.091 183.685 358.95 185.048 362.027C186.412 365.104 187.258 368.577 186.43 371.842C186.028 373.43 185.249 374.883 184.732 376.446C184.22 378.14 183.885 379.883 183.733 381.646C183.063 387.635 182.943 393.672 183.374 399.683C183.378 400.416 183.531 401.14 183.825 401.812C184.135 402.42 184.671 403.028 184.434 403.636C184.33 403.885 184.105 404.068 183.995 404.311C183.679 404.992 184.312 405.716 184.89 406.202C184.787 406.385 184.648 406.546 184.482 406.674C184.316 406.802 184.125 406.896 183.922 406.95C184.337 407.214 184.656 407.604 184.831 408.063C185.007 408.522 185.029 409.026 184.896 409.498C184.385 409.578 184.354 410.362 184.677 410.776C185 411.189 185.511 411.445 185.742 411.913C185.879 412.294 185.864 412.713 185.701 413.084C185.538 413.455 185.239 413.75 184.866 413.908C184.105 414.2 183.276 414.263 182.479 414.09C181.13 413.902 179.796 413.609 178.492 413.214C177.81 413.08 177.2 412.705 176.773 412.158C176.345 411.611 176.13 410.927 176.167 410.234C175.865 407.759 175.774 405.263 175.893 402.772C176.106 390.707 175.893 378.629 175.369 366.57C175.156 361.705 173.695 356.992 171.814 352.516C170.774 350.228 169.618 347.996 168.35 345.826C165.635 340.864 163.237 335.366 163.858 329.741C163.925 329.133 164.144 328.409 164.746 328.312C164.982 328.286 165.22 328.326 165.434 328.427C166.685 329.011 167.895 329.677 169.056 330.422C170.965 331.54 173.117 332.178 175.327 332.283Z" fill="black"/>
<path d="M154.915 317.614C154.128 317.109 153.22 316.824 152.286 316.787C151.202 316.842 150.277 317.553 149.431 318.234C148.428 319.003 147.476 319.836 146.582 320.728C144.729 322.701 143.438 325.133 142.843 327.772C142.248 330.411 142.37 333.161 143.197 335.737C144.092 338.419 145.729 340.784 147.349 343.101L150.636 347.821C155.652 355.015 160.668 362.209 165.922 369.233C165.923 369.406 165.979 369.574 166.082 369.713C166.185 369.851 166.329 369.954 166.494 370.006C166.683 370.054 166.92 370.048 167.036 370.206C167.089 370.305 167.112 370.417 167.103 370.529C167.091 371.048 166.992 371.562 166.81 372.049C166.725 372.209 166.703 372.396 166.75 372.572C166.92 372.967 167.638 372.742 167.87 373.113C168.022 373.356 167.833 373.673 167.632 373.879C167.431 374.086 167.182 374.317 167.218 374.603C167.255 374.889 167.754 375.211 167.736 375.564C167.736 375.771 167.553 375.929 167.425 376.093C167.246 376.355 167.165 376.671 167.195 376.986C167.225 377.302 167.365 377.597 167.59 377.82C167.937 381.25 166.068 384.51 165.696 387.928C165.088 393.328 167.553 398.6 167.851 404.019C167.833 404.629 167.95 405.235 168.192 405.795C168.698 406.731 170.019 407.297 169.952 408.361C169.856 408.798 169.732 409.229 169.58 409.65C169.477 410.258 169.769 410.867 169.781 411.475C169.793 412.083 169.251 412.831 168.679 412.588C169.109 414.023 169.493 415.47 169.83 416.93L181.335 417.878C181.459 416.845 181.424 415.799 181.232 414.777C180.994 413.664 180.495 412.63 180.233 411.529C180.063 410.988 180.015 410.415 180.093 409.852C180.171 409.29 180.373 408.751 180.684 408.276C180.384 408.279 180.092 408.177 179.861 407.987C179.629 407.797 179.472 407.531 179.418 407.236C179.321 406.643 179.332 406.037 179.448 405.448C179.752 402.45 178.492 399.494 178.529 396.484C178.565 394.112 179.399 391.832 179.819 389.503C180.72 384.516 179.783 379.109 182.005 374.554C183.35 371.812 185.213 368.771 183.703 366.113C182.961 364.8 181.646 363.9 180.787 362.659C180.088 361.487 179.563 360.219 179.229 358.895C177.457 353.422 174.59 348.338 172.076 343.132C171.378 341.827 170.86 340.434 170.536 338.99C170.358 337.724 170.293 336.443 170.341 335.165C170.341 332.87 170.201 330.577 169.921 328.299C169.864 327.301 169.579 326.33 169.087 325.459C168.59 324.801 167.97 324.245 167.261 323.823C163.487 321.239 158.994 319.761 154.915 317.614Z" fill="#464353"/>
<path d="M168.703 432.553C169.808 432.93 170.98 433.069 172.143 432.96C172.228 432.012 173.5 431.799 174.45 431.847C174.909 431.832 175.364 431.937 175.771 432.151C176.008 432.303 176.191 432.528 176.428 432.681C176.84 432.909 177.303 433.028 177.774 433.027L182.711 433.441C184.92 433.629 187.209 433.806 189.279 433.015C189.689 432.887 190.053 432.642 190.326 432.31C190.886 431.507 190.326 430.364 189.553 429.78C188.78 429.196 187.782 428.928 187.008 428.332C185.286 427.025 185.054 424.586 184.141 422.628C183.502 421.389 182.709 420.237 181.779 419.198C181.105 418.307 180.319 417.506 179.442 416.814C177.463 415.379 175.18 415.409 172.855 415.203C171.205 415.057 169.659 414.965 168.484 416.419C167.023 418.243 167.607 421.892 167.693 424.027C167.807 426.891 168.145 429.741 168.703 432.553Z" fill="#514E7F"/>
<path d="M219.699 297.71C225.992 297.71 231.094 292.613 231.094 286.325C231.094 280.038 225.992 274.941 219.699 274.941C213.405 274.941 208.303 280.038 208.303 286.325C208.303 292.613 213.405 297.71 219.699 297.71Z" fill="#A1616A"/>
<path d="M208.948 289.706C207.316 291.111 204.973 291.215 202.83 291.433C198.248 291.904 193.788 293.193 189.663 295.24C189.092 295.486 188.575 295.842 188.141 296.286C187.771 296.769 187.507 297.324 187.368 297.916C186.976 299.197 186.829 300.54 186.935 301.875C187.085 303.17 187.458 304.429 188.037 305.597C189.619 308.868 192.059 311.649 195.099 313.643C195.634 314.041 196.242 314.333 196.889 314.5C198.386 314.81 199.835 313.947 201.314 313.558C202.66 313.207 204.078 313.251 205.399 313.685C206.616 314.099 207.95 314.853 209.155 314.348C209.926 313.917 210.526 313.235 210.853 312.414C212.018 310.217 213.056 307.955 213.964 305.64C214.29 304.736 214.666 303.851 215.09 302.988C216.411 300.477 218.694 298.537 219.832 295.928C219.948 295.729 220.018 295.506 220.037 295.277C220.056 295.048 220.023 294.817 219.942 294.602C219.731 294.311 219.439 294.089 219.102 293.963C217.419 293.001 215.885 291.798 214.548 290.394C213.8 289.676 212.424 287.736 211.346 287.566C210.135 287.359 209.77 289.001 208.948 289.706Z" fill="#A1616A"/>
<path d="M209.216 312.84C207.895 313.448 206.337 313.187 204.906 312.889C201.217 312.116 197.485 311.338 194.07 309.745C193.003 309.337 192.079 308.627 191.41 307.701C190.995 306.91 190.742 306.044 190.667 305.153L190.059 300.896C189.839 299.418 190.217 298.05 190.253 296.554C190.277 296.388 190.266 296.22 190.224 296.058C190.181 295.896 190.106 295.744 190.004 295.611C189.795 295.437 189.526 295.351 189.255 295.374C187.544 295.405 186.51 297.199 185.31 298.415C184.617 299.117 183.789 299.671 182.875 300.045C181.78 300.495 180.44 300.811 179.984 301.906C179.801 302.362 179.825 302.879 179.631 303.335C178.864 305.159 175.595 304.551 174.761 306.376C174.523 306.886 174.541 307.525 174.152 307.926C173.762 308.328 173.032 308.322 172.429 308.419C170.049 308.808 168.898 311.551 166.865 312.846C165.155 313.941 162.951 313.917 161.106 314.768C160.084 315.242 159.177 315.984 158.093 316.294C157.009 316.605 155.786 316.44 154.623 316.471C154.499 316.459 154.374 316.473 154.256 316.512C154.137 316.55 154.028 316.613 153.935 316.696C153.863 316.806 153.815 316.93 153.795 317.06C153.775 317.19 153.784 317.323 153.82 317.45C154.383 321.046 155.875 324.433 158.148 327.278C160.42 330.123 163.395 332.328 166.78 333.675C167.173 333.8 167.546 333.98 167.888 334.21C168.923 334.983 169.105 336.643 170.28 337.19C170.704 337.339 171.161 337.368 171.601 337.274C172.04 337.179 172.445 336.965 172.77 336.655C173.418 336.031 174.028 335.369 174.596 334.672C175.669 333.553 177.077 332.812 178.608 332.562C180.02 332.337 181.597 332.501 182.741 331.632C183.209 331.202 183.645 330.739 184.044 330.245C184.892 329.455 185.898 328.854 186.997 328.482C189.997 327.297 193.168 326.601 196.39 326.42C199.391 326.256 202.477 326.529 205.314 325.556C206.05 325.328 206.729 324.944 207.304 324.431C207.914 323.772 208.368 322.985 208.632 322.126C209.655 319.139 209.857 315.932 209.216 312.84Z" fill="#F9A826"/>
<path d="M194.527 296.062C195.367 295.983 196.213 296.062 197.059 296.062C198.052 296.062 199.032 295.819 200.024 295.812C201.595 295.838 203.117 296.365 204.368 297.315C205.618 298.266 206.532 299.591 206.976 301.097C207.059 301.338 207.074 301.597 207.018 301.845C206.986 301.968 206.91 302.075 206.805 302.146C206.7 302.218 206.572 302.249 206.446 302.234C206.117 301.335 205.686 300.476 205.162 299.674C204.218 298.387 202.873 297.451 201.339 297.011C199.809 296.577 198.197 296.519 196.639 296.84C195.988 296.962 195.355 297.132 194.722 297.309L191.678 298.148C191.118 298.3 190.552 298.452 190.01 298.653C189.59 298.811 188.872 299.388 188.458 299.413C187.898 299.413 188.348 298.926 188.598 298.598C189.095 297.921 189.79 297.415 190.588 297.15C191.853 296.633 193.175 296.267 194.527 296.062Z" fill="#F9A826"/>
<path d="M202.209 330.257C202.946 332.617 203.682 334.983 204.608 337.275C206.261 341.262 208.345 345.057 210.823 348.593C212.419 350.922 214.134 353.167 215.961 355.319C218.244 358.013 220.794 360.725 221.61 364.161C222.079 366.156 221.92 368.23 222.115 370.243C222.31 372.256 222.974 374.427 224.617 375.643C225.798 376.507 227.302 376.768 228.745 376.999C229.773 377.163 231.064 377.218 231.606 376.324C231.789 375.958 231.887 375.554 231.892 375.144L232.135 372.171C232.19 371.526 232.421 370.705 233.061 370.675C233.7 370.644 234.035 371.502 234.582 371.891C235.313 372.402 236.409 371.891 236.811 371.118C237.141 370.282 237.163 369.355 236.871 368.503C236.426 366.812 235.628 365.233 234.53 363.871C233.431 362.508 232.057 361.393 230.498 360.598C229.412 360.16 228.371 359.62 227.387 358.986C226.389 358.12 225.563 357.074 224.952 355.903C219.297 346.616 213.617 337.275 209.636 327.156C208.851 325.35 208.318 323.445 208.053 321.494C207.864 319.505 208.169 317.505 208.303 315.51C208.539 311.927 208.206 308.329 207.316 304.849C207.123 303.935 206.777 303.059 206.294 302.259C204.656 299.765 200.815 299.4 198.38 301.115C197.483 301.804 196.738 302.672 196.194 303.663C195.65 304.655 195.319 305.748 195.221 306.874C195.044 308.893 196.213 310.985 196.797 312.865C198.595 318.67 200.399 324.468 202.209 330.257Z" fill="#A1616A"/>
<path d="M236.275 278.273C236.366 277.325 235.514 276.449 234.546 275.841C233.526 275.319 232.548 274.721 231.618 274.053C230.753 273.305 230.279 272.332 229.414 271.584C228.431 270.836 227.316 270.281 226.127 269.948C223.597 269.062 220.942 268.588 218.262 268.543C215.553 268.543 212.783 269.151 210.744 270.532C210.241 270.848 209.806 271.261 209.465 271.748C209.144 272.332 208.937 272.972 208.857 273.633C208.371 275.674 207.713 277.669 206.89 279.599C206.044 281.746 205.143 283.972 203.153 285.632C201.022 287.401 197.765 288.423 196.359 290.564C196.203 290.754 196.094 290.978 196.04 291.217C195.987 291.457 195.989 291.706 196.048 291.944C196.249 292.485 196.895 292.856 197.491 293.197C200.949 295.18 203.932 297.752 205.466 300.823C207 303.894 206.957 307.513 204.772 310.341C203.968 311.387 202.86 312.627 203.646 313.679C204.863 315.279 208.936 314.36 209.885 316.051C210.184 316.592 210.007 317.206 210.007 317.796C210.007 319.572 211.718 321.147 213.794 321.968C215.869 322.789 218.274 322.984 220.612 323.087C221.232 321.694 221.293 320.115 220.782 318.678C220.626 318.368 220.565 318.019 220.605 317.675C220.78 317.292 221.05 316.961 221.391 316.714C223.887 314.354 223.357 310.888 221.859 308.084C220.362 305.281 218.024 302.721 217.154 299.771C216.722 298.305 216.722 296.657 217.884 295.441C218.552 294.856 219.271 294.333 220.033 293.878C221.395 292.955 222.444 291.64 223.04 290.108C223.741 288.168 223.649 285.851 225.682 284.543C227.637 283.327 230.382 283.68 232.543 282.846C234.205 282.19 236.141 279.666 236.275 278.273Z" fill="#464353"/>
<path d="M354.312 373.563C345.029 369.726 342.301 366.953 342.301 361.4C342.301 357.143 344.176 352.23 352.394 352.23C356.937 352.163 361.4 353.432 365.227 355.879L367.899 348.818C364.801 346.994 360.43 345.297 354.026 345.084V334.746H348.626V345.51C338.807 347.109 333.121 353.823 333.121 362.671C333.121 371.946 338.6 376.853 349.509 381.116C357.411 384.333 361.544 387.958 361.544 393.82C361.544 399.902 356.424 404.268 348.845 404.268C342.874 404.268 336.104 402.243 332.263 399.683L329.7 406.823C333.438 409.492 339.842 411.408 346.027 411.517V422.282H355.213V411.195C366.17 409.371 372.069 401.465 372.069 393.072C372.069 383.585 365.306 378.039 354.312 373.563Z" fill="url(#paint1_linear_3_1261)"/>
<path d="M346.051 419.849V409.085C339.866 408.975 333.462 407.06 329.724 404.39L332.287 397.25C336.128 399.81 342.898 401.836 348.869 401.836C356.448 401.836 361.544 397.469 361.544 391.388C361.544 385.525 357.386 381.901 349.484 378.702C338.6 374.445 333.097 369.531 333.097 360.257C333.097 351.408 338.782 344.695 348.602 343.095V332.331H354.001V342.669C360.405 342.882 364.776 344.585 367.875 346.403L365.202 353.434C361.375 350.987 356.913 349.718 352.37 349.785C344.152 349.785 342.277 354.692 342.277 358.955C342.277 364.496 345.004 367.269 354.287 371.118C365.281 375.594 372.045 381.14 372.045 390.628C372.045 399.05 366.176 406.938 355.188 408.75V419.849H346.051Z" fill="#F9A826"/>
</g>
<defs>
<linearGradient id="paint0_linear_3_1261" x1="186.162" y1="258.497" x2="186.162" y2="142.402" gradientUnits="userSpaceOnUse">
<stop stop-color="#808080" stop-opacity="0.25"/>
<stop offset="0.54" stop-color="#808080" stop-opacity="0.12"/>
<stop offset="1" stop-color="#808080" stop-opacity="0.1"/>
</linearGradient>
<linearGradient id="paint1_linear_3_1261" x1="329.725" y1="378.52" x2="372.069" y2="378.52" gradientUnits="userSpaceOnUse">
<stop stop-color="#808080" stop-opacity="0.25"/>
<stop offset="0.54" stop-color="#808080" stop-opacity="0.12"/>
<stop offset="1" stop-color="#808080" stop-opacity="0.1"/>
</linearGradient>
<clipPath id="clip0_3_1261">
<rect width="717" height="441" fill="white"/>
</clipPath>
</defs>
</svg>
