<?xml version="1.0" standalone="no"?>
<!DOCTYPE svg PUBLIC "-//W3C//DTD SVG 20010904//EN"
 "http://www.w3.org/TR/2001/REC-SVG-20010904/DTD/svg10.dtd">
<svg version="1.0" xmlns="http://www.w3.org/2000/svg"
 width="512.000000pt" height="512.000000pt" viewBox="0 0 512.000000 512.000000"
 preserveAspectRatio="xMidYMid meet">

<g transform="translate(0.000000,512.000000) scale(0.100000,-0.100000)"
fill="#000000" stroke="none">
<path d="M0 2560 l0 -2560 2560 0 2560 0 0 2560 0 2560 -2560 0 -2560 0 0
-2560z m5020 0 l0 -2460 -2460 0 -2460 0 0 2460 0 2460 2460 0 2460 0 0 -2460z"/>
<path d="M1237 3433 c-5 -8 -786 -1759 -794 -1781 -4 -10 41 -12 217 -10 l223
3 77 185 77 185 407 0 407 0 77 -187 77 -188 427 0 428 0 2 501 3 500 245
-403 245 -403 104 0 104 0 245 412 c159 266 249 408 254 400 4 -6 8 -236 8
-509 l0 -498 200 0 200 0 0 900 0 900 -177 0 -178 0 -314 -530 c-173 -292
-319 -537 -325 -546 -10 -13 -70 81 -341 530 l-329 546 -178 0 -178 0 -2 -880
-3 -881 -289 648 c-160 356 -337 753 -394 881 l-105 232 -208 0 c-114 0 -210
-3 -212 -7z m343 -763 c67 -162 124 -301 127 -307 4 -10 -52 -13 -262 -13
-250 0 -267 1 -261 18 56 149 261 620 267 610 4 -7 62 -146 129 -308z"/>
</g>
</svg>
