<?xml version="1.0" standalone="no"?>
<!DOCTYPE svg PUBLIC "-//W3C//DTD SVG 20010904//EN"
 "http://www.w3.org/TR/2001/REC-SVG-20010904/DTD/svg10.dtd">
<svg version="1.0" xmlns="http://www.w3.org/2000/svg"
 width="513.000000pt" height="513.000000pt" viewBox="0 0 513.000000 513.000000"
 preserveAspectRatio="xMidYMid meet">

<g transform="translate(0.000000,513.000000) scale(0.100000,-0.100000)"
fill="#000000" stroke="none">
<path d="M7 5123 c-4 -3 -7 -1155 -7 -2560 l0 -2553 2565 0 2565 0 -2 2558 -3
2557 -2556 3 c-1406 1 -2559 -1 -2562 -5z m5013 -2553 l0 -2460 -2455 0 -2455
0 0 2460 0 2460 2455 0 2455 0 0 -2460z"/>
<path d="M765 4530 c-121 -71 -221 -134 -223 -140 -4 -10 288 -2551 293 -2558
2 -3 468 262 484 275 2 2 -13 123 -33 269 -22 148 -34 269 -30 274 5 5 198
117 429 250 231 133 430 248 442 256 20 13 34 4 231 -151 116 -91 215 -165
220 -165 13 0 461 257 480 275 11 10 -183 157 -1020 779 -568 421 -1037 765
-1043 765 -5 -1 -109 -59 -230 -129z m693 -819 l323 -253 -298 -172 c-164 -95
-299 -172 -300 -172 -1 1 -29 197 -63 436 -33 239 -63 446 -66 459 -5 23 -3
23 38 -10 24 -20 188 -149 366 -288z"/>
<path d="M3614 3343 l-181 -105 -6 -502 c-4 -275 -7 -616 -8 -756 0 -140 -3
-262 -7 -272 -6 -13 -123 48 -684 358 l-677 374 -183 -106 c-101 -58 -184
-107 -186 -109 -5 -4 1085 -1887 1092 -1887 13 0 416 236 416 243 0 5 -132
238 -294 518 -331 573 -321 555 -309 549 123 -71 1010 -552 1022 -555 9 -2 60
21 112 52 l96 55 6 188 c4 103 8 320 8 482 1 162 4 349 8 414 l6 119 314 -541
c173 -298 317 -542 320 -542 20 1 415 242 413 251 -5 19 -1086 1879 -1092
1878 -3 0 -86 -48 -186 -106z"/>
</g>
</svg>
